G04*
G04 #@! TF.GenerationSoftware,Altium Limited,Altium Designer,21.6.4 (81)*
G04*
G04 Layer_Physical_Order=1*
G04 Layer_Color=255*
%FSLAX44Y44*%
%MOMM*%
G71*
G04*
G04 #@! TF.SameCoordinates,42E99185-249E-4A08-A5EB-3BBFC5BDC6E3*
G04*
G04*
G04 #@! TF.FilePolarity,Positive*
G04*
G01*
G75*
%ADD12C,0.1524*%
%ADD16R,2.9972X0.7112*%
%ADD17R,0.4000X0.5000*%
%ADD21R,0.2500X0.3000*%
%ADD23R,0.6350X0.2032*%
%ADD24R,0.8890X1.6002*%
%ADD25R,0.5000X0.4000*%
%ADD29R,2.0066X1.1938*%
G04:AMPARAMS|DCode=30|XSize=0.55mm|YSize=1.8mm|CornerRadius=0mm|HoleSize=0mm|Usage=FLASHONLY|Rotation=45.000|XOffset=0mm|YOffset=0mm|HoleType=Round|Shape=Rectangle|*
%AMROTATEDRECTD30*
4,1,4,0.4419,-0.8309,-0.8309,0.4419,-0.4419,0.8309,0.8309,-0.4419,0.4419,-0.8309,0.0*
%
%ADD30ROTATEDRECTD30*%

%ADD31O,1.3500X0.5500*%
%ADD32O,0.5500X1.3500*%
G04:AMPARAMS|DCode=33|XSize=0.55mm|YSize=1.8mm|CornerRadius=0mm|HoleSize=0mm|Usage=FLASHONLY|Rotation=135.000|XOffset=0mm|YOffset=0mm|HoleType=Round|Shape=Rectangle|*
%AMROTATEDRECTD33*
4,1,4,0.8309,0.4419,-0.4419,-0.8309,-0.8309,-0.4419,0.4419,0.8309,0.8309,0.4419,0.0*
%
%ADD33ROTATEDRECTD33*%

%ADD34C,0.9910*%
G04:AMPARAMS|DCode=35|XSize=1.147mm|YSize=2.667mm|CornerRadius=0.5735mm|HoleSize=0mm|Usage=FLASHONLY|Rotation=0.000|XOffset=0mm|YOffset=0mm|HoleType=Round|Shape=RoundedRectangle|*
%AMROUNDEDRECTD35*
21,1,1.1470,1.5200,0,0,0.0*
21,1,0.0000,2.6670,0,0,0.0*
1,1,1.1470,0.0000,-0.7600*
1,1,1.1470,0.0000,-0.7600*
1,1,1.1470,0.0000,0.7600*
1,1,1.1470,0.0000,0.7600*
%
%ADD35ROUNDEDRECTD35*%
%ADD36C,0.5080*%
D12*
X72009Y101346D02*
Y102870D01*
X243840Y63500D02*
Y69356D01*
Y63500D02*
X247396D01*
X229870D02*
X243840D01*
X181102Y106172D02*
X191580Y116650D01*
X172212Y97282D02*
X181102Y106172D01*
X162560Y17780D02*
Y19558D01*
Y15240D02*
Y17780D01*
X129540Y12700D02*
X140780D01*
X110490Y114554D02*
X124400D01*
X215646Y78500D02*
Y82042D01*
X201869Y56200D02*
X203708D01*
X193900D02*
X201869D01*
X120142Y70358D02*
Y79946D01*
Y64454D02*
Y70358D01*
X31496Y88900D02*
Y89535D01*
X12890Y83820D02*
X26416D01*
X84836Y14224D02*
Y18715D01*
X12700Y45720D02*
X20574D01*
X11430D02*
X12700D01*
X171259Y9969D02*
X176872Y4357D01*
X170560Y10669D02*
X171259Y9969D01*
X91948Y95631D02*
Y102870D01*
X253492Y40104D02*
Y41402D01*
Y64770D02*
Y72136D01*
Y41402D02*
Y64770D01*
X245590Y33500D02*
X246888D01*
X229870D02*
X245590D01*
X100024Y28831D02*
X124400D01*
X199580Y118618D02*
X202692D01*
X102997Y85725D02*
Y87884D01*
Y84836D02*
Y85725D01*
X101854Y83693D02*
Y84582D01*
Y77280D02*
Y83693D01*
X106934Y72200D02*
X110900D01*
X104076D02*
X106934D01*
X101854Y83693D02*
X102997Y84836D01*
X99187Y81026D02*
X101854Y83693D01*
X72009Y102870D02*
X75184D01*
X71755Y101092D02*
X72009Y101346D01*
X59309Y101092D02*
X71755D01*
X57658Y102743D02*
X59309Y101092D01*
X154686Y89329D02*
X173736Y70279D01*
X154686Y89329D02*
Y95758D01*
X159004Y100076D01*
X176276Y86868D02*
X176784Y86360D01*
Y80058D02*
Y86360D01*
Y80058D02*
X184404Y72438D01*
Y64454D02*
Y72438D01*
Y64454D02*
X193900Y64200D01*
X160274Y20066D02*
X162560Y17780D01*
X141034Y20066D02*
X160274D01*
X140780Y15240D02*
X141034Y20066D01*
X247396Y63500D02*
X247650Y42672D01*
X215900Y42418D02*
X247650Y42672D01*
X208026Y34544D02*
X215900Y42418D01*
X208026Y33020D02*
Y34544D01*
X50800Y40640D02*
X70104D01*
X44045Y33885D02*
X50800Y40640D01*
X44045Y93115D02*
X48660D01*
X51557Y96012D01*
X79502D01*
X85090Y101600D01*
Y110490D01*
X20357Y94459D02*
Y103368D01*
Y94459D02*
X23563Y91254D01*
X124400Y114554D02*
Y117700D01*
X249174Y80786D02*
Y93472D01*
X246888Y78500D02*
X249174Y80786D01*
X229870Y78500D02*
X246888D01*
X120142Y70358D02*
X121666D01*
X11430Y43791D02*
Y45720D01*
X5993Y38354D02*
X11430Y43791D01*
X5993Y29416D02*
Y38354D01*
Y29416D02*
X11777Y23632D01*
X20357D01*
X84836Y14224D02*
X91948Y7112D01*
X143192D01*
X148780Y12700D01*
Y15240D01*
X31496Y108966D02*
X33792Y111262D01*
X26416Y83820D02*
X31496Y88900D01*
X12890Y81280D02*
Y83820D01*
X229870Y93500D02*
Y114554D01*
X12192Y57658D02*
X12700Y58166D01*
X78486Y5334D02*
X80010Y3810D01*
X165100D01*
X171259Y9969D01*
X170560Y15240D02*
X171259Y9969D01*
X148400Y110490D02*
Y117700D01*
X140208Y102298D02*
X148400Y110490D01*
X140208Y87884D02*
Y102298D01*
Y87884D02*
X162306Y65786D01*
X156400Y34700D02*
Y48324D01*
X126492Y78232D02*
X156400Y48324D01*
X91948Y95631D02*
X95123Y92456D01*
X91948Y102870D02*
X94996D01*
X104775Y41402D02*
X117602D01*
X101600Y44577D02*
X104775Y41402D01*
X101600Y44577D02*
Y53660D01*
X104140Y56200D01*
X110900D01*
Y48200D02*
X142748D01*
X245590Y33500D02*
X253492Y41402D01*
X167234Y54508D02*
Y68097D01*
X143256Y92075D02*
X167234Y68097D01*
X143256Y92075D02*
Y100690D01*
X151532Y108966D01*
X156146D01*
X156400Y117700D01*
X246888Y33500D02*
X253492Y40104D01*
X210820Y53326D02*
Y77216D01*
Y53326D02*
X215646Y48500D01*
X229870D01*
X124400Y28831D02*
Y34700D01*
X92710Y36145D02*
X100024Y28831D01*
X92710Y36145D02*
Y43559D01*
X92456Y43814D02*
X92710Y43559D01*
X82804Y43814D02*
X92456D01*
X82550Y44068D02*
X82804Y43814D01*
X82550Y44068D02*
Y73734D01*
X68146Y88138D02*
X82550Y73734D01*
X103886Y113284D02*
Y114300D01*
X103632Y113030D02*
X103886Y113284D01*
X94996Y113030D02*
X103632D01*
X132400Y22672D02*
Y34700D01*
X123952Y14224D02*
X132400Y22672D01*
X103095Y14224D02*
X123952D01*
X89662Y27657D02*
X103095Y14224D01*
X89662Y27657D02*
Y40511D01*
X89408Y40766D02*
X89662Y40511D01*
X79756Y40766D02*
X89408D01*
X79502Y41020D02*
X79756Y40766D01*
X79502Y41020D02*
Y69088D01*
X60452Y88138D02*
X79502Y69088D01*
X102616Y121666D02*
X117094D01*
X99060Y118110D02*
X102616Y121666D01*
X94996Y118110D02*
X99060D01*
X103313Y88200D02*
X110900D01*
X102997Y87884D02*
X103313Y88200D01*
X88900Y81026D02*
X99187D01*
X85598Y77724D02*
X88900Y81026D01*
X85598Y50163D02*
Y77724D01*
Y50163D02*
X88900Y46862D01*
X95504D01*
X95758Y46607D01*
Y42113D02*
Y46607D01*
Y42113D02*
X103962Y33909D01*
X117348D01*
X100076Y76200D02*
X104076Y72200D01*
X100076Y76200D02*
Y80518D01*
X16101Y90960D02*
Y94135D01*
X5080Y105156D02*
X16101Y94135D01*
X48514Y113284D02*
X54166D01*
X54420Y118110D01*
X3199Y45720D02*
X5430D01*
X2945Y45466D02*
X3199Y45720D01*
X2945Y23725D02*
Y45466D01*
Y23725D02*
X12700Y13970D01*
X19304D01*
X29210Y23876D01*
X57912D01*
X4700Y56768D02*
Y63500D01*
X12206Y33885D02*
X44045D01*
X31496Y89535D02*
Y108966D01*
X33792Y111262D02*
Y116803D01*
X20574Y45720D02*
X23622Y42672D01*
X56134Y10160D02*
X62105Y4189D01*
X70310D01*
X84836Y18715D01*
Y35814D01*
X184912Y48200D02*
X193900D01*
X176911Y56201D02*
X184912Y48200D01*
X101854Y84582D02*
X102997Y85725D01*
X101854Y77280D02*
X106934Y72200D01*
X33792Y10197D02*
Y18034D01*
X34055Y18297D01*
X64652D01*
X74930Y28575D01*
Y66174D01*
X55626Y85478D02*
X74930Y66174D01*
X55626Y85478D02*
Y92710D01*
X55880Y92964D01*
X84963D01*
X90297Y87630D01*
X99695D01*
X99949Y87884D01*
Y100009D01*
X104140Y104200D01*
X110900D01*
X172400Y34700D02*
Y43688D01*
X172654Y43942D01*
X185420D01*
X185674Y43688D01*
Y28575D02*
Y43688D01*
Y28575D02*
X204851Y9398D01*
X212852D01*
X140780Y12700D02*
Y15240D01*
X180400Y11430D02*
Y34700D01*
X164400Y110552D02*
Y117700D01*
X158750Y104902D02*
X164400Y110552D01*
X154813Y104902D02*
X158750D01*
X148209Y98298D02*
X154813Y104902D01*
X148209Y95123D02*
Y98298D01*
X164400Y34700D02*
Y45199D01*
X137160Y72439D02*
X164400Y45199D01*
X137160Y72439D02*
Y90678D01*
X118364Y109474D02*
X137160Y90678D01*
X101854Y109474D02*
X118364D01*
X100330Y107950D02*
X101854Y109474D01*
X94996Y107950D02*
X100330D01*
X12700Y58166D02*
Y63500D01*
X67056Y105918D02*
X69088Y107950D01*
X75184D01*
X25690Y63500D02*
X36479D01*
X39655Y66675D01*
Y88869D01*
X34544Y93980D02*
X39655Y88869D01*
X34544Y93980D02*
Y102021D01*
X38100Y105577D01*
X50906D01*
X56073Y110744D01*
X66040D01*
X69596Y114300D01*
Y117856D01*
X69850Y118110D01*
X75184D01*
X191580Y116650D02*
Y118110D01*
X181102Y85725D02*
Y106172D01*
Y85725D02*
X186627Y80200D01*
X193900D01*
X200660Y29020D02*
X204026D01*
X208026Y33020D01*
X217913Y4826D02*
Y23622D01*
X217443Y4357D02*
X217913Y4826D01*
X176872Y4357D02*
X217443D01*
X170560Y10669D02*
Y15240D01*
X199580Y118110D02*
Y118618D01*
X202692D02*
X202946Y118364D01*
Y73978D02*
Y118364D01*
X201168Y72200D02*
X202946Y73978D01*
X193900Y72200D02*
X201168D01*
X215646Y78500D02*
X229870D01*
X206248Y82042D02*
X215646D01*
X205994Y81788D02*
X206248Y82042D01*
X205994Y60325D02*
Y81788D01*
X201869Y56200D02*
X205994Y60325D01*
X33792Y116803D02*
X43905D01*
X50038Y122936D01*
X62166D01*
X62420Y122682D01*
Y118110D02*
Y122682D01*
X12890Y74232D02*
Y81280D01*
Y74232D02*
X17018Y70104D01*
Y50038D02*
Y70104D01*
X12700Y45720D02*
X17018Y50038D01*
X162560Y19558D02*
X167386Y24384D01*
X110900Y80200D02*
X119888D01*
X120142Y79946D01*
X119888Y64200D02*
X120142Y64454D01*
X110900Y64200D02*
X119888D01*
X243840Y69356D02*
X254000Y79516D01*
Y113665D01*
X244729Y122936D02*
X254000Y113665D01*
X191834Y122936D02*
X244729D01*
X191580Y122682D02*
X191834Y122936D01*
X191580Y118110D02*
Y122682D01*
X159512Y93472D02*
X163322Y97282D01*
X172212D01*
X200660Y37020D02*
X203708D01*
X203962Y37274D01*
Y55946D01*
X203708Y56200D02*
X203962Y55946D01*
X81280Y110490D02*
X85090D01*
X78740Y113030D02*
X81280Y110490D01*
X75184Y113030D02*
X78740D01*
X44045Y33885D02*
Y93115D01*
X4890Y72326D02*
Y81280D01*
X4700Y72136D02*
X4890Y72326D01*
X4700Y63500D02*
Y72136D01*
D16*
X229870Y33500D02*
D03*
Y48500D02*
D03*
Y63500D02*
D03*
Y78500D02*
D03*
Y93500D02*
D03*
D17*
X199580Y118110D02*
D03*
X191580D02*
D03*
X4700Y63500D02*
D03*
X12700D02*
D03*
X170560Y15240D02*
D03*
X162560D02*
D03*
X62420Y118110D02*
D03*
X54420D02*
D03*
X12890Y81280D02*
D03*
X4890D02*
D03*
X148780Y15240D02*
D03*
X140780D02*
D03*
D21*
X5430Y45720D02*
D03*
X11430D02*
D03*
D23*
X94996Y102870D02*
D03*
Y107950D02*
D03*
Y113030D02*
D03*
Y118110D02*
D03*
X75184D02*
D03*
Y113030D02*
D03*
Y107950D02*
D03*
Y102870D02*
D03*
D24*
X85090Y110490D02*
D03*
D25*
X200660Y29020D02*
D03*
Y37020D02*
D03*
D29*
X268890Y21000D02*
D03*
Y106000D02*
D03*
D30*
X44045Y93115D02*
D03*
X20357Y103368D02*
D03*
X33792Y116803D02*
D03*
D31*
X110900Y104200D02*
D03*
Y96200D02*
D03*
Y88200D02*
D03*
Y80200D02*
D03*
Y72200D02*
D03*
Y64200D02*
D03*
Y56200D02*
D03*
Y48200D02*
D03*
X193900D02*
D03*
Y56200D02*
D03*
Y64200D02*
D03*
Y72200D02*
D03*
Y80200D02*
D03*
Y88200D02*
D03*
Y96200D02*
D03*
Y104200D02*
D03*
D32*
X124400Y34700D02*
D03*
X132400D02*
D03*
X140400D02*
D03*
X148400D02*
D03*
X156400D02*
D03*
X164400D02*
D03*
X172400D02*
D03*
X180400D02*
D03*
Y117700D02*
D03*
X172400D02*
D03*
X164400D02*
D03*
X156400D02*
D03*
X148400D02*
D03*
X140400D02*
D03*
X132400D02*
D03*
X124400D02*
D03*
D33*
X20357Y23632D02*
D03*
X33792Y10197D02*
D03*
X44045Y33885D02*
D03*
D34*
X118110Y21590D02*
D03*
X67310Y11430D02*
D03*
Y31750D02*
D03*
D35*
X25690Y63500D02*
D03*
X93690D02*
D03*
D36*
X57658Y102743D02*
D03*
X173736Y70279D02*
D03*
X159004Y100076D02*
D03*
X176276Y86868D02*
D03*
X208026Y33020D02*
D03*
X70104Y40640D02*
D03*
X23563Y91254D02*
D03*
X110490Y114554D02*
D03*
X249174Y93472D02*
D03*
X121666Y70358D02*
D03*
X84836Y35814D02*
D03*
X229870Y114554D02*
D03*
X78486Y5334D02*
D03*
X162306Y65786D02*
D03*
X126492Y78232D02*
D03*
X95123Y92456D02*
D03*
X117602Y41402D02*
D03*
X142748Y48200D02*
D03*
X253492Y72136D02*
D03*
X167234Y54508D02*
D03*
X253492Y64770D02*
D03*
X210820Y77216D02*
D03*
X68146Y88138D02*
D03*
X103886Y114300D02*
D03*
X60452Y88138D02*
D03*
X117094Y121666D02*
D03*
X117348Y33909D02*
D03*
X100076Y80518D02*
D03*
X16101Y90960D02*
D03*
X5080Y105156D02*
D03*
X48514Y113284D02*
D03*
X57912Y23876D02*
D03*
X4700Y56768D02*
D03*
X12206Y33885D02*
D03*
X31496Y89535D02*
D03*
X23622Y42672D02*
D03*
X56134Y10160D02*
D03*
X176911Y56201D02*
D03*
X212852Y9398D02*
D03*
X129540Y12700D02*
D03*
X180400Y11430D02*
D03*
X148209Y95123D02*
D03*
X12192Y57658D02*
D03*
X67056Y105918D02*
D03*
X217913Y23622D02*
D03*
X167386Y24384D02*
D03*
X159512Y93472D02*
D03*
M02*
