G04*
G04 #@! TF.GenerationSoftware,Altium Limited,Altium Designer,21.6.4 (81)*
G04*
G04 Layer_Color=128*
%FSLAX44Y44*%
%MOMM*%
G71*
G04*
G04 #@! TF.SameCoordinates,9E8F8E2E-94DC-4AE6-BDFF-5FD21EBF1C16*
G04*
G04*
G04 #@! TF.FilePolarity,Positive*
G04*
G01*
G75*
%ADD48C,0.0508*%
D48*
X114300Y21590D02*
X121920D01*
X118110Y17780D02*
Y25400D01*
X63500Y11430D02*
X71120D01*
X67310Y7620D02*
Y15240D01*
X63500Y31750D02*
X71120D01*
X67310Y27940D02*
Y35560D01*
X20590Y63500D02*
X30790D01*
X25690Y58400D02*
Y68600D01*
X88590Y63500D02*
X98790D01*
X93690Y58400D02*
Y68600D01*
X179348Y93120D02*
X182348D01*
X180848Y91620D02*
Y94620D01*
X181126Y59944D02*
X184126D01*
X182626Y58444D02*
Y61444D01*
X42545Y23621D02*
X45545D01*
X44045Y22120D02*
Y25120D01*
X224238Y79180D02*
X227238D01*
X225738Y77680D02*
Y80680D01*
X9930Y36068D02*
X12930D01*
X11430Y34568D02*
Y37568D01*
X51840Y115844D02*
X54840D01*
X53340Y114344D02*
Y117344D01*
X146900Y80010D02*
X149900D01*
X148400Y78510D02*
Y81510D01*
X34822Y51054D02*
X37822D01*
X36322Y49554D02*
Y52554D01*
X5104Y22448D02*
X8104D01*
X6604Y20948D02*
Y23948D01*
X189254Y27178D02*
X192254D01*
X190754Y25678D02*
Y28678D01*
X247166Y61468D02*
X250166D01*
X248666Y59968D02*
Y62968D01*
X109752Y116586D02*
X112752D01*
X111252Y115086D02*
Y118086D01*
X107212Y35306D02*
X110212D01*
X108712Y33806D02*
Y36806D01*
X215924Y16256D02*
X218924D01*
X217424Y14756D02*
Y17756D01*
X130900Y18796D02*
X133900D01*
X132400Y17297D02*
Y20296D01*
X160806Y18288D02*
X163806D01*
X162306Y16788D02*
Y19788D01*
X213638Y44450D02*
X216638D01*
X215138Y42950D02*
Y45950D01*
X218210Y64262D02*
X221210D01*
X219710Y62762D02*
Y65762D01*
X205510Y11176D02*
X208510D01*
X207010Y9676D02*
Y12676D01*
X137885Y7783D02*
X140885D01*
X139385Y6283D02*
Y9283D01*
X143788Y15240D02*
X146788D01*
X145288Y13740D02*
Y16740D01*
X84352Y82550D02*
X87352D01*
X85852Y81050D02*
Y84050D01*
X16534Y45720D02*
X19534D01*
X18034Y44220D02*
Y47220D01*
X167197Y21590D02*
X170197D01*
X168697Y20090D02*
Y23090D01*
X259866Y86614D02*
X262866D01*
X261366Y85114D02*
Y88114D01*
X181888Y102870D02*
X184888D01*
X183388Y101370D02*
Y104370D01*
X172744Y48200D02*
X175744D01*
X174244Y46700D02*
Y49700D01*
X206272Y47565D02*
X209272D01*
X207772Y46065D02*
Y49065D01*
X98830Y47244D02*
X101830D01*
X100330Y45744D02*
Y48744D01*
X215924Y37084D02*
X218924D01*
X217424Y35584D02*
Y38584D01*
X171982Y15748D02*
X174982D01*
X173482Y14248D02*
Y17248D01*
X166902Y55372D02*
X169902D01*
X168402Y53872D02*
Y56872D01*
X169188Y73152D02*
X172188D01*
X170688Y71652D02*
Y74652D01*
X25932Y108966D02*
X28932D01*
X27432Y107466D02*
Y110466D01*
X102640Y113538D02*
X105640D01*
X104140Y112038D02*
Y115038D01*
X197446Y27178D02*
X200445D01*
X198946Y25678D02*
Y28678D01*
X230910Y94180D02*
X233910D01*
X232410Y92680D02*
Y95680D01*
X286028Y71120D02*
X289028D01*
X287528Y69620D02*
Y72620D01*
X282726Y56642D02*
X285726D01*
X284226Y55142D02*
Y58142D01*
M02*
