M48
;Layer_Color=9474304
;FILE_FORMAT=4:4
METRIC,LZ
;TYPE=PLATED
T1F00S00C0.3000
;TYPE=NON_PLATED
T3F00S00C0.7620
%
T01
X00012206Y00033885
X00023622Y00042672
X00012192Y00057658
X000047Y00056768
X00016101Y0009096
X00023563Y00091254
X00031496Y00089535
X00060452Y00088138
X00068146
X00095123Y00092456
X00100076Y00080518
X00126492Y00078232
X00121666Y00070358
X00117602Y00041402
X00117348Y00033909
X0012954Y000127
X00142748Y000482
X00167234Y00054508
X00176911Y00056201
X00173736Y00070279
X00162306Y00065786
X00159512Y00093472
X00159004Y00100076
X00148209Y00095123
X00176276Y00086868
X0021082Y00077216
X00208026Y0003302
X00217913Y00023622
X00212852Y00009398
X001804Y0001143
X00167386Y00024384
X00084836Y00035814
X00070104Y0004064
X00057912Y00023876
X00056134Y0001016
X00078486Y00005334
X00253492Y0006477
Y00072136
X00249174Y00093472
X0022987Y00114554
X0011049
X00103886Y001143
X00117094Y00121666
X00067056Y00105918
X00057658Y00102743
X00048514Y00113284
X0000508Y00105156
T03
X0006731Y0001143
Y0003175
X0011811Y0002159
M30
