G04*
G04 #@! TF.GenerationSoftware,Altium Limited,Altium Designer,21.6.4 (81)*
G04*
G04 Layer_Color=8388736*
%FSLAX44Y44*%
%MOMM*%
G71*
G04*
G04 #@! TF.SameCoordinates,42E99185-249E-4A08-A5EB-3BBFC5BDC6E3*
G04*
G04*
G04 #@! TF.FilePolarity,Negative*
G04*
G01*
G75*
%ADD15R,2.2098X1.3970*%
%ADD16R,2.9972X0.7112*%
%ADD17R,0.4000X0.5000*%
G04:AMPARAMS|DCode=18|XSize=0.7532mm|YSize=2.0032mm|CornerRadius=0mm|HoleSize=0mm|Usage=FLASHONLY|Rotation=45.000|XOffset=0mm|YOffset=0mm|HoleType=Round|Shape=Rectangle|*
%AMROTATEDRECTD18*
4,1,4,0.4419,-0.9745,-0.9745,0.4419,-0.4419,0.9745,0.9745,-0.4419,0.4419,-0.9745,0.0*
%
%ADD18ROTATEDRECTD18*%

%ADD19O,1.5532X0.7532*%
%ADD20O,0.7532X1.5532*%
%ADD21R,0.2500X0.3000*%
G04:AMPARAMS|DCode=22|XSize=0.7532mm|YSize=2.0032mm|CornerRadius=0mm|HoleSize=0mm|Usage=FLASHONLY|Rotation=135.000|XOffset=0mm|YOffset=0mm|HoleType=Round|Shape=Rectangle|*
%AMROTATEDRECTD22*
4,1,4,0.9745,0.4419,-0.4419,-0.9745,-0.9745,-0.4419,0.4419,0.9745,0.9745,0.4419,0.0*
%
%ADD22ROTATEDRECTD22*%

%ADD23R,0.6350X0.2032*%
%ADD24R,0.8890X1.6002*%
%ADD25R,0.5000X0.4000*%
%ADD26C,1.1942*%
G04:AMPARAMS|DCode=27|XSize=1.3502mm|YSize=2.8702mm|CornerRadius=0.6751mm|HoleSize=0mm|Usage=FLASHONLY|Rotation=0.000|XOffset=0mm|YOffset=0mm|HoleType=Round|Shape=RoundedRectangle|*
%AMROUNDEDRECTD27*
21,1,1.3502,1.5200,0,0,0.0*
21,1,0.0000,2.8702,0,0,0.0*
1,1,1.3502,0.0000,-0.7600*
1,1,1.3502,0.0000,-0.7600*
1,1,1.3502,0.0000,0.7600*
1,1,1.3502,0.0000,0.7600*
%
%ADD27ROUNDEDRECTD27*%
%ADD28C,0.7112*%
D15*
X268890Y21000D02*
D03*
Y106000D02*
D03*
D16*
X229870Y33500D02*
D03*
Y48500D02*
D03*
Y63500D02*
D03*
Y78500D02*
D03*
Y93500D02*
D03*
D17*
X199580Y118110D02*
D03*
X191580D02*
D03*
X4700Y63500D02*
D03*
X12700D02*
D03*
X170560Y15240D02*
D03*
X162560D02*
D03*
X62420Y118110D02*
D03*
X54420D02*
D03*
X12890Y81280D02*
D03*
X4890D02*
D03*
X148780Y15240D02*
D03*
X140780D02*
D03*
D18*
X44045Y93115D02*
D03*
X20357Y103368D02*
D03*
X33792Y116803D02*
D03*
D19*
X110900Y104200D02*
D03*
Y96200D02*
D03*
Y88200D02*
D03*
Y80200D02*
D03*
Y72200D02*
D03*
Y64200D02*
D03*
Y56200D02*
D03*
Y48200D02*
D03*
X193900D02*
D03*
Y56200D02*
D03*
Y64200D02*
D03*
Y72200D02*
D03*
Y80200D02*
D03*
Y88200D02*
D03*
Y96200D02*
D03*
Y104200D02*
D03*
D20*
X124400Y34700D02*
D03*
X132400D02*
D03*
X140400D02*
D03*
X148400D02*
D03*
X156400D02*
D03*
X164400D02*
D03*
X172400D02*
D03*
X180400D02*
D03*
Y117700D02*
D03*
X172400D02*
D03*
X164400D02*
D03*
X156400D02*
D03*
X148400D02*
D03*
X140400D02*
D03*
X132400D02*
D03*
X124400D02*
D03*
D21*
X5430Y45720D02*
D03*
X11430D02*
D03*
D22*
X20357Y23632D02*
D03*
X33792Y10197D02*
D03*
X44045Y33885D02*
D03*
D23*
X94996Y102870D02*
D03*
Y107950D02*
D03*
Y113030D02*
D03*
Y118110D02*
D03*
X75184D02*
D03*
Y113030D02*
D03*
Y107950D02*
D03*
Y102870D02*
D03*
D24*
X85090Y110490D02*
D03*
D25*
X200660Y29020D02*
D03*
Y37020D02*
D03*
D26*
X118110Y21590D02*
D03*
X67310Y11430D02*
D03*
Y31750D02*
D03*
D27*
X25690Y63500D02*
D03*
X93690D02*
D03*
D28*
X57658Y102743D02*
D03*
X173736Y70279D02*
D03*
X159004Y100076D02*
D03*
X176276Y86868D02*
D03*
X208026Y33020D02*
D03*
X70104Y40640D02*
D03*
X23563Y91254D02*
D03*
X110490Y114554D02*
D03*
X249174Y93472D02*
D03*
X121666Y70358D02*
D03*
X84836Y35814D02*
D03*
X229870Y114554D02*
D03*
X78486Y5334D02*
D03*
X162306Y65786D02*
D03*
X126492Y78232D02*
D03*
X95123Y92456D02*
D03*
X117602Y41402D02*
D03*
X142748Y48200D02*
D03*
X253492Y72136D02*
D03*
X167234Y54508D02*
D03*
X253492Y64770D02*
D03*
X210820Y77216D02*
D03*
X68146Y88138D02*
D03*
X103886Y114300D02*
D03*
X60452Y88138D02*
D03*
X117094Y121666D02*
D03*
X117348Y33909D02*
D03*
X100076Y80518D02*
D03*
X16101Y90960D02*
D03*
X5080Y105156D02*
D03*
X48514Y113284D02*
D03*
X57912Y23876D02*
D03*
X4700Y56768D02*
D03*
X12206Y33885D02*
D03*
X31496Y89535D02*
D03*
X23622Y42672D02*
D03*
X56134Y10160D02*
D03*
X176911Y56201D02*
D03*
X212852Y9398D02*
D03*
X129540Y12700D02*
D03*
X180400Y11430D02*
D03*
X148209Y95123D02*
D03*
X12192Y57658D02*
D03*
X67056Y105918D02*
D03*
X217913Y23622D02*
D03*
X167386Y24384D02*
D03*
X159512Y93472D02*
D03*
M02*
