M48
;Layer_Color=9474304
;FILE_FORMAT=4:4
METRIC,LZ
;TYPE=PLATED
T1F00S00C0.7112
T2F00S00C0.8440
T3F00S00C0.8444
T4F00S00C1.1000
T5F00S00C2.2000
;TYPE=NON_PLATED
T6F00S00C3.0000
%
T01
X008001Y0117348
X0096647Y0116586
X010033Y0123063
X0096012Y0127127
X00891794Y0129921
X00864616Y01327385
X0085979Y01240282
X0084836Y0121285
X0081788Y01198626
X0085725Y0145796
X007747Y01377188
X0071247Y0133096
X0075819Y0127762
X0077216Y0122809
X0075922Y01198214
X00690372Y011938
X00693928Y01226018
X00676402Y0124079
X0060706Y0121666
X0061849Y0128651
T02
X008763Y0123952
Y0126492
Y0129032
Y0131572
Y0134112
Y0136652
Y0139192
Y0141732
Y0144272
X007278
Y0141732
Y0139192
Y0136652
Y0134112
Y0131572
Y0129032
Y0126492
Y0123952
T03
X008763Y0121412
X007278
T04
X0090932Y0119761
Y0122301
Y0124841
Y0127381
Y0129921
T05
X0080518Y0128525
Y0136525
T06
X0066Y0115
X0094
X0080264Y0152019
M30
