G04*
G04 #@! TF.GenerationSoftware,Altium Limited,Altium Designer,21.6.4 (81)*
G04*
G04 Layer_Color=8388736*
%FSLAX44Y44*%
%MOMM*%
G71*
G04*
G04 #@! TF.SameCoordinates,662A1053-D2FE-41ED-9168-75848B50F108*
G04*
G04*
G04 #@! TF.FilePolarity,Negative*
G04*
G01*
G75*
%ADD15R,0.5000X0.6000*%
%ADD16R,1.3970X2.2098*%
%ADD17R,0.7112X2.9972*%
%ADD18R,1.0057X1.3082*%
%ADD19R,1.4986X2.1082*%
%ADD20R,0.6604X1.5494*%
%ADD21R,1.6000X3.0000*%
%ADD22R,5.8000X6.2000*%
%ADD23C,1.7272*%
%ADD24R,1.7272X1.7272*%
%ADD25C,1.4732*%
D15*
X692230Y1233170D02*
D03*
X702230D02*
D03*
X703500Y1278890D02*
D03*
X693500D02*
D03*
D16*
X816610Y1137920D02*
D03*
X901610D02*
D03*
X702400D02*
D03*
X787400D02*
D03*
D17*
X829110Y1176940D02*
D03*
X844110D02*
D03*
X859110D02*
D03*
X874110D02*
D03*
X889110D02*
D03*
X714900D02*
D03*
X729900D02*
D03*
X744900D02*
D03*
X759900D02*
D03*
X774900D02*
D03*
D18*
X709572Y1431290D02*
D03*
X695048D02*
D03*
X915312Y1427480D02*
D03*
X900788D02*
D03*
D19*
X823260Y1473350D02*
D03*
X787260D02*
D03*
D20*
X810260Y1498600D02*
D03*
X800260D02*
D03*
D21*
X979160Y1206720D02*
D03*
X933460D02*
D03*
D22*
X956310Y1277620D02*
D03*
D23*
X730340Y1330960D02*
D03*
Y1356360D02*
D03*
Y1381760D02*
D03*
Y1407160D02*
D03*
Y1432560D02*
D03*
X878840Y1203960D02*
D03*
Y1229360D02*
D03*
Y1254760D02*
D03*
Y1280160D02*
D03*
Y1305560D02*
D03*
Y1330960D02*
D03*
Y1356360D02*
D03*
Y1381760D02*
D03*
Y1407160D02*
D03*
X730340Y1305560D02*
D03*
Y1280160D02*
D03*
Y1254760D02*
D03*
Y1203960D02*
D03*
D24*
X878840Y1432560D02*
D03*
X730340Y1229360D02*
D03*
D25*
X857250Y1152906D02*
D03*
X969264Y1231138D02*
D03*
X713740Y1271270D02*
D03*
X874110Y1146906D02*
D03*
X833320Y1422908D02*
D03*
X915162Y1293114D02*
D03*
X666242Y1278890D02*
D03*
X774900Y1240790D02*
D03*
X713740Y1229106D02*
D03*
X772160Y1148334D02*
D03*
X837438Y1215390D02*
D03*
X695960Y1189322D02*
D03*
X802640Y1181100D02*
D03*
X919988Y1259840D02*
D03*
X860806Y1475740D02*
D03*
X696976Y1295908D02*
D03*
M02*
