G04*
G04 #@! TF.GenerationSoftware,Altium Limited,Altium Designer,21.6.4 (81)*
G04*
G04 Layer_Color=16711935*
%FSLAX44Y44*%
%MOMM*%
G71*
G04*
G04 #@! TF.SameCoordinates,662A1053-D2FE-41ED-9168-75848B50F108*
G04*
G04*
G04 #@! TF.FilePolarity,Negative*
G04*
G01*
G75*
%ADD16R,1.3970X2.2098*%
%ADD17R,0.7112X2.9972*%
%ADD23C,1.7272*%
%ADD24R,1.7272X1.7272*%
%ADD25C,1.4732*%
G04:AMPARAMS|DCode=32|XSize=0.7112mm|YSize=2.9972mm|CornerRadius=0mm|HoleSize=0mm|Usage=FLASHONLY|Rotation=80.000|XOffset=0mm|YOffset=0mm|HoleType=Round|Shape=Rectangle|*
%AMROTATEDRECTD32*
4,1,4,1.4141,-0.6104,-1.5376,-0.0900,-1.4141,0.6104,1.5376,0.0900,1.4141,-0.6104,0.0*
%
%ADD32ROTATEDRECTD32*%

G04:AMPARAMS|DCode=34|XSize=0.7112mm|YSize=2.9972mm|CornerRadius=0mm|HoleSize=0mm|Usage=FLASHONLY|Rotation=120.000|XOffset=0mm|YOffset=0mm|HoleType=Round|Shape=Rectangle|*
%AMROTATEDRECTD34*
4,1,4,1.4756,0.4413,-1.1200,-1.0573,-1.4756,-0.4413,1.1200,1.0573,1.4756,0.4413,0.0*
%
%ADD34ROTATEDRECTD34*%

G04:AMPARAMS|DCode=36|XSize=0.7112mm|YSize=2.9972mm|CornerRadius=0mm|HoleSize=0mm|Usage=FLASHONLY|Rotation=280.000|XOffset=0mm|YOffset=0mm|HoleType=Round|Shape=Rectangle|*
%AMROTATEDRECTD36*
4,1,4,-1.5376,0.0900,1.4141,0.6104,1.5376,-0.0900,-1.4141,-0.6104,-1.5376,0.0900,0.0*
%
%ADD36ROTATEDRECTD36*%

G04:AMPARAMS|DCode=38|XSize=0.7112mm|YSize=2.9972mm|CornerRadius=0mm|HoleSize=0mm|Usage=FLASHONLY|Rotation=240.000|XOffset=0mm|YOffset=0mm|HoleType=Round|Shape=Rectangle|*
%AMROTATEDRECTD38*
4,1,4,-1.1200,1.0573,1.4756,-0.4413,1.1200,-1.0573,-1.4756,0.4413,-1.1200,1.0573,0.0*
%
%ADD38ROTATEDRECTD38*%

G04:AMPARAMS|DCode=39|XSize=2.2098mm|YSize=1.397mm|CornerRadius=0mm|HoleSize=0mm|Usage=FLASHONLY|Rotation=350.000|XOffset=0mm|YOffset=0mm|HoleType=Round|Shape=Rectangle|*
%AMROTATEDRECTD39*
4,1,4,-1.2094,-0.4960,-0.9668,0.8798,1.2094,0.4960,0.9668,-0.8798,-1.2094,-0.4960,0.0*
%
%ADD39ROTATEDRECTD39*%

G04:AMPARAMS|DCode=40|XSize=2.2098mm|YSize=1.397mm|CornerRadius=0mm|HoleSize=0mm|Usage=FLASHONLY|Rotation=30.000|XOffset=0mm|YOffset=0mm|HoleType=Round|Shape=Rectangle|*
%AMROTATEDRECTD40*
4,1,4,-0.6076,-1.1574,-1.3061,0.0525,0.6076,1.1574,1.3061,-0.0525,-0.6076,-1.1574,0.0*
%
%ADD40ROTATEDRECTD40*%

G04:AMPARAMS|DCode=41|XSize=2.2098mm|YSize=1.397mm|CornerRadius=0mm|HoleSize=0mm|Usage=FLASHONLY|Rotation=190.000|XOffset=0mm|YOffset=0mm|HoleType=Round|Shape=Rectangle|*
%AMROTATEDRECTD41*
4,1,4,0.9668,0.8798,1.2094,-0.4960,-0.9668,-0.8798,-1.2094,0.4960,0.9668,0.8798,0.0*
%
%ADD41ROTATEDRECTD41*%

G04:AMPARAMS|DCode=42|XSize=2.2098mm|YSize=1.397mm|CornerRadius=0mm|HoleSize=0mm|Usage=FLASHONLY|Rotation=150.000|XOffset=0mm|YOffset=0mm|HoleType=Round|Shape=Rectangle|*
%AMROTATEDRECTD42*
4,1,4,1.3061,0.0525,0.6076,-1.1574,-1.3061,-0.0525,-0.6076,1.1574,1.3061,0.0525,0.0*
%
%ADD42ROTATEDRECTD42*%

D16*
X760820Y1489710D02*
D03*
X845820D02*
D03*
X787200Y1138270D02*
D03*
X702200D02*
D03*
X901260D02*
D03*
X816260D02*
D03*
D17*
X773320Y1450690D02*
D03*
X788320D02*
D03*
X803320D02*
D03*
X818320D02*
D03*
X833320D02*
D03*
X774700Y1177290D02*
D03*
X759700D02*
D03*
X744700D02*
D03*
X729700D02*
D03*
X714700D02*
D03*
X888760D02*
D03*
X873760D02*
D03*
X858760D02*
D03*
X843760D02*
D03*
X828760D02*
D03*
D23*
X730340Y1330960D02*
D03*
Y1356360D02*
D03*
Y1381760D02*
D03*
Y1407160D02*
D03*
Y1432560D02*
D03*
X878840Y1203960D02*
D03*
Y1229360D02*
D03*
Y1254760D02*
D03*
Y1280160D02*
D03*
Y1305560D02*
D03*
Y1330960D02*
D03*
Y1356360D02*
D03*
Y1381760D02*
D03*
Y1407160D02*
D03*
X730340Y1305560D02*
D03*
Y1280160D02*
D03*
Y1254760D02*
D03*
Y1203960D02*
D03*
D24*
X878840Y1432560D02*
D03*
X730340Y1229360D02*
D03*
D25*
X857250Y1152906D02*
D03*
X969264Y1231138D02*
D03*
X713740Y1271270D02*
D03*
X874110Y1146906D02*
D03*
X833320Y1422908D02*
D03*
X915162Y1293114D02*
D03*
X666242Y1278890D02*
D03*
X774900Y1240790D02*
D03*
X713740Y1229106D02*
D03*
X772160Y1148334D02*
D03*
X837438Y1215390D02*
D03*
X695960Y1189322D02*
D03*
X802640Y1181100D02*
D03*
X919988Y1259840D02*
D03*
X860806Y1475740D02*
D03*
X696976Y1295908D02*
D03*
D32*
X950024Y1250482D02*
D03*
X947420Y1235710D02*
D03*
X944816Y1220938D02*
D03*
X942210Y1206166D02*
D03*
X939606Y1191394D02*
D03*
D34*
X905750Y1359481D02*
D03*
X913250Y1346491D02*
D03*
X920750Y1333500D02*
D03*
X928250Y1320509D02*
D03*
X935750Y1307519D02*
D03*
D36*
X668279Y1189322D02*
D03*
X665674Y1204094D02*
D03*
X663070Y1218866D02*
D03*
X660464Y1233638D02*
D03*
X657860Y1248410D02*
D03*
D38*
X674850Y1308209D02*
D03*
X682350Y1321199D02*
D03*
X689850Y1334189D02*
D03*
X697350Y1347179D02*
D03*
X704850Y1360170D02*
D03*
D39*
X990622Y1256016D02*
D03*
X975862Y1172308D02*
D03*
D40*
X933292Y1389816D02*
D03*
X975792Y1316204D02*
D03*
D41*
X632022Y1170236D02*
D03*
X617262Y1253944D02*
D03*
D42*
X634808Y1316893D02*
D03*
X677308Y1390505D02*
D03*
M02*
