M48
;Layer_Color=9474304
;FILE_FORMAT=4:4
METRIC,LZ
;TYPE=PLATED
T1F00S00C0.7112
T2F00S00C0.8440
T3F00S00C0.8444
%
T01
X0069596Y01189322
X0077216Y01148334
X0080264Y011811
X0085725Y01152906
X0087411Y01146906
X00837438Y0121539
X00919988Y0125984
X00915162Y01293114
X00969264Y01231138
X0083332Y01422908
X00860806Y0147574
X007749Y0124079
X0071374Y01229106
Y0127127
X00696976Y01295908
X00666242Y0127889
T02
X0087884Y0122936
Y0125476
Y0128016
Y0130556
Y0133096
Y0135636
Y0138176
Y0140716
Y0143256
X0073034
Y0140716
Y0138176
Y0135636
Y0133096
Y0130556
Y0128016
Y0125476
Y0122936
T03
X0087884Y0120396
X0073034
M30
