G04*
G04 #@! TF.GenerationSoftware,Altium Limited,Altium Designer,21.6.4 (81)*
G04*
G04 Layer_Physical_Order=1*
G04 Layer_Color=255*
%FSLAX44Y44*%
%MOMM*%
G71*
G04*
G04 #@! TF.SameCoordinates,662A1053-D2FE-41ED-9168-75848B50F108*
G04*
G04*
G04 #@! TF.FilePolarity,Positive*
G04*
G01*
G75*
%ADD14C,0.2540*%
%ADD15R,0.5000X0.6000*%
%ADD17R,0.7112X2.9972*%
%ADD18R,1.0057X1.3082*%
%ADD20R,0.6604X1.5494*%
%ADD21R,1.6000X3.0000*%
%ADD22R,5.8000X6.2000*%
%ADD26R,1.1938X2.0066*%
%ADD27R,1.2954X1.9050*%
%ADD28C,1.5240*%
%ADD29R,1.5240X1.5240*%
%ADD30C,1.2700*%
D14*
X878840Y1437894D02*
X909828D01*
X877734D02*
X878840D01*
Y1475486D01*
Y1432560D02*
Y1437894D01*
X874940Y1435100D02*
X877734Y1437894D01*
X874940Y1432560D02*
Y1435100D01*
X878840Y1428660D02*
X881724D01*
X920750Y1206500D02*
X933460D01*
X829110Y1207062D02*
Y1255830D01*
Y1176940D02*
Y1207062D01*
X806958Y1176782D02*
X829110D01*
X695706Y1188720D02*
Y1233170D01*
X707644Y1176782D02*
X708500D01*
X714900D01*
X666242Y1278890D02*
X690880D01*
X797306Y1123950D02*
X916940D01*
X729900Y1134364D02*
Y1142746D01*
X702230Y1229106D02*
X713740D01*
X703500Y1273890D02*
Y1278890D01*
Y1256538D02*
Y1273890D01*
X702230Y1229106D02*
Y1233170D01*
Y1209040D02*
Y1229106D01*
X908050Y1408938D02*
X937768Y1379220D01*
X900788Y1416050D02*
Y1416200D01*
X908050Y1408788D02*
X915162Y1401676D01*
X900788Y1416050D02*
X908050Y1408788D01*
Y1408938D01*
Y1252728D02*
Y1408788D01*
X889110Y1184656D02*
X939800D01*
X800260Y1300640D02*
Y1455968D01*
X774900Y1240790D02*
Y1275280D01*
Y1176940D02*
Y1240790D01*
X810260Y1498600D02*
X855726D01*
X878840Y1475486D01*
X744900Y1176940D02*
Y1214800D01*
X730340Y1229360D02*
X744900Y1214800D01*
X829110Y1255830D02*
X878840Y1305560D01*
X844110Y1160780D02*
Y1176940D01*
Y1160780D02*
X851984Y1152906D01*
X857250D01*
X955548Y1217422D02*
X969264Y1231138D01*
X955548Y1162558D02*
Y1217422D01*
X916940Y1123950D02*
X955548Y1162558D01*
X729900Y1142746D02*
Y1176940D01*
Y1142746D02*
X748696Y1123950D01*
X797306D01*
Y1141476D01*
X812800Y1156970D01*
X840740D01*
X844110Y1176940D01*
X690880Y1278890D02*
X693500D01*
X685800Y1273810D02*
X690880Y1278890D01*
X685800Y1128776D02*
Y1273810D01*
Y1128776D02*
X690880Y1123696D01*
X719232D01*
X729900Y1134364D01*
X956310Y1226058D02*
Y1277620D01*
X950468Y1220216D02*
X956310Y1226058D01*
X950468Y1188139D02*
Y1220216D01*
X920315Y1157986D02*
X950468Y1188139D01*
X876904Y1157986D02*
X920315D01*
X874110Y1176940D02*
X876904Y1157986D01*
X703500Y1273890D02*
X713740Y1271270D01*
X702230Y1233170D02*
X703500Y1256538D01*
X702230Y1209040D02*
X707310Y1203960D01*
X730340D01*
X874110Y1146906D02*
Y1176940D01*
X774900Y1275280D02*
X800260Y1300640D01*
Y1455968D02*
Y1498600D01*
Y1455968D02*
X833320Y1422908D01*
X915162Y1293114D02*
Y1401676D01*
X900788Y1416200D02*
Y1427480D01*
X937768Y1364234D02*
Y1379220D01*
Y1364234D02*
X989330Y1312672D01*
Y1231053D02*
Y1312672D01*
X979160Y1220882D02*
X989330Y1231053D01*
X979160Y1206720D02*
Y1220882D01*
X900788Y1416200D02*
X908050Y1408938D01*
Y1252728D02*
X923290Y1237488D01*
X934720D01*
X945388Y1226820D01*
Y1190244D02*
Y1226820D01*
X939800Y1184656D02*
X945388Y1190244D01*
X889110Y1176940D02*
Y1184656D01*
X933460Y1206500D02*
Y1206720D01*
X910590Y1216660D02*
X920750Y1206500D01*
X872998Y1216660D02*
X910590D01*
X859110Y1202772D02*
X872998Y1216660D01*
X859110Y1176940D02*
Y1202772D01*
X774900Y1151074D02*
Y1176940D01*
X772160Y1148334D02*
X774900Y1151074D01*
X878840Y1330960D02*
X890270Y1319530D01*
Y1297940D02*
Y1319530D01*
X883920Y1291590D02*
X890270Y1297940D01*
X873760Y1291590D02*
X883920D01*
X867410Y1285240D02*
X873760Y1291590D01*
X867410Y1225990D02*
Y1285240D01*
X844110Y1202690D02*
X867410Y1225990D01*
X844110Y1176940D02*
Y1202690D01*
X829110Y1207062D02*
X837438Y1215390D01*
X730340Y1203960D02*
X737362Y1196938D01*
Y1158240D02*
Y1196938D01*
Y1158240D02*
X739902Y1155700D01*
X757360D01*
X759900Y1158240D01*
Y1176940D01*
X695960Y1189322D02*
X708500Y1176782D01*
X829110D02*
Y1176940D01*
X802640Y1181100D02*
X806958Y1176782D01*
X810260Y1498600D02*
Y1508760D01*
X804164Y1514856D02*
X810260Y1508760D01*
X781708Y1514856D02*
X804164D01*
X709572Y1442720D02*
X781708Y1514856D01*
X709572Y1431290D02*
Y1442720D01*
X919988Y1259840D02*
Y1275080D01*
X922528Y1277620D01*
X956310D01*
X860806Y1348994D02*
X878840Y1330960D01*
X860806Y1348994D02*
Y1475740D01*
X703500Y1278890D02*
Y1281893D01*
X707355Y1285748D01*
Y1305952D01*
X695048Y1318260D02*
X707355Y1305952D01*
X695048Y1318260D02*
Y1431290D01*
X693500Y1278890D02*
Y1292432D01*
X696976Y1295908D01*
X881724Y1428660D02*
X887984Y1422400D01*
Y1418082D02*
Y1422400D01*
Y1418082D02*
X897382Y1408684D01*
Y1247658D02*
Y1408684D01*
Y1247658D02*
X933460Y1211580D01*
Y1206720D02*
Y1211580D01*
X709572Y1381760D02*
Y1431290D01*
Y1381760D02*
X721002Y1370330D01*
X736600D01*
X741934Y1364996D01*
Y1240954D02*
Y1364996D01*
X730340Y1229360D02*
X741934Y1240954D01*
X692230Y1233170D02*
X695706D01*
Y1188720D02*
X707644Y1176782D01*
X714900D02*
Y1176940D01*
X909828Y1432964D02*
Y1437894D01*
Y1432964D02*
X915312Y1427480D01*
X878840Y1428660D02*
Y1432560D01*
X874940D02*
X876890Y1430610D01*
X878840Y1428660D01*
D15*
X692230Y1233170D02*
D03*
X702230D02*
D03*
X703500Y1278890D02*
D03*
X693500D02*
D03*
D17*
X829110Y1176940D02*
D03*
X844110D02*
D03*
X859110D02*
D03*
X874110D02*
D03*
X889110D02*
D03*
X714900D02*
D03*
X729900D02*
D03*
X744900D02*
D03*
X759900D02*
D03*
X774900D02*
D03*
D18*
X709572Y1431290D02*
D03*
X695048D02*
D03*
X915312Y1427480D02*
D03*
X900788D02*
D03*
D20*
X810260Y1498600D02*
D03*
X800260D02*
D03*
D21*
X979160Y1206720D02*
D03*
X933460D02*
D03*
D22*
X956310Y1277620D02*
D03*
D26*
X816610Y1137920D02*
D03*
X901610D02*
D03*
X702400D02*
D03*
X787400D02*
D03*
D27*
X823260Y1473350D02*
D03*
X787260D02*
D03*
D28*
X730340Y1330960D02*
D03*
Y1356360D02*
D03*
Y1381760D02*
D03*
Y1407160D02*
D03*
Y1432560D02*
D03*
X878840Y1203960D02*
D03*
Y1229360D02*
D03*
Y1254760D02*
D03*
Y1280160D02*
D03*
Y1305560D02*
D03*
Y1330960D02*
D03*
Y1356360D02*
D03*
Y1381760D02*
D03*
Y1407160D02*
D03*
X730340Y1305560D02*
D03*
Y1280160D02*
D03*
Y1254760D02*
D03*
Y1203960D02*
D03*
D29*
X878840Y1432560D02*
D03*
X730340Y1229360D02*
D03*
D30*
X857250Y1152906D02*
D03*
X969264Y1231138D02*
D03*
X713740Y1271270D02*
D03*
X874110Y1146906D02*
D03*
X833320Y1422908D02*
D03*
X915162Y1293114D02*
D03*
X666242Y1278890D02*
D03*
X774900Y1240790D02*
D03*
X713740Y1229106D02*
D03*
X772160Y1148334D02*
D03*
X837438Y1215390D02*
D03*
X695960Y1189322D02*
D03*
X802640Y1181100D02*
D03*
X919988Y1259840D02*
D03*
X860806Y1475740D02*
D03*
X696976Y1295908D02*
D03*
M02*
