G04*
G04 #@! TF.GenerationSoftware,Altium Limited,Altium Designer,21.6.4 (81)*
G04*
G04 Layer_Color=65535*
%FSLAX44Y44*%
%MOMM*%
G71*
G04*
G04 #@! TF.SameCoordinates,662A1053-D2FE-41ED-9168-75848B50F108*
G04*
G04*
G04 #@! TF.FilePolarity,Positive*
G04*
G01*
G75*
%ADD10C,0.5080*%
%ADD11C,0.0800*%
%ADD12C,0.2000*%
%ADD13C,0.1524*%
%ADD14C,0.2540*%
D10*
X878631Y1450690D02*
G03*
X878631Y1450690I-3810J0D01*
G01*
X936209Y1150523D02*
G03*
X936209Y1150523I-3810J0D01*
G01*
X960311Y1271578D02*
G03*
X960311Y1271578I-3810J0D01*
G01*
X677009Y1177290D02*
G03*
X677009Y1177290I-3810J0D01*
G01*
X654463Y1289281D02*
G03*
X654463Y1289281I-3810J0D01*
G01*
X791069Y1177290D02*
G03*
X791069Y1177290I-3810J0D01*
G01*
X729410Y1396111D02*
G03*
X729410Y1396111I-3810J0D01*
G01*
X934421Y1176940D02*
G03*
X934421Y1176940I-3810J0D01*
G01*
X820211Y1176940D02*
G03*
X820211Y1176940I-3810J0D01*
G01*
X781511Y1498600D02*
G03*
X781511Y1498600I-3810J0D01*
G01*
D11*
X735340Y1186060D02*
G03*
X735340Y1186060I-5000J0D01*
G01*
X730340Y1203960D02*
X878840D01*
X730340D02*
Y1432560D01*
X878840Y1203960D02*
Y1428660D01*
X730340Y1432560D02*
X874940D01*
D12*
X691730Y1240170D02*
X702730D01*
X691730Y1226170D02*
X702730D01*
X693000Y1271890D02*
X704000D01*
X693000Y1285890D02*
X704000D01*
X690019Y1442290D02*
X714601D01*
X690019Y1420290D02*
X714601D01*
X895759Y1438480D02*
X920341D01*
X895759Y1416480D02*
X920341D01*
X922660Y1226870D02*
Y1289070D01*
Y1226870D02*
X989960D01*
Y1289070D01*
X989060D02*
X989960D01*
X922660D02*
X923560D01*
D13*
X912831Y1117680D02*
Y1180164D01*
X805389Y1117680D02*
X912831D01*
X805389D02*
Y1180164D01*
X895994D02*
X912831D01*
X805389D02*
X822226D01*
X798621Y1117680D02*
Y1180164D01*
X691179Y1117680D02*
X798621D01*
X691179D02*
Y1180164D01*
X781784D02*
X798621D01*
X691179D02*
X708017D01*
X784051Y1496050D02*
X793631D01*
X784051Y1486202D02*
Y1496050D01*
X816889D02*
X826469D01*
Y1486202D02*
Y1496050D01*
X797064Y1464554D02*
X813455D01*
D14*
X664134Y1244603D02*
Y1259837D01*
X671752D01*
X674291Y1257298D01*
Y1252220D01*
X671752Y1249681D01*
X664134D01*
X669212D02*
X674291Y1244603D01*
X689526D02*
X679369D01*
X689526Y1254759D01*
Y1257298D01*
X686987Y1259837D01*
X681908D01*
X679369Y1257298D01*
X691642Y1294384D02*
Y1309619D01*
X699259D01*
X701799Y1307080D01*
Y1302001D01*
X699259Y1299462D01*
X691642D01*
X696720D02*
X701799Y1294384D01*
X706877D02*
X711955D01*
X709416D01*
Y1309619D01*
X706877Y1307080D01*
X923290Y1333495D02*
Y1320799D01*
X925829Y1318260D01*
X930908D01*
X933447Y1320799D01*
Y1333495D01*
X948682Y1318260D02*
X938525D01*
X948682Y1328417D01*
Y1330956D01*
X946143Y1333495D01*
X941064D01*
X938525Y1330956D01*
X736683Y1492999D02*
X731604D01*
X734144D01*
Y1480303D01*
X731604Y1477764D01*
X729065D01*
X726526Y1480303D01*
X741761Y1477764D02*
X746839D01*
X744300D01*
Y1492999D01*
X741761Y1490460D01*
X754457D02*
X756996Y1492999D01*
X762074D01*
X764614Y1490460D01*
Y1480303D01*
X762074Y1477764D01*
X756996D01*
X754457Y1480303D01*
Y1490460D01*
X704851Y1460498D02*
X702312Y1463038D01*
X697233D01*
X694694Y1460498D01*
Y1450342D01*
X697233Y1447802D01*
X702312D01*
X704851Y1450342D01*
X720086Y1447802D02*
X709929D01*
X720086Y1457959D01*
Y1460498D01*
X717547Y1463038D01*
X712468D01*
X709929Y1460498D01*
X896620Y1463038D02*
X894081Y1465578D01*
X889003D01*
X886463Y1463038D01*
Y1452882D01*
X889003Y1450343D01*
X894081D01*
X896620Y1452882D01*
X901698Y1450343D02*
X906777D01*
X904238D01*
Y1465578D01*
X901698Y1463038D01*
X901701Y1215387D02*
X896622D01*
X899162D01*
Y1202692D01*
X896622Y1200153D01*
X894083D01*
X891544Y1202692D01*
X916936Y1200153D02*
X906779D01*
X916936Y1210309D01*
Y1212848D01*
X914397Y1215387D01*
X909318D01*
X906779Y1212848D01*
X704260Y1217578D02*
X699182D01*
X701721D01*
Y1204882D01*
X699182Y1202343D01*
X696643D01*
X694103Y1204882D01*
X709339Y1202343D02*
X714417D01*
X711878D01*
Y1217578D01*
X709339Y1215038D01*
X724154Y1458972D02*
X734311Y1448815D01*
X724154D02*
X734311Y1458972D01*
X724154Y1453893D02*
X734311D01*
X729232Y1448815D02*
Y1458972D01*
M02*
