G04*
G04 #@! TF.GenerationSoftware,Altium Limited,Altium Designer,21.6.4 (81)*
G04*
G04 Layer_Color=65535*
%FSLAX44Y44*%
%MOMM*%
G71*
G04*
G04 #@! TF.SameCoordinates,42E99185-249E-4A08-A5EB-3BBFC5BDC6E3*
G04*
G04*
G04 #@! TF.FilePolarity,Positive*
G04*
G01*
G75*
%ADD10C,0.2500*%
%ADD11C,0.6000*%
%ADD12C,0.1524*%
%ADD13C,0.2000*%
%ADD14C,0.2540*%
D10*
X40876Y122636D02*
G03*
X40876Y122636I-1250J0D01*
G01*
X112150Y112450D02*
G03*
X112150Y112450I-1250J0D01*
G01*
X15774Y29466D02*
G03*
X15774Y29466I-1250J0D01*
G01*
D11*
X134900Y96700D02*
G03*
X134900Y96700I-3000J0D01*
G01*
D12*
X101498Y102143D02*
G03*
X101498Y103597I229J727D01*
G01*
X226646Y117221D02*
X289130D01*
Y9779D02*
Y117221D01*
X226646Y9779D02*
X289130D01*
X226646Y100383D02*
Y117221D01*
Y9779D02*
Y26617D01*
D13*
X190330Y111860D02*
X200830D01*
X190330Y124360D02*
X200830D01*
X30787Y84452D02*
X36974Y90640D01*
X25130Y90110D02*
X30787Y84452D01*
X46520Y100186D02*
X52708Y106373D01*
X47050Y112030D02*
X52708Y106373D01*
X3450Y69750D02*
X13950D01*
X3450Y57250D02*
X13950D01*
X121900Y45700D02*
Y106700D01*
X182900Y45700D02*
Y106700D01*
X121900D02*
X182900D01*
X121900Y45700D02*
X182900D01*
X5280Y50970D02*
X11580D01*
X5280Y40470D02*
X11580D01*
X161310Y8990D02*
X171810D01*
X161310Y21490D02*
X171810D01*
X53170Y111860D02*
X63670D01*
X53170Y124360D02*
X63670D01*
X25130Y36890D02*
X30787Y42547D01*
X36974Y36360D01*
X47050Y14970D02*
X52708Y20627D01*
X46520Y26814D02*
X52708Y20627D01*
X194410Y27770D02*
Y38270D01*
X206910Y27770D02*
Y38270D01*
X3640Y75030D02*
X14140D01*
X3640Y87530D02*
X14140D01*
X139530Y8990D02*
X150030D01*
X139530Y21490D02*
X150030D01*
D14*
X21590Y95754D02*
X31747Y85597D01*
X21590D02*
X31747Y95754D01*
X21590Y90675D02*
X31747D01*
X26668Y85597D02*
Y95754D01*
M02*
