M48
;Layer_Color=9474304
;FILE_FORMAT=4:4
METRIC,LZ
;TYPE=PLATED
T1F00S00C0.7112
T2F00S00C0.8440
T3F00S00C0.8444
T4F00S00C1.1000
;TYPE=NON_PLATED
T5F00S00C3.0000
%
T01
X0066675Y01173226
X00725424Y01149604
X00790448Y0118491
X00802386Y01170178
X0085725Y0114427
X0085471Y0112395
X0095885Y0117856
X00839216Y0123063
X00802386Y01234694
X0081407Y01209294
X00852297Y01264285
X008255Y0130302
Y0135509
X00858266Y01454658
X0078999Y0140584
X0077343Y0140462
X0075565Y0140589
X0076835Y0131826
X0075565Y0121412
X00710899Y01211246
X00698754Y01228003
X0068326Y0121285
T02
X008763Y0123952
Y0126492
Y0129032
Y0131572
Y0134112
Y0136652
Y0139192
Y0141732
Y0144272
X007278
Y0141732
Y0139192
Y0136652
Y0134112
Y0131572
Y0129032
Y0126492
Y0123952
T03
X008763Y0121412
X007278
T04
X0090551Y0119761
Y0122301
Y0124841
Y0127381
Y0129921
T05
X0066Y0115
X0094
X0080264Y0152019
M30
