G04*
G04 #@! TF.GenerationSoftware,Altium Limited,Altium Designer,21.6.4 (81)*
G04*
G04 Layer_Physical_Order=1*
G04 Layer_Color=255*
%FSLAX44Y44*%
%MOMM*%
G71*
G04*
G04 #@! TF.SameCoordinates,DF212875-D8BF-4E07-B13E-23ADC2DC1FEB*
G04*
G04*
G04 #@! TF.FilePolarity,Positive*
G04*
G01*
G75*
%ADD14C,0.2540*%
%ADD15R,0.5000X0.6000*%
%ADD17R,0.7112X2.9972*%
%ADD23R,1.1938X2.0066*%
%ADD24C,0.3556*%
%ADD25C,1.5240*%
%ADD26R,1.5240X1.5240*%
%ADD27C,1.7000*%
%ADD28R,1.7000X1.7000*%
%ADD29C,3.0000*%
%ADD30C,1.2700*%
G36*
X866140Y1448164D02*
Y1443990D01*
X876300D01*
Y1442720D01*
X877570D01*
Y1432560D01*
X886460D01*
X887137Y1431571D01*
Y1421036D01*
X885867Y1420869D01*
X885768Y1421242D01*
X884430Y1423558D01*
X882538Y1425450D01*
X880222Y1426788D01*
X877638Y1427480D01*
X874962D01*
X872378Y1426788D01*
X872169Y1426667D01*
X871389Y1427683D01*
X875030Y1431324D01*
Y1441450D01*
X866140D01*
Y1434886D01*
X861249Y1429995D01*
X860294Y1428567D01*
X859959Y1426882D01*
Y1360978D01*
X855153Y1356171D01*
X854199Y1354743D01*
X853863Y1353058D01*
Y1296924D01*
X854199Y1295239D01*
X855153Y1293811D01*
X859959Y1289004D01*
Y1270991D01*
X858689Y1270465D01*
X857756Y1271399D01*
X855728Y1272569D01*
X853467Y1273175D01*
X851628D01*
Y1441794D01*
X855918Y1446084D01*
X857096Y1445768D01*
X859436D01*
X861697Y1446374D01*
X863725Y1447544D01*
X864870Y1448690D01*
X866140Y1448164D01*
D02*
G37*
G36*
X764994Y1401755D02*
X765146Y1401189D01*
X766316Y1399161D01*
X767971Y1397506D01*
X769999Y1396336D01*
X772260Y1395730D01*
X774600D01*
X776861Y1396336D01*
X778889Y1397506D01*
X780544Y1399161D01*
X781329Y1400522D01*
X782795D01*
X782877Y1400381D01*
X784532Y1398726D01*
X785588Y1398116D01*
Y1395608D01*
X770317Y1380337D01*
X769362Y1378909D01*
X769027Y1377224D01*
Y1344214D01*
X751267Y1326453D01*
X750312Y1325025D01*
X749977Y1323340D01*
Y1318560D01*
X738078Y1306661D01*
X734861D01*
X734379Y1307931D01*
X735930Y1309482D01*
X737268Y1311798D01*
X737960Y1314382D01*
Y1317058D01*
X737268Y1319642D01*
X735930Y1321958D01*
X734038Y1323850D01*
X731721Y1325188D01*
X729137Y1325880D01*
X726462D01*
X723878Y1325188D01*
X721562Y1323850D01*
X719670Y1321958D01*
X718332Y1319642D01*
X717640Y1317058D01*
Y1314382D01*
X718332Y1311798D01*
X719670Y1309482D01*
X721221Y1307931D01*
X720739Y1306661D01*
X701802D01*
X700117Y1306326D01*
X698689Y1305371D01*
X673035Y1279717D01*
X672081Y1278289D01*
X671745Y1276604D01*
Y1222262D01*
X672081Y1220577D01*
X673035Y1219148D01*
X675315Y1216869D01*
X674976Y1216281D01*
X674370Y1214020D01*
Y1211680D01*
X674976Y1209419D01*
X676146Y1207391D01*
X677801Y1205736D01*
X679829Y1204566D01*
X682090Y1203960D01*
X684430D01*
X686691Y1204566D01*
X688719Y1205736D01*
X690374Y1207391D01*
X691544Y1209419D01*
X692150Y1211680D01*
Y1214020D01*
X691544Y1216281D01*
X690374Y1218309D01*
X688719Y1219964D01*
X686691Y1221134D01*
X684430Y1221740D01*
X682896D01*
X680551Y1224085D01*
Y1274780D01*
X703626Y1297855D01*
X719308D01*
X719794Y1296682D01*
X719670Y1296558D01*
X718332Y1294242D01*
X717640Y1291658D01*
Y1288982D01*
X718332Y1286398D01*
X719670Y1284082D01*
X720459Y1283293D01*
X719933Y1282023D01*
X719074D01*
X717389Y1281687D01*
X715961Y1280733D01*
X695641Y1260413D01*
X694687Y1258985D01*
X694351Y1257300D01*
Y1235726D01*
X693295Y1235116D01*
X691640Y1233461D01*
X690470Y1231434D01*
X689891Y1229273D01*
X698754D01*
Y1228003D01*
X700024D01*
Y1219139D01*
X702185Y1219718D01*
X704213Y1220889D01*
X705227Y1221903D01*
X706497Y1221377D01*
Y1218969D01*
X705441Y1218360D01*
X703785Y1216704D01*
X702615Y1214677D01*
X702009Y1212416D01*
Y1210075D01*
X702615Y1207814D01*
X703785Y1205787D01*
X705441Y1204132D01*
X707468Y1202962D01*
X709729Y1202356D01*
X712070D01*
X713248Y1202671D01*
X723643Y1192276D01*
X723124Y1191006D01*
X723124D01*
Y1158191D01*
X721993Y1157888D01*
X721416Y1157555D01*
X720316Y1158190D01*
Y1191006D01*
X708124D01*
Y1177629D01*
X687640D01*
X669883Y1195608D01*
Y1304498D01*
X714802Y1349417D01*
X719933D01*
X720459Y1348147D01*
X719670Y1347358D01*
X718332Y1345042D01*
X717640Y1342458D01*
Y1339782D01*
X718332Y1337198D01*
X719670Y1334882D01*
X721562Y1332990D01*
X723878Y1331652D01*
X726462Y1330960D01*
X729137D01*
X731721Y1331652D01*
X734038Y1332990D01*
X735930Y1334882D01*
X737268Y1337198D01*
X737960Y1339782D01*
Y1342458D01*
X737268Y1345042D01*
X735930Y1347358D01*
X735141Y1348147D01*
X735667Y1349417D01*
X736600D01*
X738285Y1349753D01*
X739713Y1350707D01*
X744031Y1355025D01*
X744986Y1356453D01*
X745321Y1358138D01*
Y1389334D01*
X753302Y1397316D01*
X754480Y1397000D01*
X756820D01*
X759081Y1397606D01*
X761109Y1398776D01*
X762764Y1400431D01*
X763631Y1401934D01*
X764994Y1401755D01*
D02*
G37*
G36*
X845956Y1467878D02*
X835341Y1457263D01*
X834387Y1455835D01*
X834051Y1454150D01*
Y1369868D01*
X827848Y1363664D01*
X826770Y1363953D01*
Y1356360D01*
X834363D01*
X834074Y1357438D01*
X841553Y1364917D01*
X841613Y1364916D01*
X842823Y1364525D01*
Y1269356D01*
Y1249290D01*
X843158Y1247606D01*
X844112Y1246177D01*
X865821Y1224469D01*
X867249Y1223514D01*
X868934Y1223179D01*
X869239D01*
X869721Y1221909D01*
X868170Y1220358D01*
X866832Y1218042D01*
X866140Y1215458D01*
Y1212782D01*
X866526Y1211342D01*
X865387Y1210685D01*
X847790Y1228282D01*
X848106Y1229460D01*
Y1231800D01*
X847500Y1234061D01*
X846330Y1236089D01*
X844675Y1237744D01*
X842647Y1238914D01*
X840386Y1239520D01*
X838046D01*
X835785Y1238914D01*
X833757Y1237744D01*
X832102Y1236089D01*
X831173Y1234478D01*
X829903Y1234819D01*
Y1295296D01*
X830959Y1295906D01*
X832614Y1297561D01*
X833784Y1299589D01*
X834363Y1301750D01*
X816637D01*
X817216Y1299589D01*
X818386Y1297561D01*
X820041Y1295906D01*
X821097Y1295296D01*
Y1231273D01*
X819924Y1230787D01*
X819021Y1231691D01*
Y1246991D01*
X818686Y1248676D01*
X817731Y1250104D01*
X812502Y1255333D01*
X811074Y1256288D01*
X809389Y1256623D01*
X735667D01*
X735141Y1257893D01*
X735930Y1258682D01*
X737268Y1260998D01*
X737960Y1263582D01*
Y1266258D01*
X737268Y1268842D01*
X735930Y1271158D01*
X735141Y1271947D01*
X735667Y1273217D01*
X748030D01*
X749715Y1273552D01*
X751143Y1274507D01*
X791712Y1315076D01*
X791997Y1315502D01*
X805328Y1328833D01*
X805753Y1329117D01*
X819924Y1343288D01*
X821097Y1342802D01*
Y1310744D01*
X820041Y1310134D01*
X818386Y1308479D01*
X817216Y1306451D01*
X816637Y1304290D01*
X834363D01*
X833784Y1306451D01*
X832614Y1308479D01*
X830959Y1310134D01*
X829903Y1310744D01*
Y1347366D01*
X830959Y1347976D01*
X832614Y1349631D01*
X833784Y1351659D01*
X834363Y1353820D01*
X816637D01*
X816926Y1352742D01*
X799811Y1335627D01*
X799386Y1335343D01*
X786705Y1322663D01*
X776074D01*
X775464Y1323719D01*
X773809Y1325374D01*
X771781Y1326544D01*
X769620Y1327123D01*
Y1318260D01*
Y1309397D01*
X771781Y1309976D01*
X773159Y1310771D01*
X773939Y1309755D01*
X746206Y1282023D01*
X735667D01*
X735141Y1283293D01*
X735930Y1284082D01*
X737268Y1286398D01*
X737960Y1288982D01*
Y1291658D01*
X737268Y1294242D01*
X735930Y1296558D01*
X735806Y1296682D01*
X736292Y1297855D01*
X739902D01*
X741587Y1298190D01*
X743015Y1299145D01*
X757493Y1313623D01*
X758447Y1315051D01*
X758551Y1315574D01*
X759855Y1315616D01*
X760066Y1314829D01*
X761236Y1312801D01*
X762891Y1311146D01*
X764919Y1309976D01*
X767080Y1309397D01*
Y1318260D01*
Y1327123D01*
X765858Y1326796D01*
X765201Y1327935D01*
X776543Y1339277D01*
X777497Y1340705D01*
X777833Y1342390D01*
Y1375401D01*
X793103Y1390672D01*
X794058Y1392100D01*
X794393Y1393785D01*
X794393Y1393785D01*
Y1398116D01*
X795449Y1398726D01*
X797104Y1400381D01*
X798275Y1402408D01*
X798880Y1404669D01*
Y1407010D01*
X798275Y1409271D01*
X797104Y1411298D01*
X795449Y1412953D01*
X793422Y1414124D01*
X791477Y1414645D01*
X790917Y1415881D01*
X844088Y1469051D01*
X845470D01*
X845956Y1467878D01*
D02*
G37*
G36*
X810216Y1245167D02*
Y1241233D01*
X808945Y1240707D01*
X807845Y1241808D01*
X805817Y1242978D01*
X803556Y1243584D01*
X801216D01*
X798955Y1242978D01*
X796927Y1241808D01*
X795272Y1240153D01*
X794102Y1238125D01*
X793496Y1235864D01*
Y1233524D01*
X794102Y1231263D01*
X795272Y1229235D01*
X796927Y1227580D01*
X797983Y1226971D01*
Y1191743D01*
X796713Y1191217D01*
X795907Y1192024D01*
X793879Y1193194D01*
X791618Y1193800D01*
X789278D01*
X788100Y1193484D01*
X784671Y1196913D01*
X783243Y1197868D01*
X781558Y1198203D01*
X766715D01*
X766463Y1199473D01*
X765508Y1200901D01*
X761802Y1204608D01*
Y1207700D01*
X762764Y1208661D01*
X763934Y1210689D01*
X764540Y1212950D01*
Y1215290D01*
X763934Y1217551D01*
X762764Y1219579D01*
X761109Y1221234D01*
X759081Y1222404D01*
X756820Y1223010D01*
X754480D01*
X752219Y1222404D01*
X750191Y1221234D01*
X749796Y1220838D01*
X748623Y1221324D01*
Y1223100D01*
X748288Y1224785D01*
X747333Y1226213D01*
X747333Y1226213D01*
X737960Y1235586D01*
Y1238250D01*
X729070D01*
Y1229360D01*
X731734D01*
X739817Y1221276D01*
Y1191006D01*
X738124D01*
Y1174750D01*
X744220D01*
X750316D01*
Y1191006D01*
X748623D01*
Y1206916D01*
X749796Y1207402D01*
X750191Y1207006D01*
X752219Y1205836D01*
X752997Y1205627D01*
Y1202784D01*
X753332Y1201099D01*
X754286Y1199671D01*
X757993Y1195965D01*
Y1195624D01*
X756107Y1193738D01*
X755153Y1192310D01*
X754893Y1191006D01*
X753124D01*
Y1155954D01*
X760687D01*
X761173Y1154781D01*
X749731Y1143339D01*
X733414D01*
X732805Y1144609D01*
X733708Y1146173D01*
X734314Y1148434D01*
Y1150774D01*
X733708Y1153035D01*
X733590Y1153239D01*
X733622Y1153400D01*
Y1155954D01*
X735316D01*
Y1191006D01*
X733622D01*
Y1192925D01*
X733287Y1194610D01*
X732333Y1196038D01*
X725456Y1202915D01*
X726114Y1204053D01*
X726462Y1203960D01*
X729137D01*
X731721Y1204652D01*
X734038Y1205990D01*
X735930Y1207882D01*
X737268Y1210198D01*
X737960Y1212782D01*
Y1215458D01*
X737268Y1218042D01*
X735930Y1220358D01*
X734038Y1222250D01*
X731721Y1223588D01*
X729137Y1224280D01*
X726462D01*
X723878Y1223588D01*
X721562Y1222250D01*
X719670Y1220358D01*
X718383Y1218130D01*
X718149Y1217918D01*
X717084Y1217633D01*
X716358Y1218360D01*
X715302Y1218969D01*
Y1247817D01*
X717640D01*
Y1240790D01*
X727800D01*
X737960D01*
Y1247817D01*
X807565D01*
X810216Y1245167D01*
D02*
G37*
G36*
X896676Y1241631D02*
X898731Y1239576D01*
X901249Y1238122D01*
X904057Y1237370D01*
X906963D01*
X909771Y1238122D01*
X912289Y1239576D01*
X912888Y1240175D01*
X914061Y1239689D01*
Y1234050D01*
X906780D01*
Y1223010D01*
Y1211970D01*
X911984D01*
X912470Y1210797D01*
X909614Y1207940D01*
X906963Y1208650D01*
X904057D01*
X901249Y1207898D01*
X898731Y1206444D01*
X896676Y1204389D01*
X895463Y1202288D01*
X894193Y1202628D01*
Y1210815D01*
X894470Y1211970D01*
X904240D01*
Y1221740D01*
X894470D01*
Y1220702D01*
X893200Y1220317D01*
X892904Y1220761D01*
X883260Y1230404D01*
X882984Y1230781D01*
X883210Y1232062D01*
X884430Y1233282D01*
X885600Y1235308D01*
X886561Y1235499D01*
X887040Y1235439D01*
X887411Y1234883D01*
X894470Y1227824D01*
Y1224280D01*
X904240D01*
Y1234050D01*
X900696D01*
X894927Y1239820D01*
Y1242121D01*
X896197Y1242461D01*
X896676Y1241631D01*
D02*
G37*
G36*
X870388Y1193232D02*
Y1191006D01*
X868694D01*
Y1155954D01*
X870388D01*
Y1154176D01*
X870723Y1152491D01*
X871677Y1151063D01*
X873105Y1150108D01*
X874790Y1149773D01*
X895350D01*
X897035Y1150108D01*
X898463Y1151063D01*
X908623Y1161223D01*
X909577Y1162651D01*
X909913Y1164336D01*
Y1187404D01*
X912289Y1188776D01*
X914344Y1190831D01*
X915798Y1193349D01*
X916550Y1196157D01*
Y1199063D01*
X915840Y1201714D01*
X920254Y1206128D01*
X921427Y1205642D01*
Y1183432D01*
X913573Y1175577D01*
X913188Y1175002D01*
X912760Y1174457D01*
X912714Y1174292D01*
X912618Y1174149D01*
X912484Y1173470D01*
X912297Y1172803D01*
X910305Y1147033D01*
X893781D01*
Y1124512D01*
X863600D01*
Y1125120D01*
X862994Y1127381D01*
X861824Y1129409D01*
X860169Y1131064D01*
X858141Y1132234D01*
X855880Y1132840D01*
X853540D01*
X852362Y1132524D01*
X849193Y1135693D01*
Y1138023D01*
X850463Y1138485D01*
X851791Y1137156D01*
X853819Y1135986D01*
X855980Y1135407D01*
Y1144270D01*
X857250D01*
Y1145540D01*
X866113D01*
X865534Y1147701D01*
X864364Y1149729D01*
X862923Y1151170D01*
Y1155954D01*
X865886D01*
Y1172210D01*
X859790D01*
X853694D01*
Y1155954D01*
X854117D01*
Y1152634D01*
X853819Y1152554D01*
X851791Y1151384D01*
X850463Y1150055D01*
X849193Y1150517D01*
Y1155954D01*
X850886D01*
Y1191006D01*
X849193D01*
Y1196512D01*
X850366Y1196998D01*
X855088Y1192276D01*
X854664Y1191006D01*
X853694D01*
Y1174750D01*
X859790D01*
X865886D01*
Y1191006D01*
X864193D01*
Y1193800D01*
X863857Y1195485D01*
X862903Y1196913D01*
X839249Y1220567D01*
X839736Y1221740D01*
X840386D01*
X841564Y1222056D01*
X870388Y1193232D01*
D02*
G37*
%LPC*%
G36*
X697484Y1226733D02*
X689891D01*
X690470Y1224571D01*
X691640Y1222544D01*
X693295Y1220889D01*
X695323Y1219718D01*
X697484Y1219139D01*
Y1226733D01*
D02*
G37*
G36*
X824230Y1363953D02*
X822069Y1363374D01*
X820041Y1362204D01*
X818386Y1360549D01*
X817216Y1358521D01*
X816637Y1356360D01*
X824230D01*
Y1363953D01*
D02*
G37*
G36*
X726530Y1238250D02*
X717640D01*
Y1229360D01*
X726530D01*
Y1238250D01*
D02*
G37*
G36*
X750316Y1172210D02*
X745490D01*
Y1155954D01*
X750316D01*
Y1172210D01*
D02*
G37*
G36*
X742950D02*
X738124D01*
Y1155954D01*
X742950D01*
Y1172210D01*
D02*
G37*
G36*
X866113Y1143000D02*
X858520D01*
Y1135407D01*
X860681Y1135986D01*
X862709Y1137156D01*
X864364Y1138811D01*
X865534Y1140839D01*
X866113Y1143000D01*
D02*
G37*
%LPD*%
D14*
X874350Y1440770D02*
X874985Y1440135D01*
X872400Y1442720D02*
X874350Y1440770D01*
X874985Y1440135D02*
X876300Y1438820D01*
D15*
X907890Y1337310D02*
D03*
X897890D02*
D03*
X897970Y1324610D02*
D03*
X907970D02*
D03*
D17*
X829790Y1173480D02*
D03*
X844790D02*
D03*
X859790D02*
D03*
X874790D02*
D03*
X889790D02*
D03*
X774220D02*
D03*
X759220D02*
D03*
X744220D02*
D03*
X729220D02*
D03*
X714220D02*
D03*
D23*
X817290Y1134460D02*
D03*
X902290D02*
D03*
X786720D02*
D03*
X701720D02*
D03*
D24*
X685800Y1173226D02*
X714220D01*
X889080Y1315720D02*
X897970Y1324610D01*
X910844Y1315720D02*
X918464Y1308100D01*
X907928Y1324568D02*
X907970Y1324610D01*
X907928Y1318636D02*
X910844Y1315720D01*
X910844D01*
X907928Y1318636D02*
Y1324568D01*
X907890Y1324610D02*
Y1337310D01*
X871546Y1353384D02*
X917376D01*
X901065Y1346200D02*
X911860D01*
X891540Y1379220D02*
X917540Y1353220D01*
X911860Y1346200D02*
X925830Y1332230D01*
X897890Y1337310D02*
X901065Y1346200D01*
X864362D02*
X871546Y1353384D01*
X891540Y1379220D02*
Y1455420D01*
X879462Y1341120D02*
X883272Y1337310D01*
X897890D01*
X860383Y1120751D02*
X860923D01*
X861565Y1120109D01*
X912856Y1122917D02*
X916686Y1172464D01*
X925830Y1181608D01*
X861565Y1120109D02*
X910048D01*
X925830Y1181608D02*
Y1332230D01*
X854710Y1123950D02*
X857184D01*
X860383Y1120751D01*
X910048Y1120109D02*
X912856Y1122917D01*
X718710Y1138936D02*
X751554D01*
X766794Y1154176D01*
X825500D01*
X917376Y1353384D02*
X933450Y1337310D01*
Y1203960D02*
Y1337310D01*
X873506Y1473454D02*
X891540Y1455420D01*
X842264Y1473454D02*
X873506D01*
X867156Y1466342D02*
X876300Y1457198D01*
Y1442720D02*
Y1457198D01*
X850646Y1466342D02*
X867156D01*
X876300Y1438820D02*
Y1442720D01*
X773430Y1404620D02*
X842264Y1473454D01*
X773430Y1377224D02*
X789990Y1393785D01*
Y1405840D01*
X710899Y1211246D02*
X729220Y1192925D01*
X712982Y1252220D02*
X809389D01*
X710899Y1211246D02*
Y1250137D01*
X712982Y1252220D01*
X698754Y1228003D02*
Y1257300D01*
X676148Y1222262D02*
Y1276604D01*
Y1222262D02*
X683260Y1215150D01*
Y1212850D02*
Y1215150D01*
X676148Y1276604D02*
X701802Y1302258D01*
X698754Y1257300D02*
X719074Y1277620D01*
X757400Y1202784D02*
X762395Y1197788D01*
Y1193800D02*
Y1197788D01*
X755650Y1214120D02*
X757400Y1212370D01*
Y1202784D02*
Y1212370D01*
X744220Y1173480D02*
Y1223100D01*
X727800Y1239520D02*
X744220Y1223100D01*
X748030Y1277620D02*
X788599Y1318189D01*
X719074Y1277620D02*
X748030D01*
X754380Y1316736D02*
Y1323340D01*
X739902Y1302258D02*
X754380Y1316736D01*
Y1323340D02*
X773430Y1342390D01*
X788529Y1318260D02*
X802499Y1332230D01*
X768350Y1318260D02*
X788529D01*
X802640Y1332230D02*
X825500Y1355090D01*
X773430Y1342390D02*
Y1377224D01*
X740918Y1391158D02*
X755650Y1405890D01*
X740918Y1358138D02*
Y1391158D01*
X847226Y1443618D02*
X858266Y1454658D01*
X847226Y1269356D02*
Y1443618D01*
X876300Y1341120D02*
X879462D01*
X933450Y1203960D02*
X958850Y1178560D01*
X905510Y1197610D02*
X918464Y1210564D01*
Y1308100D01*
X864362D02*
Y1346200D01*
X844790Y1133870D02*
X854710Y1123950D01*
X858520Y1145540D02*
Y1172210D01*
X859790Y1173480D01*
X857250Y1144270D02*
X858520Y1145540D01*
X859790Y1173480D02*
Y1193800D01*
X844790Y1133870D02*
Y1173480D01*
X825500Y1303020D02*
Y1355090D01*
Y1228090D02*
Y1303020D01*
X714220Y1143426D02*
Y1173226D01*
X666750D02*
X685800D01*
X847226Y1249290D02*
Y1269356D01*
X774220Y1170178D02*
X802386D01*
X805434D01*
X665480Y1193800D02*
X685800Y1173226D01*
X665480Y1193800D02*
Y1306322D01*
X712978Y1353820D01*
X736600D01*
X740918Y1358138D01*
X829790Y1173480D02*
Y1193574D01*
X814070Y1209294D02*
X829790Y1193574D01*
Y1158466D02*
Y1173480D01*
X825500Y1154176D02*
X829790Y1158466D01*
X714220Y1143426D02*
X718710Y1138936D01*
X701802Y1302258D02*
X739902D01*
X725424Y1149604D02*
X729220Y1153400D01*
Y1173480D01*
X874790Y1154176D02*
Y1173480D01*
Y1154176D02*
X895350D01*
X905510Y1164336D01*
Y1197610D01*
X781558Y1193800D02*
X790448Y1184910D01*
X762395Y1193800D02*
X781558D01*
X759220Y1190625D02*
X762395Y1193800D01*
X759220Y1173480D02*
Y1190625D01*
X802386Y1170178D02*
Y1234694D01*
X847226Y1249290D02*
X868934Y1227582D01*
X879856D01*
X889790Y1217648D01*
Y1173480D02*
Y1217648D01*
X774220Y1170178D02*
Y1173480D01*
X714220Y1173226D02*
Y1173480D01*
X847226Y1269356D02*
X852297Y1264285D01*
X729220Y1173480D02*
Y1192925D01*
X809389Y1252220D02*
X814618Y1246991D01*
Y1229867D02*
Y1246991D01*
Y1229867D02*
X844790Y1199695D01*
Y1173480D02*
Y1199695D01*
X890524Y1237996D02*
X905510Y1223010D01*
X890524Y1237996D02*
Y1244600D01*
X882904Y1252220D02*
X890524Y1244600D01*
X869442Y1252220D02*
X882904D01*
X864362Y1257300D02*
X869442Y1252220D01*
X864362Y1257300D02*
Y1290828D01*
X858266Y1296924D02*
X864362Y1290828D01*
X858266Y1296924D02*
Y1353058D01*
X864362Y1359154D01*
Y1426882D01*
X876300Y1438820D01*
X864362Y1308100D02*
X868680Y1303782D01*
X879856D01*
X888238Y1295400D01*
Y1265682D02*
Y1295400D01*
Y1265682D02*
X905510Y1248410D01*
X874790Y1173480D02*
Y1195056D01*
X839216Y1230630D02*
X874790Y1195056D01*
X825500Y1228090D02*
X859790Y1193800D01*
X825500Y1355090D02*
X838454Y1368044D01*
Y1454150D01*
X850646Y1466342D01*
X872400Y1442720D02*
X876300D01*
Y1315720D02*
X889080D01*
D25*
X727800Y1214120D02*
D03*
Y1264920D02*
D03*
Y1290320D02*
D03*
Y1315720D02*
D03*
X876300Y1417320D02*
D03*
Y1391920D02*
D03*
Y1366520D02*
D03*
Y1341120D02*
D03*
Y1315720D02*
D03*
Y1290320D02*
D03*
Y1264920D02*
D03*
Y1239520D02*
D03*
Y1214120D02*
D03*
X727800Y1442720D02*
D03*
Y1417320D02*
D03*
Y1391920D02*
D03*
Y1366520D02*
D03*
Y1341120D02*
D03*
D26*
Y1239520D02*
D03*
X876300Y1442720D02*
D03*
D27*
X905510Y1299210D02*
D03*
Y1273810D02*
D03*
Y1248410D02*
D03*
Y1197610D02*
D03*
D28*
Y1223010D02*
D03*
D29*
X940000Y1150000D02*
D03*
X802640Y1520190D02*
D03*
X660000Y1150000D02*
D03*
D30*
X773430Y1404620D02*
D03*
X789990Y1405840D02*
D03*
X698754Y1228003D02*
D03*
X710899Y1211246D02*
D03*
X683260Y1212850D02*
D03*
X755650Y1214120D02*
D03*
X768350Y1318260D02*
D03*
X755650Y1405890D02*
D03*
X857250Y1144270D02*
D03*
X854710Y1123950D02*
D03*
X814070Y1209294D02*
D03*
X725424Y1149604D02*
D03*
X790448Y1184910D02*
D03*
X802386Y1234694D02*
D03*
Y1170178D02*
D03*
X858266Y1454658D02*
D03*
X666750Y1173226D02*
D03*
X958850Y1178560D02*
D03*
X852297Y1264285D02*
D03*
X825500Y1355090D02*
D03*
Y1303020D02*
D03*
X839216Y1230630D02*
D03*
M02*
