G04*
G04 #@! TF.GenerationSoftware,Altium Limited,Altium Designer,21.6.4 (81)*
G04*
G04 Layer_Color=32896*
%FSLAX44Y44*%
%MOMM*%
G71*
G04*
G04 #@! TF.SameCoordinates,662A1053-D2FE-41ED-9168-75848B50F108*
G04*
G04*
G04 #@! TF.FilePolarity,Positive*
G04*
G01*
G75*
%ADD10C,0.5080*%
%ADD13C,0.1524*%
%ADD14C,0.2540*%
D10*
X878631Y1450690D02*
G03*
X878631Y1450690I-3810J0D01*
G01*
X936209Y1150523D02*
G03*
X936209Y1150523I-3810J0D01*
G01*
X960311Y1271578D02*
G03*
X960311Y1271578I-3810J0D01*
G01*
X677009Y1177290D02*
G03*
X677009Y1177290I-3810J0D01*
G01*
X654463Y1289281D02*
G03*
X654463Y1289281I-3810J0D01*
G01*
X791069Y1177290D02*
G03*
X791069Y1177290I-3810J0D01*
G01*
X729410Y1396111D02*
G03*
X729410Y1396111I-3810J0D01*
G01*
X934421Y1176940D02*
G03*
X934421Y1176940I-3810J0D01*
G01*
X820211Y1176940D02*
G03*
X820211Y1176940I-3810J0D01*
G01*
X781511Y1498600D02*
G03*
X781511Y1498600I-3810J0D01*
G01*
D13*
X857041Y1447466D02*
Y1509950D01*
X749599D02*
X857041D01*
X749599Y1447466D02*
Y1509950D01*
X840204Y1447466D02*
X857041D01*
X749599D02*
X766437D01*
X932312Y1168593D02*
X993847Y1157743D01*
X1012503Y1263552D01*
X950969Y1274403D02*
X1012503Y1263552D01*
X932312Y1168593D02*
X935236Y1185175D01*
X948045Y1257821D02*
X950969Y1274403D01*
X944818Y1285365D02*
X998931Y1316606D01*
X945210Y1409654D02*
X998931Y1316606D01*
X891097Y1378412D02*
X945210Y1409654D01*
X936399Y1299946D02*
X944818Y1285365D01*
X891097Y1378412D02*
X899516Y1363830D01*
X690979Y1118030D02*
Y1180514D01*
Y1118030D02*
X798421D01*
Y1180514D01*
X690979D02*
X707817D01*
X781583D02*
X798421D01*
X595381Y1261480D02*
X656916Y1272331D01*
X595381Y1261480D02*
X614038Y1155670D01*
X675573Y1166521D01*
X656916Y1272331D02*
X659840Y1255749D01*
X672649Y1183102D02*
X675573Y1166521D01*
X805039Y1118030D02*
Y1180514D01*
Y1118030D02*
X912481D01*
Y1180514D01*
X805039D02*
X821877D01*
X895644D02*
X912481D01*
X665390Y1410343D02*
X719503Y1379101D01*
X611669Y1317295D02*
X665390Y1410343D01*
X611669Y1317295D02*
X665782Y1286053D01*
X711084Y1364519D02*
X719503Y1379101D01*
X665782Y1286053D02*
X674200Y1300635D01*
D14*
X882059Y1491328D02*
X887138D01*
X884598D01*
Y1478632D01*
X887138Y1476093D01*
X889677D01*
X892216Y1478632D01*
X876981D02*
X874442Y1476093D01*
X869363D01*
X866824Y1478632D01*
Y1488788D01*
X869363Y1491328D01*
X874442D01*
X876981Y1488788D01*
Y1486249D01*
X874442Y1483710D01*
X866824D01*
X908049Y1262377D02*
X913128D01*
X910588D01*
Y1249682D01*
X913128Y1247142D01*
X915667D01*
X918206Y1249682D01*
X902971Y1259838D02*
X900432Y1262377D01*
X895353D01*
X892814Y1259838D01*
Y1257299D01*
X895353Y1254760D01*
X892814Y1252221D01*
Y1249682D01*
X895353Y1247142D01*
X900432D01*
X902971Y1249682D01*
Y1252221D01*
X900432Y1254760D01*
X902971Y1257299D01*
Y1259838D01*
X900432Y1254760D02*
X895353D01*
X905509Y1310638D02*
X910587D01*
X908048D01*
Y1297942D01*
X910587Y1295403D01*
X913127D01*
X915666Y1297942D01*
X900431Y1310638D02*
X890274D01*
Y1308098D01*
X900431Y1297942D01*
Y1295403D01*
X703379Y1214467D02*
X708457D01*
X705918D01*
Y1201772D01*
X708457Y1199232D01*
X710996D01*
X713536Y1201772D01*
X688144Y1214467D02*
X693222Y1211928D01*
X698301Y1206850D01*
Y1201772D01*
X695761Y1199232D01*
X690683D01*
X688144Y1201772D01*
Y1204311D01*
X690683Y1206850D01*
X698301D01*
X693419Y1272538D02*
X698497D01*
X695958D01*
Y1259842D01*
X698497Y1257302D01*
X701037D01*
X703576Y1259842D01*
X678184Y1272538D02*
X688341D01*
Y1264920D01*
X683262Y1267459D01*
X680723D01*
X678184Y1264920D01*
Y1259842D01*
X680723Y1257302D01*
X685802D01*
X688341Y1259842D01*
X906339Y1219548D02*
X911418D01*
X908878D01*
Y1206852D01*
X911418Y1204313D01*
X913957D01*
X916496Y1206852D01*
X893643Y1204313D02*
Y1219548D01*
X901261Y1211930D01*
X891104D01*
X708659Y1309368D02*
X713737D01*
X711198D01*
Y1296672D01*
X713737Y1294133D01*
X716277D01*
X718816Y1296672D01*
X703581Y1306828D02*
X701042Y1309368D01*
X695963D01*
X693424Y1306828D01*
Y1304289D01*
X695963Y1301750D01*
X698503D01*
X695963D01*
X693424Y1299211D01*
Y1296672D01*
X695963Y1294133D01*
X701042D01*
X703581Y1296672D01*
M02*
