G04*
G04 #@! TF.GenerationSoftware,Altium Limited,Altium Designer,21.6.4 (81)*
G04*
G04 Layer_Physical_Order=2*
G04 Layer_Color=16711680*
%FSLAX44Y44*%
%MOMM*%
G71*
G04*
G04 #@! TF.SameCoordinates,886655C1-92EC-40BA-A99E-831138A1A13E*
G04*
G04*
G04 #@! TF.FilePolarity,Positive*
G04*
G01*
G75*
%ADD14C,0.1524*%
%ADD18R,2.9972X0.7112*%
%ADD37R,2.0066X1.1938*%
%ADD42C,0.3556*%
%ADD43C,1.5240*%
G04:AMPARAMS|DCode=44|XSize=1.62mm|YSize=3.14mm|CornerRadius=0.81mm|HoleSize=0mm|Usage=FLASHONLY|Rotation=180.000|XOffset=0mm|YOffset=0mm|HoleType=Round|Shape=RoundedRectangle|*
%AMROUNDEDRECTD44*
21,1,1.6200,1.5200,0,0,180.0*
21,1,0.0000,3.1400,0,0,180.0*
1,1,1.6200,0.0000,0.7600*
1,1,1.6200,0.0000,0.7600*
1,1,1.6200,0.0000,-0.7600*
1,1,1.6200,0.0000,-0.7600*
%
%ADD44ROUNDEDRECTD44*%
%ADD45C,1.2192*%
%ADD46C,0.6000*%
%ADD47C,0.7870*%
G36*
X165798Y142102D02*
X166487Y140439D01*
X167759Y139167D01*
X169422Y138478D01*
X170078Y137497D01*
X170044Y137414D01*
X181553D01*
X181777Y137629D01*
X182181Y137843D01*
X182488Y137716D01*
X183812D01*
X186702Y134826D01*
X187794Y134096D01*
X189083Y133840D01*
X191648D01*
X191905Y133459D01*
X191230Y132189D01*
X182306D01*
X181018Y131932D01*
X180242Y132941D01*
X180211Y133006D01*
X180984Y134874D01*
X170044D01*
X170312Y134225D01*
X169836Y133511D01*
X169658Y132619D01*
Y124740D01*
X168388Y124214D01*
X150818Y141784D01*
X151304Y142957D01*
X165798D01*
Y142102D01*
D02*
G37*
G36*
X273680Y153309D02*
X277078Y152975D01*
X280346Y151983D01*
X283358Y150374D01*
X285997Y148207D01*
X288164Y145568D01*
X289773Y142556D01*
X290765Y139288D01*
X291099Y135890D01*
X291111D01*
Y19057D01*
X291110Y19050D01*
X291098D01*
X290763Y15652D01*
X289772Y12385D01*
X288162Y9373D01*
X285996Y6734D01*
X283357Y4568D01*
X280345Y2958D01*
X277078Y1967D01*
X273680Y1632D01*
Y1620D01*
X273672Y1619D01*
X128416D01*
X127930Y2792D01*
X132283Y7144D01*
X133013Y8237D01*
X133269Y9525D01*
Y14112D01*
X134756Y14727D01*
X136766Y16270D01*
X138309Y18281D01*
X139278Y20622D01*
X139609Y23134D01*
Y38334D01*
X139278Y40846D01*
X138309Y43187D01*
X136766Y45198D01*
X134756Y46740D01*
X132415Y47710D01*
X129902Y48041D01*
X127390Y47710D01*
X125049Y46740D01*
X123038Y45198D01*
X121496Y43187D01*
X120526Y40846D01*
X120195Y38334D01*
Y23134D01*
X120526Y20622D01*
X121496Y18281D01*
X123038Y16270D01*
X125049Y14727D01*
X126536Y14112D01*
Y10920D01*
X122348Y6732D01*
X109601D01*
X109215Y8002D01*
X109598Y8258D01*
X115440Y14100D01*
X115945Y14856D01*
X116123Y15748D01*
Y51105D01*
X122820Y57802D01*
X123052Y57706D01*
X124852D01*
X126515Y58395D01*
X127787Y59667D01*
X128476Y61330D01*
Y63130D01*
X127947Y64408D01*
X128561Y65678D01*
X211922D01*
X216916Y60684D01*
Y53820D01*
X249936D01*
Y63980D01*
X220212D01*
X217562Y66630D01*
X218048Y67804D01*
X232156D01*
Y73900D01*
X233426D01*
Y75170D01*
X250952D01*
Y76637D01*
X252125Y77123D01*
X253173Y76076D01*
Y53337D01*
X248816Y48980D01*
X216916D01*
Y42625D01*
X215646Y42372D01*
X215308Y43187D01*
X213766Y45198D01*
X211755Y46740D01*
X209414Y47710D01*
X206902Y48041D01*
X204389Y47710D01*
X202048Y46740D01*
X200038Y45198D01*
X198495Y43187D01*
X197526Y40846D01*
X197195Y38334D01*
Y23134D01*
X197526Y20622D01*
X198495Y18281D01*
X200038Y16270D01*
X202048Y14727D01*
X204389Y13758D01*
X206902Y13427D01*
X209414Y13758D01*
X211755Y14727D01*
X213766Y16270D01*
X215308Y18281D01*
X216278Y20622D01*
X216609Y23134D01*
Y27367D01*
X250952D01*
X252240Y27624D01*
X253333Y28353D01*
X259716Y34736D01*
X260889Y34250D01*
Y23907D01*
X284003D01*
Y38893D01*
X265532D01*
X265046Y40066D01*
X269541Y44561D01*
X270270Y45654D01*
X270527Y46942D01*
Y91510D01*
X270270Y92799D01*
X269541Y93891D01*
X265039Y98393D01*
X265782Y99339D01*
X265802Y99362D01*
X267600D01*
X269263Y100051D01*
X270535Y101323D01*
X271224Y102986D01*
Y104786D01*
X270535Y106449D01*
X269347Y107637D01*
X269384Y108038D01*
X269718Y108907D01*
X284003D01*
Y123893D01*
X260889D01*
Y108907D01*
X263682D01*
X264016Y108038D01*
X264053Y107637D01*
X262865Y106449D01*
X262774Y106230D01*
X249936D01*
Y108980D01*
X235757D01*
Y119006D01*
X235579Y119898D01*
X235074Y120654D01*
X207849Y147880D01*
X208335Y149053D01*
X230429D01*
X247032Y132450D01*
X246936Y132218D01*
Y130418D01*
X247625Y128755D01*
X248897Y127483D01*
X250560Y126794D01*
X252360D01*
X254023Y127483D01*
X255295Y128755D01*
X255984Y130418D01*
Y132218D01*
X255295Y133881D01*
X254023Y135153D01*
X252360Y135842D01*
X250560D01*
X250328Y135746D01*
X234023Y152051D01*
X234549Y153321D01*
X273680D01*
X273680Y153309D01*
D02*
G37*
G36*
X191008Y116958D02*
X191647Y117222D01*
X197183Y111687D01*
Y91382D01*
X197149Y91361D01*
X195879Y92074D01*
Y104775D01*
X195701Y105667D01*
X195196Y106423D01*
X182444Y119176D01*
X182930Y120349D01*
X184603D01*
X185041Y119290D01*
X186600Y117731D01*
X188468Y116958D01*
Y122428D01*
X191008D01*
Y116958D01*
D02*
G37*
G36*
X91622Y112886D02*
X91417Y112801D01*
X90145Y111529D01*
X89456Y109866D01*
Y108066D01*
X90145Y106403D01*
X90174Y106374D01*
X89688Y105201D01*
X72765D01*
X72669Y105433D01*
X71397Y106705D01*
X69734Y107394D01*
X67934D01*
X66271Y106705D01*
X64999Y105433D01*
X64310Y103770D01*
Y101970D01*
X64999Y100307D01*
X65391Y99915D01*
X64865Y98645D01*
X64818D01*
X63926Y98467D01*
X63170Y97962D01*
X54218Y89010D01*
X53986Y89106D01*
X52186D01*
X50523Y88417D01*
X49251Y87145D01*
X48562Y85482D01*
Y83682D01*
X49251Y82019D01*
X50523Y80747D01*
X52186Y80058D01*
X53986D01*
X55649Y80747D01*
X56921Y82019D01*
X57610Y83682D01*
Y85482D01*
X57514Y85714D01*
X65783Y93983D01*
X69025D01*
X69551Y92713D01*
X69063Y92225D01*
X68374Y90562D01*
Y88762D01*
X69063Y87099D01*
X70335Y85827D01*
X70494Y85761D01*
Y80706D01*
X70190Y80579D01*
X68917Y79307D01*
X68228Y77644D01*
Y75844D01*
X68917Y74181D01*
X70190Y72909D01*
X71852Y72220D01*
X73652D01*
X75315Y72909D01*
X75749Y73343D01*
X76995Y73095D01*
X77191Y72621D01*
X78463Y71349D01*
X80126Y70660D01*
X81926D01*
X83589Y71349D01*
X84861Y72621D01*
X85299Y73679D01*
X86569Y73426D01*
Y71323D01*
X50631Y35385D01*
X49294Y35939D01*
X49276D01*
Y29464D01*
X46736D01*
Y35939D01*
X46718D01*
X44338Y34953D01*
X44118Y34734D01*
X42702Y35113D01*
X42407Y36215D01*
X41403Y37953D01*
X39985Y39372D01*
X39376Y39723D01*
X39348Y40008D01*
X39575Y41075D01*
X40917Y41631D01*
X42189Y42903D01*
X42878Y44566D01*
Y46366D01*
X42189Y48029D01*
X41193Y49025D01*
Y52832D01*
X41015Y53724D01*
X40510Y54480D01*
X31098Y63892D01*
X31194Y64124D01*
Y65924D01*
X30505Y67587D01*
X29233Y68859D01*
X27570Y69548D01*
X25770D01*
X24107Y68859D01*
X23500Y68980D01*
X23235Y69619D01*
X21963Y70891D01*
X20300Y71580D01*
X18500D01*
X16837Y70891D01*
X15565Y69619D01*
X14876Y67956D01*
Y66156D01*
X15565Y64493D01*
X16837Y63221D01*
X17069Y63125D01*
Y52064D01*
X15720Y50715D01*
X15215Y49959D01*
X15038Y49067D01*
Y34320D01*
X15215Y33428D01*
X15720Y32672D01*
X22538Y25855D01*
X22120Y24477D01*
X22019Y24457D01*
X13634Y32842D01*
Y45466D01*
X13555Y45865D01*
Y79854D01*
X42590Y108890D01*
X76587D01*
X76683Y108658D01*
X77955Y107386D01*
X79618Y106697D01*
X81418D01*
X83081Y107386D01*
X84353Y108658D01*
X85042Y110321D01*
Y112121D01*
X84725Y112886D01*
X85574Y114156D01*
X91369D01*
X91622Y112886D01*
D02*
G37*
%LPC*%
G36*
X250952Y72630D02*
X234696D01*
Y67804D01*
X250952D01*
Y72630D01*
D02*
G37*
G36*
X170529Y57758D02*
X166275D01*
X162074Y57093D01*
X158028Y55778D01*
X154238Y53847D01*
X150797Y51347D01*
X147789Y48339D01*
X145289Y44898D01*
X143358Y41108D01*
X142043Y37062D01*
X141378Y32861D01*
Y28607D01*
X142043Y24406D01*
X143358Y20360D01*
X145289Y16570D01*
X147789Y13129D01*
X150797Y10121D01*
X154238Y7621D01*
X158028Y5690D01*
X162074Y4375D01*
X166275Y3710D01*
X170529D01*
X174730Y4375D01*
X178776Y5690D01*
X182566Y7621D01*
X186007Y10121D01*
X189015Y13129D01*
X191515Y16570D01*
X193446Y20360D01*
X194761Y24406D01*
X195426Y28607D01*
Y32861D01*
X194761Y37062D01*
X193446Y41108D01*
X191515Y44898D01*
X189015Y48339D01*
X186007Y51347D01*
X182566Y53847D01*
X178776Y55778D01*
X174730Y57093D01*
X170529Y57758D01*
D02*
G37*
%LPD*%
D14*
X173105Y122680D02*
X189486D01*
X199514Y85416D02*
Y112652D01*
X189486Y122680D02*
X199514Y112652D01*
X171989Y123795D02*
X173105Y122680D01*
X147066Y142240D02*
X170434Y118872D01*
X179451D02*
X193548Y104775D01*
X170434Y118872D02*
X179451D01*
X67564Y9906D02*
X107950D01*
X113792Y15748D01*
X60706Y16764D02*
X67564Y9906D01*
X81740Y80470D02*
X88646Y87376D01*
X81740Y75898D02*
Y80470D01*
X81026Y75184D02*
X81740Y75898D01*
X38862Y45974D02*
Y52832D01*
X38354Y45466D02*
X38862Y45974D01*
X26670Y65024D02*
X38862Y52832D01*
X231394Y151384D02*
X251460Y131318D01*
X85090Y151384D02*
X231394D01*
X233426Y88900D02*
X260858D01*
X167191Y145288D02*
X169477Y143002D01*
X111252Y145288D02*
X167191D01*
X169477Y143002D02*
X170322D01*
X17369Y49067D02*
X19400Y51098D01*
X17369Y34320D02*
Y49067D01*
X19400Y51098D02*
Y67056D01*
X11303Y31877D02*
Y45466D01*
Y31877D02*
X21844Y21336D01*
X11224Y45545D02*
X11303Y45466D01*
X11224Y45545D02*
Y80820D01*
X48006Y29464D02*
X88900Y70358D01*
Y77038D02*
X99842Y87980D01*
X88900Y70358D02*
Y77038D01*
X99842Y88249D02*
X100967Y87124D01*
X60706Y29464D02*
X95250Y64008D01*
Y74930D01*
X100584Y78839D02*
X101235Y79490D01*
X100584Y63818D02*
Y78839D01*
X100967Y87124D02*
X103027D01*
X111570Y78580D01*
X84221Y93266D02*
X127460D01*
X129032Y91694D01*
X173482D01*
X81983Y91028D02*
X84221Y93266D01*
X121968Y96314D02*
X128703Y103049D01*
X64818Y96314D02*
X121968D01*
X80772Y91028D02*
X81983D01*
X93824Y102870D02*
X95094Y101600D01*
X114046D02*
X134366Y121920D01*
X95094Y101600D02*
X114046D01*
X68834Y102870D02*
X93824D01*
X93980Y108966D02*
X94571D01*
X97111Y106426D02*
X111025D01*
X94571Y108966D02*
X97111Y106426D01*
X134366Y121920D02*
X139192D01*
X111025Y106426D02*
X133797Y129198D01*
X72752Y76744D02*
X72825Y76817D01*
Y89589D01*
X72898Y89662D01*
X28575Y150876D02*
X43942D01*
X59992Y130000D02*
Y134826D01*
X53086Y84582D02*
X64818Y96314D01*
X11224Y80820D02*
X41625Y111221D01*
X128703Y103049D02*
X138989Y113799D01*
X59992Y130000D02*
X60452Y129540D01*
X43942Y150876D02*
X59992Y134826D01*
X41625Y111221D02*
X80518D01*
X113792Y15748D02*
Y52070D01*
X123952Y62230D01*
X111570Y78580D02*
X136389D01*
X140801Y74168D02*
X167386D01*
X123190Y73295D02*
X123941D01*
X136389Y78580D02*
X140801Y74168D01*
X104775Y68008D02*
X212888D01*
X221996Y58900D01*
X167386Y74168D02*
X167654Y73900D01*
X221996Y58900D02*
X233426D01*
X101600Y14732D02*
X106031Y19163D01*
Y59577D01*
X100584Y56642D02*
Y63818D01*
X73406Y29464D02*
X100584Y56642D01*
Y63818D02*
X104775Y68008D01*
X167654Y73900D02*
X202946D01*
X184404Y79756D02*
X193548Y88900D01*
X144018Y79756D02*
X184404D01*
X199839Y83879D02*
Y85090D01*
X199514Y85416D02*
X199839Y85090D01*
X171989Y132619D02*
X175514Y136144D01*
X171989Y123795D02*
Y132619D01*
X103298Y137334D02*
X111252Y145288D01*
X103298Y137334D02*
Y137334D01*
X96266Y130302D02*
X103298Y137334D01*
X117602Y142240D02*
X147066D01*
X53429Y122212D02*
X97574D01*
X117602Y142240D01*
X88431Y127498D02*
Y137199D01*
X99568Y148336D01*
X42886Y132755D02*
X53429Y122212D01*
X204096Y148336D02*
X233426Y119006D01*
X79756Y146050D02*
X85090Y151384D01*
X99568Y148336D02*
X204096D01*
X134160Y137747D02*
X135176Y136731D01*
X233426Y103900D02*
Y119006D01*
X199839Y83879D02*
X202946Y80772D01*
Y73900D02*
Y80772D01*
X81788Y131064D02*
Y138147D01*
X79756Y140179D02*
Y146050D01*
Y140179D02*
X81788Y138147D01*
X33020Y144526D02*
X42886Y134660D01*
Y132755D02*
Y134660D01*
X24638Y146939D02*
X28575Y150876D01*
X73406Y14732D02*
X101600D01*
X193548Y88900D02*
Y104775D01*
X17369Y34320D02*
X27305Y24384D01*
X41872D01*
X43142Y23114D01*
X67056D01*
X73406Y29464D01*
X43350Y16764D02*
X48006D01*
X38778Y21336D02*
X43350Y16764D01*
X21844Y21336D02*
X38778D01*
X233426Y43900D02*
X248497D01*
X24638Y133924D02*
Y146939D01*
X11430Y120716D02*
X24638Y133924D01*
X73406Y14732D02*
Y16764D01*
X202946Y73900D02*
X233426D01*
Y103900D02*
X266686D01*
X266700Y103886D01*
D18*
X233426Y43900D02*
D03*
Y58900D02*
D03*
Y73900D02*
D03*
Y88900D02*
D03*
Y103900D02*
D03*
D37*
X272446Y31400D02*
D03*
Y116400D02*
D03*
D42*
X182306Y128822D02*
X194012D01*
X181918Y128433D02*
X182306Y128822D01*
X177743Y128433D02*
X181918D01*
X194012Y128822D02*
X206248Y116586D01*
X189083Y137207D02*
X193878D01*
X199375Y131710D02*
X200036D01*
X193878Y137207D02*
X199375Y131710D01*
X123743Y3365D02*
X129902Y9525D01*
X4826Y26670D02*
X28131Y3365D01*
X123743D01*
X209829Y135128D02*
X221488Y123469D01*
X267160Y46942D02*
Y91510D01*
X250952Y30734D02*
X267160Y46942D01*
X262658Y96012D02*
X267160Y91510D01*
X213360Y96012D02*
X262658D01*
X184049Y142240D02*
X189083Y137207D01*
X183388Y142240D02*
X184049D01*
X204938Y92496D02*
Y95112D01*
X204800Y95250D02*
X204938Y95112D01*
X177275Y127966D02*
X177743Y128433D01*
X121491Y137747D02*
X127382D01*
X101267Y117523D02*
X121491Y137747D01*
X41577Y117523D02*
X101267D01*
X132729Y137873D02*
X132855Y137747D01*
X127508Y137873D02*
X132729D01*
X132855Y137747D02*
X134160D01*
X127382D02*
X127508Y137873D01*
X4826Y80772D02*
X41577Y117523D01*
X4826Y26670D02*
Y80772D01*
X163382Y108525D02*
X176685D01*
X135176Y136731D02*
X163382Y108525D01*
X206248Y103124D02*
Y116586D01*
Y103124D02*
X213360Y96012D01*
X252222Y81788D02*
X256540Y77470D01*
X215646Y81788D02*
X252222D01*
X256540Y51943D02*
Y77470D01*
X204938Y92496D02*
X215646Y81788D01*
X248497Y43900D02*
X256540Y51943D01*
X215138Y108823D02*
X221488Y115173D01*
X215138Y108357D02*
Y108823D01*
X213614Y106833D02*
X215138Y108357D01*
X221488Y115173D02*
Y123469D01*
X213614Y106172D02*
Y106833D01*
X129902Y9525D02*
Y30734D01*
X206902D02*
X250952D01*
D43*
X11430Y140716D02*
D03*
Y120716D02*
D03*
D44*
X129902Y30734D02*
D03*
X206902D02*
D03*
D45*
X35306Y33274D02*
D03*
Y12954D02*
D03*
X86106Y23114D02*
D03*
D46*
X189738Y122428D02*
D03*
X200036Y131710D02*
D03*
X81026Y75184D02*
D03*
X38354Y45466D02*
D03*
X88646Y87376D02*
D03*
X251460Y131318D02*
D03*
X209829Y135128D02*
D03*
X260858Y88900D02*
D03*
X26670Y65024D02*
D03*
X19400Y67056D02*
D03*
X95250Y74930D02*
D03*
X101235Y79490D02*
D03*
X80772Y91028D02*
D03*
X99842Y87980D02*
D03*
X93980Y108966D02*
D03*
X68834Y102870D02*
D03*
X72752Y76744D02*
D03*
X72898Y89662D02*
D03*
X80518Y111221D02*
D03*
X60452Y129540D02*
D03*
X133797Y129198D02*
D03*
X53086Y84582D02*
D03*
X123952Y62230D02*
D03*
X123190Y73295D02*
D03*
X183388Y142240D02*
D03*
X106031Y59577D02*
D03*
X167386Y74168D02*
D03*
X144018Y79756D02*
D03*
X204800Y95250D02*
D03*
X177275Y127966D02*
D03*
X138989Y113799D02*
D03*
X96266Y130302D02*
D03*
X88431Y127498D02*
D03*
X175514Y136144D02*
D03*
X170322Y143002D02*
D03*
X176685Y108525D02*
D03*
X173482Y91694D02*
D03*
X199839Y85090D02*
D03*
X213614Y106172D02*
D03*
X81788Y131064D02*
D03*
X33020Y144526D02*
D03*
X139192Y121920D02*
D03*
X266700Y103886D02*
D03*
D47*
X48006Y16764D02*
D03*
Y29464D02*
D03*
X60706D02*
D03*
Y16764D02*
D03*
X73406Y29464D02*
D03*
Y16764D02*
D03*
M02*
