G04*
G04 #@! TF.GenerationSoftware,Altium Limited,Altium Designer,21.6.4 (81)*
G04*
G04 Layer_Color=65535*
%FSLAX44Y44*%
%MOMM*%
G71*
G04*
G04 #@! TF.SameCoordinates,886655C1-92EC-40BA-A99E-831138A1A13E*
G04*
G04*
G04 #@! TF.FilePolarity,Positive*
G04*
G01*
G75*
%ADD10C,0.6000*%
%ADD11C,0.2500*%
%ADD12C,0.2540*%
%ADD13C,0.2000*%
%ADD14C,0.1524*%
D10*
X52858Y123370D02*
G03*
X52858Y123370I-3000J0D01*
G01*
D11*
X30108Y139120D02*
G03*
X30108Y139120I-1250J0D01*
G01*
X210858Y71475D02*
G03*
X210858Y71475I-1250J0D01*
G01*
X153295Y96578D02*
G03*
X153295Y96578I-1250J0D01*
G01*
D12*
X209655Y97282D02*
G03*
X209655Y97282I-359J0D01*
G01*
D13*
X39858Y72370D02*
X100858D01*
X39858Y133370D02*
X100858D01*
Y72370D02*
Y133370D01*
X39858Y72370D02*
Y133370D01*
X171424Y80314D02*
X177611Y74127D01*
X171424Y80314D02*
X177081Y85971D01*
X187157Y64581D02*
X193344Y58394D01*
X199001Y64051D01*
X122782Y98382D02*
Y108882D01*
X135282Y98382D02*
Y108882D01*
X123338Y115924D02*
X133838D01*
X123338Y128424D02*
X133838D01*
X106590Y54948D02*
Y65448D01*
X119090Y54948D02*
Y65448D01*
X143206Y58394D02*
X149393Y64581D01*
X137549Y64051D02*
X143206Y58394D01*
X158939Y74127D02*
X165126Y80314D01*
X159469Y85971D02*
X165126Y80314D01*
X194902Y138276D02*
X205402D01*
X194902Y150776D02*
X205402D01*
X178154Y106764D02*
Y117264D01*
X190654Y106764D02*
Y117264D01*
X20204Y52548D02*
Y53048D01*
Y40548D02*
Y41048D01*
X5704Y52548D02*
Y53048D01*
Y40548D02*
Y41048D01*
X26204Y32798D02*
Y60798D01*
X-296Y32798D02*
Y60798D01*
X211936Y136990D02*
Y147490D01*
X224436Y136990D02*
Y147490D01*
X21668Y83871D02*
Y108453D01*
X-332Y83871D02*
Y108453D01*
X16918Y69108D02*
Y79608D01*
X4418Y69108D02*
Y79608D01*
X110690Y149522D02*
X116990D01*
X110690Y139022D02*
X116990D01*
D14*
X230202Y127635D02*
X292686D01*
Y20193D02*
Y127635D01*
X230202Y20193D02*
X292686D01*
X230202Y110797D02*
Y127635D01*
Y20193D02*
Y37031D01*
M02*
