M48
;Layer_Color=9474304
;FILE_FORMAT=4:4
METRIC,LZ
;TYPE=PLATED
T1F00S00C0.3000
T2F00S00C0.8440
T4F00S00C5.1000
;TYPE=NON_PLATED
T5F00S00C1.0160
%
T01
X00038354Y00045466
X0002667Y00065024
X000194Y00067056
X00053086Y00084582
X00072898Y00089662
X00080772Y00091028
X00088646Y00087376
X00099842Y0008798
X00101235Y0007949
X0009525Y0007493
X00081026Y00075184
X00072752Y00076744
X00106031Y00059577
X00123952Y0006223
X0012319Y00073295
X00144018Y00079756
X00167386Y00074168
X00173482Y00091694
X00199839Y0008509
X002048Y0009525
X00260858Y000889
X002667Y00103886
X0025146Y00131318
X00209829Y00135128
X00200036Y0013171
X00189738Y00122428
X00177275Y00127966
X00175514Y00136144
X00170322Y00143002
X00183388Y0014224
X00176685Y00108525
X00213614Y00106172
X00138989Y00113799
X00139192Y0012192
X00133797Y00129198
X00096266Y00130302
X00088431Y00127498
X00081788Y00131064
X00080518Y00111221
X0009398Y00108966
X00068834Y0010287
X00060452Y0012954
X0003302Y00144526
T02
X0001143Y00120716
Y00140716
T04
X00168402Y00030734
T05
X00035306Y00012954
Y00033274
X00086106Y00023114
M30
