G04*
G04 #@! TF.GenerationSoftware,Altium Limited,Altium Designer,21.6.4 (81)*
G04*
G04 Layer_Color=16711935*
%FSLAX44Y44*%
%MOMM*%
G71*
G04*
G04 #@! TF.SameCoordinates,0AF61676-ECA7-40E5-9188-409EB156610F*
G04*
G04*
G04 #@! TF.FilePolarity,Negative*
G04*
G01*
G75*
%ADD16R,1.3970X2.2098*%
%ADD17R,0.7112X2.9972*%
%ADD18C,1.7272*%
%ADD19R,1.7272X1.7272*%
%ADD20C,3.0032*%
%ADD21C,1.9032*%
%ADD22R,1.9032X1.9032*%
%ADD23C,3.2032*%
%ADD24C,1.2700*%
G04:AMPARAMS|DCode=34|XSize=0.7112mm|YSize=2.9972mm|CornerRadius=0mm|HoleSize=0mm|Usage=FLASHONLY|Rotation=240.000|XOffset=0mm|YOffset=0mm|HoleType=Round|Shape=Rectangle|*
%AMROTATEDRECTD34*
4,1,4,-1.1200,1.0573,1.4756,-0.4413,1.1200,-1.0573,-1.4756,0.4413,-1.1200,1.0573,0.0*
%
%ADD34ROTATEDRECTD34*%

G04:AMPARAMS|DCode=36|XSize=0.7112mm|YSize=2.9972mm|CornerRadius=0mm|HoleSize=0mm|Usage=FLASHONLY|Rotation=280.000|XOffset=0mm|YOffset=0mm|HoleType=Round|Shape=Rectangle|*
%AMROTATEDRECTD36*
4,1,4,-1.5376,0.0900,1.4141,0.6104,1.5376,-0.0900,-1.4141,-0.6104,-1.5376,0.0900,0.0*
%
%ADD36ROTATEDRECTD36*%

G04:AMPARAMS|DCode=39|XSize=0.7112mm|YSize=2.9972mm|CornerRadius=0mm|HoleSize=0mm|Usage=FLASHONLY|Rotation=120.000|XOffset=0mm|YOffset=0mm|HoleType=Round|Shape=Rectangle|*
%AMROTATEDRECTD39*
4,1,4,1.4756,0.4413,-1.1200,-1.0573,-1.4756,-0.4413,1.1200,1.0573,1.4756,0.4413,0.0*
%
%ADD39ROTATEDRECTD39*%

G04:AMPARAMS|DCode=40|XSize=0.7112mm|YSize=2.9972mm|CornerRadius=0mm|HoleSize=0mm|Usage=FLASHONLY|Rotation=80.000|XOffset=0mm|YOffset=0mm|HoleType=Round|Shape=Rectangle|*
%AMROTATEDRECTD40*
4,1,4,1.4141,-0.6104,-1.5376,-0.0900,-1.4141,0.6104,1.5376,0.0900,1.4141,-0.6104,0.0*
%
%ADD40ROTATEDRECTD40*%

G04:AMPARAMS|DCode=42|XSize=2.2098mm|YSize=1.397mm|CornerRadius=0mm|HoleSize=0mm|Usage=FLASHONLY|Rotation=150.000|XOffset=0mm|YOffset=0mm|HoleType=Round|Shape=Rectangle|*
%AMROTATEDRECTD42*
4,1,4,1.3061,0.0525,0.6076,-1.1574,-1.3061,-0.0525,-0.6076,1.1574,1.3061,0.0525,0.0*
%
%ADD42ROTATEDRECTD42*%

G04:AMPARAMS|DCode=43|XSize=2.2098mm|YSize=1.397mm|CornerRadius=0mm|HoleSize=0mm|Usage=FLASHONLY|Rotation=190.000|XOffset=0mm|YOffset=0mm|HoleType=Round|Shape=Rectangle|*
%AMROTATEDRECTD43*
4,1,4,0.9668,0.8798,1.2094,-0.4960,-0.9668,-0.8798,-1.2094,0.4960,0.9668,0.8798,0.0*
%
%ADD43ROTATEDRECTD43*%

G04:AMPARAMS|DCode=44|XSize=2.2098mm|YSize=1.397mm|CornerRadius=0mm|HoleSize=0mm|Usage=FLASHONLY|Rotation=30.000|XOffset=0mm|YOffset=0mm|HoleType=Round|Shape=Rectangle|*
%AMROTATEDRECTD44*
4,1,4,-0.6076,-1.1574,-1.3061,0.0525,0.6076,1.1574,1.3061,-0.0525,-0.6076,-1.1574,0.0*
%
%ADD44ROTATEDRECTD44*%

G04:AMPARAMS|DCode=45|XSize=2.2098mm|YSize=1.397mm|CornerRadius=0mm|HoleSize=0mm|Usage=FLASHONLY|Rotation=350.000|XOffset=0mm|YOffset=0mm|HoleType=Round|Shape=Rectangle|*
%AMROTATEDRECTD45*
4,1,4,-1.2094,-0.4960,-0.9668,0.8798,1.2094,0.4960,0.9668,-0.8798,-1.2094,-0.4960,0.0*
%
%ADD45ROTATEDRECTD45*%

D16*
X762680Y1480470D02*
D03*
X847680D02*
D03*
X786720Y1135730D02*
D03*
X701720D02*
D03*
X901260D02*
D03*
X816260D02*
D03*
D17*
X775180Y1441450D02*
D03*
X790180D02*
D03*
X805180D02*
D03*
X820180D02*
D03*
X835180D02*
D03*
X774220Y1174750D02*
D03*
X759220D02*
D03*
X744220D02*
D03*
X729220D02*
D03*
X714220D02*
D03*
X888760D02*
D03*
X873760D02*
D03*
X858760D02*
D03*
X843760D02*
D03*
X828760D02*
D03*
D18*
X727800Y1341120D02*
D03*
Y1366520D02*
D03*
Y1391920D02*
D03*
Y1417320D02*
D03*
Y1442720D02*
D03*
X876300Y1214120D02*
D03*
Y1239520D02*
D03*
Y1264920D02*
D03*
Y1290320D02*
D03*
Y1315720D02*
D03*
Y1341120D02*
D03*
Y1366520D02*
D03*
Y1391920D02*
D03*
Y1417320D02*
D03*
X727800Y1315720D02*
D03*
Y1290320D02*
D03*
Y1264920D02*
D03*
Y1214120D02*
D03*
D19*
X876300Y1442720D02*
D03*
X727800Y1239520D02*
D03*
D20*
X805180Y1365250D02*
D03*
Y1285250D02*
D03*
D21*
X909320Y1299210D02*
D03*
Y1273810D02*
D03*
Y1248410D02*
D03*
Y1197610D02*
D03*
D22*
Y1223010D02*
D03*
D23*
X940000Y1150000D02*
D03*
X802640Y1520190D02*
D03*
X660000Y1150000D02*
D03*
D24*
X618490Y1286510D02*
D03*
X607060Y1216660D02*
D03*
D34*
X699530Y1358211D02*
D03*
X692030Y1345220D02*
D03*
X684530Y1332230D02*
D03*
X677030Y1319239D02*
D03*
X669530Y1306249D02*
D03*
D36*
X645096Y1255562D02*
D03*
X647700Y1240790D02*
D03*
X650305Y1226018D02*
D03*
X652909Y1211246D02*
D03*
X655515Y1196474D02*
D03*
D39*
X935750Y1312599D02*
D03*
X928250Y1325589D02*
D03*
X920750Y1338580D02*
D03*
X913250Y1351571D02*
D03*
X905750Y1364561D02*
D03*
D40*
X948560Y1194736D02*
D03*
X951165Y1209508D02*
D03*
X953770Y1224280D02*
D03*
X956375Y1239052D02*
D03*
X958979Y1253824D02*
D03*
D42*
X671988Y1388546D02*
D03*
X629488Y1314934D02*
D03*
D43*
X604498Y1261096D02*
D03*
X619258Y1177388D02*
D03*
D44*
X933292Y1394896D02*
D03*
X975792Y1321284D02*
D03*
D45*
X984817Y1175650D02*
D03*
X999577Y1259358D02*
D03*
M02*
