G04*
G04 #@! TF.GenerationSoftware,Altium Limited,Altium Designer,21.6.4 (81)*
G04*
G04 Layer_Color=65535*
%FSLAX44Y44*%
%MOMM*%
G71*
G04*
G04 #@! TF.SameCoordinates,0AF61676-ECA7-40E5-9188-409EB156610F*
G04*
G04*
G04 #@! TF.FilePolarity,Positive*
G04*
G01*
G75*
%ADD10C,0.0800*%
%ADD11C,0.5080*%
%ADD12C,0.2000*%
%ADD13C,0.1524*%
%ADD14C,0.2540*%
D10*
X732800Y1196220D02*
G03*
X732800Y1196220I-5000J0D01*
G01*
X727800Y1214120D02*
X876300D01*
X727800D02*
Y1442720D01*
X876300Y1214120D02*
Y1438820D01*
X727800Y1442720D02*
X872400D01*
D11*
X880491Y1441450D02*
G03*
X880491Y1441450I-3810J0D01*
G01*
X724091Y1394152D02*
G03*
X724091Y1394152I-3810J0D01*
G01*
X641699Y1296433D02*
G03*
X641699Y1296433I-3810J0D01*
G01*
X935101Y1173480D02*
G03*
X935101Y1173480I-3810J0D01*
G01*
X819531Y1173480D02*
G03*
X819531Y1173480I-3810J0D01*
G01*
X960311Y1276658D02*
G03*
X960311Y1276658I-3810J0D01*
G01*
X945164Y1153865D02*
G03*
X945164Y1153865I-3810J0D01*
G01*
X676529Y1174750D02*
G03*
X676529Y1174750I-3810J0D01*
G01*
X791069D02*
G03*
X791069Y1174750I-3810J0D01*
G01*
D12*
X897390Y1330310D02*
X908390D01*
X897390Y1344310D02*
X908390D01*
X897470Y1331610D02*
X908470D01*
X897470Y1317610D02*
X908470D01*
D13*
X913511Y1114220D02*
Y1176704D01*
X806069Y1114220D02*
X913511D01*
X806069D02*
Y1176704D01*
X896674D02*
X913511D01*
X806069D02*
X822907D01*
X690499Y1176704D02*
X707337D01*
X781103D02*
X797941D01*
X690499Y1114220D02*
Y1176704D01*
Y1114220D02*
X797941D01*
Y1176704D01*
D14*
X721614Y1469132D02*
X731771Y1458975D01*
X721614D02*
X731771Y1469132D01*
X721614Y1464053D02*
X731771D01*
X726692Y1458975D02*
Y1469132D01*
X919404Y1315723D02*
Y1330957D01*
X927022D01*
X929561Y1328418D01*
Y1323340D01*
X927022Y1320801D01*
X919404D01*
X924483D02*
X929561Y1315723D01*
X944796D02*
X934639D01*
X944796Y1325879D01*
Y1328418D01*
X942257Y1330957D01*
X937179D01*
X934639Y1328418D01*
X918213Y1330963D02*
Y1346198D01*
X925831D01*
X928370Y1343658D01*
Y1338580D01*
X925831Y1336041D01*
X918213D01*
X923292D02*
X928370Y1330963D01*
X933448D02*
X938527D01*
X935988D01*
Y1346198D01*
X933448Y1343658D01*
X951231Y1198877D02*
X946152D01*
X948692D01*
Y1186182D01*
X946152Y1183643D01*
X943613D01*
X941074Y1186182D01*
X966466Y1183643D02*
X956309D01*
X966466Y1193799D01*
Y1196338D01*
X963927Y1198877D01*
X958848D01*
X956309Y1196338D01*
X694690Y1206497D02*
X689612D01*
X692151D01*
Y1193802D01*
X689612Y1191263D01*
X687073D01*
X684533Y1193802D01*
X699768Y1191263D02*
X704847D01*
X702308D01*
Y1206497D01*
X699768Y1203958D01*
M02*
