G04*
G04 #@! TF.GenerationSoftware,Altium Limited,Altium Designer,21.6.4 (81)*
G04*
G04 Layer_Physical_Order=2*
G04 Layer_Color=16711680*
%FSLAX44Y44*%
%MOMM*%
G71*
G04*
G04 #@! TF.SameCoordinates,662A1053-D2FE-41ED-9168-75848B50F108*
G04*
G04*
G04 #@! TF.FilePolarity,Positive*
G04*
G01*
G75*
%ADD14C,0.2540*%
%ADD17R,0.7112X2.9972*%
%ADD26R,1.1938X2.0066*%
%ADD28C,1.5240*%
%ADD29R,1.5240X1.5240*%
%ADD30C,1.2700*%
G04:AMPARAMS|DCode=31|XSize=2.0066mm|YSize=1.1938mm|CornerRadius=0mm|HoleSize=0mm|Usage=FLASHONLY|Rotation=350.000|XOffset=0mm|YOffset=0mm|HoleType=Round|Shape=Rectangle|*
%AMROTATEDRECTD31*
4,1,4,-1.0917,-0.4136,-0.8844,0.7621,1.0917,0.4136,0.8844,-0.7621,-1.0917,-0.4136,0.0*
%
%ADD31ROTATEDRECTD31*%

G04:AMPARAMS|DCode=32|XSize=0.7112mm|YSize=2.9972mm|CornerRadius=0mm|HoleSize=0mm|Usage=FLASHONLY|Rotation=80.000|XOffset=0mm|YOffset=0mm|HoleType=Round|Shape=Rectangle|*
%AMROTATEDRECTD32*
4,1,4,1.4141,-0.6104,-1.5376,-0.0900,-1.4141,0.6104,1.5376,0.0900,1.4141,-0.6104,0.0*
%
%ADD32ROTATEDRECTD32*%

G04:AMPARAMS|DCode=33|XSize=2.0066mm|YSize=1.1938mm|CornerRadius=0mm|HoleSize=0mm|Usage=FLASHONLY|Rotation=30.000|XOffset=0mm|YOffset=0mm|HoleType=Round|Shape=Rectangle|*
%AMROTATEDRECTD33*
4,1,4,-0.5704,-1.0186,-1.1673,0.0153,0.5704,1.0186,1.1673,-0.0153,-0.5704,-1.0186,0.0*
%
%ADD33ROTATEDRECTD33*%

G04:AMPARAMS|DCode=34|XSize=0.7112mm|YSize=2.9972mm|CornerRadius=0mm|HoleSize=0mm|Usage=FLASHONLY|Rotation=120.000|XOffset=0mm|YOffset=0mm|HoleType=Round|Shape=Rectangle|*
%AMROTATEDRECTD34*
4,1,4,1.4756,0.4413,-1.1200,-1.0573,-1.4756,-0.4413,1.1200,1.0573,1.4756,0.4413,0.0*
%
%ADD34ROTATEDRECTD34*%

G04:AMPARAMS|DCode=35|XSize=2.0066mm|YSize=1.1938mm|CornerRadius=0mm|HoleSize=0mm|Usage=FLASHONLY|Rotation=190.000|XOffset=0mm|YOffset=0mm|HoleType=Round|Shape=Rectangle|*
%AMROTATEDRECTD35*
4,1,4,0.8844,0.7621,1.0917,-0.4136,-0.8844,-0.7621,-1.0917,0.4136,0.8844,0.7621,0.0*
%
%ADD35ROTATEDRECTD35*%

G04:AMPARAMS|DCode=36|XSize=0.7112mm|YSize=2.9972mm|CornerRadius=0mm|HoleSize=0mm|Usage=FLASHONLY|Rotation=280.000|XOffset=0mm|YOffset=0mm|HoleType=Round|Shape=Rectangle|*
%AMROTATEDRECTD36*
4,1,4,-1.5376,0.0900,1.4141,0.6104,1.5376,-0.0900,-1.4141,-0.6104,-1.5376,0.0900,0.0*
%
%ADD36ROTATEDRECTD36*%

G04:AMPARAMS|DCode=37|XSize=2.0066mm|YSize=1.1938mm|CornerRadius=0mm|HoleSize=0mm|Usage=FLASHONLY|Rotation=150.000|XOffset=0mm|YOffset=0mm|HoleType=Round|Shape=Rectangle|*
%AMROTATEDRECTD37*
4,1,4,1.1673,0.0153,0.5704,-1.0186,-1.1673,-0.0153,-0.5704,1.0186,1.1673,0.0153,0.0*
%
%ADD37ROTATEDRECTD37*%

G04:AMPARAMS|DCode=38|XSize=0.7112mm|YSize=2.9972mm|CornerRadius=0mm|HoleSize=0mm|Usage=FLASHONLY|Rotation=240.000|XOffset=0mm|YOffset=0mm|HoleType=Round|Shape=Rectangle|*
%AMROTATEDRECTD38*
4,1,4,-1.1200,1.0573,1.4756,-0.4413,1.1200,-1.0573,-1.4756,0.4413,-1.1200,1.0573,0.0*
%
%ADD38ROTATEDRECTD38*%

D14*
X928114Y1337752D02*
X930649Y1339215D01*
X905764Y1359481D02*
Y1363980D01*
X700024Y1450848D02*
X773320D01*
X673862Y1189322D02*
X695960D01*
X668279D02*
X673862D01*
X664101Y1308209D02*
Y1355562D01*
X656590Y1308209D02*
X664101D01*
X774700Y1176782D02*
X797560D01*
X673862Y1138936D02*
Y1189322D01*
X928370Y1320509D02*
X940054D01*
X928370Y1319276D02*
Y1320509D01*
X911352Y1319276D02*
X928370D01*
X926418Y1206166D02*
X926591D01*
X727480Y1201100D02*
X729700Y1198880D01*
X719709Y1208871D02*
X727480Y1201100D01*
X942480Y1297572D02*
Y1311405D01*
X909828Y1264920D02*
Y1287780D01*
Y1198880D02*
Y1264920D01*
Y1198880D02*
X917314Y1191394D01*
X900176Y1208532D02*
X909828Y1198880D01*
X774900Y1240790D02*
X863854D01*
X701802D02*
X705612D01*
X714756Y1351280D02*
Y1360170D01*
X694182Y1248410D02*
X697992D01*
X812038Y1165860D02*
X828760D01*
X767588Y1152906D02*
X799084D01*
X719836D02*
X767588D01*
X744700Y1177290D02*
Y1215000D01*
X730340Y1229360D02*
X744700Y1215000D01*
X878840Y1330960D02*
X889217D01*
X904748Y1346491D01*
X913250D01*
X857250Y1152906D02*
X861568Y1157224D01*
X871220D01*
X873760Y1177290D01*
X947420Y1235710D02*
X964692D01*
X969264Y1231138D01*
X729700Y1177290D02*
Y1198880D01*
X707136D02*
X719709Y1208871D01*
X707136Y1157986D02*
Y1198880D01*
Y1157986D02*
X718566Y1146556D01*
X755292D01*
X777421Y1124427D01*
X796979D01*
Y1143435D01*
X811248Y1157704D01*
X840740D01*
X843760Y1177290D01*
X713740Y1271270D02*
Y1330789D01*
X697350Y1347179D02*
X713740Y1330789D01*
X843760Y1148080D02*
Y1177290D01*
Y1148080D02*
X855162Y1136678D01*
X863882D01*
X874110Y1146906D01*
X727480Y1201100D02*
X730340Y1203960D01*
X727480Y1201100D02*
X729700Y1177290D01*
X917314Y1191394D02*
X939606D01*
X898906Y1240790D02*
X900176Y1239520D01*
X863854Y1240790D02*
X898906D01*
X759714Y1344930D02*
X863854Y1240790D01*
X721106Y1344930D02*
X759714D01*
X714756Y1351280D02*
X721106Y1344930D01*
X704850Y1360170D02*
X714756D01*
X935750Y1307519D02*
X942480Y1311405D01*
X909828Y1264920D02*
X942480Y1297572D01*
X900176Y1208532D02*
Y1239520D01*
X694182Y1248410D02*
X701802Y1240790D01*
X657860Y1248410D02*
X694182D01*
X833320Y1422908D02*
Y1450690D01*
X909828Y1287780D02*
X915162Y1293114D01*
X645160Y1204094D02*
X665674D01*
X639237Y1210016D02*
X645160Y1204094D01*
X639237Y1210016D02*
Y1251885D01*
X666242Y1278890D01*
X705612Y1240790D02*
X774900D01*
X697992Y1248410D02*
X705612Y1240790D01*
X928250Y1320509D02*
X928370D01*
X886206Y1294130D02*
X911352Y1319276D01*
X856742Y1294130D02*
X886206D01*
X839216Y1311656D02*
X856742Y1294130D01*
X839216Y1311656D02*
Y1397694D01*
X818320Y1418590D02*
X839216Y1397694D01*
X818320Y1418590D02*
Y1450690D01*
X828760Y1165860D02*
Y1177290D01*
X799084Y1152906D02*
X812038Y1165860D01*
X643128Y1189322D02*
X668279D01*
X634157Y1198292D02*
X643128Y1189322D01*
X634157Y1198292D02*
Y1285776D01*
X656590Y1308209D01*
X719846Y1218866D02*
X730340Y1229360D01*
X663070Y1218866D02*
X719846D01*
X693634Y1229106D02*
X713740D01*
X689102Y1233638D02*
X693634Y1229106D01*
X660464Y1233638D02*
X689102D01*
X767588Y1152906D02*
X772160Y1148334D01*
X714700Y1158042D02*
X719836Y1152906D01*
X714700Y1158042D02*
Y1177290D01*
X837438Y1215390D02*
X886206D01*
X892556Y1209040D01*
Y1196834D02*
Y1209040D01*
X888760Y1193038D02*
X892556Y1196834D01*
X888760Y1177290D02*
Y1193038D01*
X950024Y1250482D02*
X961281Y1248497D01*
X972225D01*
X979424Y1241298D01*
Y1200912D02*
Y1241298D01*
X955802Y1177290D02*
X979424Y1200912D01*
X888760Y1177290D02*
X955802D01*
X868680D02*
X873760D01*
X868680D02*
Y1193546D01*
X861060Y1201166D02*
X868680Y1193546D01*
X767066Y1201166D02*
X861060D01*
X759700Y1193800D02*
X767066Y1201166D01*
X759700Y1177290D02*
Y1193800D01*
X801878Y1181100D02*
X802640D01*
X797560Y1176782D02*
X801878Y1181100D01*
X774700Y1176782D02*
Y1177290D01*
X744700Y1158494D02*
Y1177290D01*
Y1158494D02*
X786638D01*
X799084Y1170940D01*
X813774D01*
X821394Y1178560D01*
Y1196086D01*
X851394D01*
X858760Y1188720D01*
Y1177290D02*
Y1188720D01*
X919988Y1212596D02*
X926418Y1206166D01*
X919988Y1212596D02*
Y1259840D01*
X940054Y1320509D02*
X940345Y1320800D01*
X950722D01*
X953262Y1318260D01*
Y1287018D02*
Y1318260D01*
X923717Y1257473D02*
X953262Y1287018D01*
X923717Y1209040D02*
Y1257473D01*
Y1209040D02*
X926591Y1206166D01*
X942210D01*
X795940Y1475740D02*
X860806D01*
X788320Y1468120D02*
X795940Y1475740D01*
X788320Y1450690D02*
Y1468120D01*
X773320Y1450690D02*
Y1450848D01*
X690607Y1441431D02*
X700024Y1450848D01*
X690607Y1382067D02*
Y1441431D01*
X664101Y1355562D02*
X690607Y1382067D01*
X664101Y1308209D02*
X674850D01*
X930649Y1339215D02*
Y1339342D01*
X944880D01*
X958342Y1325880D01*
Y1284478D02*
Y1325880D01*
X930358Y1256494D02*
X958342Y1284478D01*
X930358Y1251173D02*
Y1256494D01*
X928797Y1249612D02*
X930358Y1251173D01*
X928797Y1223305D02*
Y1249612D01*
Y1223305D02*
X931164Y1220938D01*
X944816D01*
X673862Y1138936D02*
X688594Y1124204D01*
X767484D01*
X772341Y1119347D01*
X870187D01*
X888760Y1137920D01*
Y1177290D01*
X696976Y1295908D02*
Y1306573D01*
X682350Y1321199D02*
X696976Y1306573D01*
X803320Y1435018D02*
Y1450690D01*
X800100Y1431798D02*
X803320Y1435018D01*
X760984Y1431798D02*
X800100D01*
X748792Y1443990D02*
X760984Y1431798D01*
X725170Y1443990D02*
X748792D01*
X695687Y1414507D02*
X725170Y1443990D01*
X695687Y1379963D02*
Y1414507D01*
X679958Y1364234D02*
X695687Y1379963D01*
X679958Y1344081D02*
Y1364234D01*
Y1344081D02*
X689850Y1334189D01*
X878840Y1305560D02*
Y1313942D01*
X867410Y1325372D02*
X878840Y1313942D01*
X867410Y1325372D02*
Y1361440D01*
X873760Y1367790D01*
X901954D01*
X905764Y1363980D01*
X905750Y1359481D02*
X905764D01*
X920750Y1333500D02*
X928114Y1337752D01*
Y1344422D01*
X934212Y1350520D01*
Y1363726D01*
X919988Y1377950D02*
X934212Y1363726D01*
X919988Y1377950D02*
Y1391412D01*
X878840Y1432560D02*
X919988Y1391412D01*
X803320Y1450690D02*
Y1469644D01*
X841756D01*
X878840Y1432560D01*
D17*
X773320Y1450690D02*
D03*
X788320D02*
D03*
X803320D02*
D03*
X818320D02*
D03*
X833320D02*
D03*
X774700Y1177290D02*
D03*
X759700D02*
D03*
X744700D02*
D03*
X729700D02*
D03*
X714700D02*
D03*
X888760D02*
D03*
X873760D02*
D03*
X858760D02*
D03*
X843760D02*
D03*
X828760D02*
D03*
D26*
X760820Y1489710D02*
D03*
X845820D02*
D03*
X787200Y1138270D02*
D03*
X702200D02*
D03*
X901260D02*
D03*
X816260D02*
D03*
D28*
X730340Y1330960D02*
D03*
Y1356360D02*
D03*
Y1381760D02*
D03*
Y1407160D02*
D03*
Y1432560D02*
D03*
X878840Y1203960D02*
D03*
Y1229360D02*
D03*
Y1254760D02*
D03*
Y1280160D02*
D03*
Y1305560D02*
D03*
Y1330960D02*
D03*
Y1356360D02*
D03*
Y1381760D02*
D03*
Y1407160D02*
D03*
X730340Y1305560D02*
D03*
Y1280160D02*
D03*
Y1254760D02*
D03*
Y1203960D02*
D03*
D29*
X878840Y1432560D02*
D03*
X730340Y1229360D02*
D03*
D30*
X857250Y1152906D02*
D03*
X969264Y1231138D02*
D03*
X713740Y1271270D02*
D03*
X874110Y1146906D02*
D03*
X833320Y1422908D02*
D03*
X915162Y1293114D02*
D03*
X666242Y1278890D02*
D03*
X774900Y1240790D02*
D03*
X713740Y1229106D02*
D03*
X772160Y1148334D02*
D03*
X837438Y1215390D02*
D03*
X695960Y1189322D02*
D03*
X802640Y1181100D02*
D03*
X919988Y1259840D02*
D03*
X860806Y1475740D02*
D03*
X696976Y1295908D02*
D03*
D31*
X990622Y1256016D02*
D03*
X975862Y1172308D02*
D03*
D32*
X950024Y1250482D02*
D03*
X947420Y1235710D02*
D03*
X944816Y1220938D02*
D03*
X942210Y1206166D02*
D03*
X939606Y1191394D02*
D03*
D33*
X933292Y1389816D02*
D03*
X975792Y1316204D02*
D03*
D34*
X905750Y1359481D02*
D03*
X913250Y1346491D02*
D03*
X920750Y1333500D02*
D03*
X928250Y1320509D02*
D03*
X935750Y1307519D02*
D03*
D35*
X632022Y1170236D02*
D03*
X617262Y1253944D02*
D03*
D36*
X668279Y1189322D02*
D03*
X665674Y1204094D02*
D03*
X663070Y1218866D02*
D03*
X660464Y1233638D02*
D03*
X657860Y1248410D02*
D03*
D37*
X634808Y1316893D02*
D03*
X677308Y1390505D02*
D03*
D38*
X674850Y1308209D02*
D03*
X682350Y1321199D02*
D03*
X689850Y1334189D02*
D03*
X697350Y1347179D02*
D03*
X704850Y1360170D02*
D03*
M02*
