G04*
G04 #@! TF.GenerationSoftware,Altium Limited,Altium Designer,21.6.4 (81)*
G04*
G04 Layer_Physical_Order=2*
G04 Layer_Color=16711680*
%FSLAX44Y44*%
%MOMM*%
G71*
G04*
G04 #@! TF.SameCoordinates,42E99185-249E-4A08-A5EB-3BBFC5BDC6E3*
G04*
G04*
G04 #@! TF.FilePolarity,Positive*
G04*
G01*
G75*
%ADD12C,0.1524*%
%ADD16R,2.9972X0.7112*%
%ADD29R,2.0066X1.1938*%
%ADD34C,0.9910*%
G04:AMPARAMS|DCode=35|XSize=1.147mm|YSize=2.667mm|CornerRadius=0.5735mm|HoleSize=0mm|Usage=FLASHONLY|Rotation=0.000|XOffset=0mm|YOffset=0mm|HoleType=Round|Shape=RoundedRectangle|*
%AMROUNDEDRECTD35*
21,1,1.1470,1.5200,0,0,0.0*
21,1,0.0000,2.6670,0,0,0.0*
1,1,1.1470,0.0000,-0.7600*
1,1,1.1470,0.0000,-0.7600*
1,1,1.1470,0.0000,0.7600*
1,1,1.1470,0.0000,0.7600*
%
%ADD35ROUNDEDRECTD35*%
%ADD36C,0.5080*%
%ADD37C,0.7870*%
%ADD38R,1.3082X1.0057*%
%ADD39R,1.4500X1.1500*%
%ADD40R,1.9000X0.4000*%
%ADD41R,1.3335X0.4318*%
D12*
X180566Y63450D02*
X193900D01*
X173736D02*
X180566D01*
X207264Y33020D02*
X212344Y38100D01*
X194310Y33020D02*
X207264D01*
X208026D01*
X149987Y78994D02*
X184150D01*
X144068D02*
X149987D01*
X150177Y78804D01*
X143256Y85725D02*
X149987Y78994D01*
X93690Y59617D02*
X102886D01*
X258318Y84328D02*
Y90297D01*
X99060Y35226D02*
Y39878D01*
Y21590D02*
Y35226D01*
X244348Y88646D02*
Y93500D01*
X250317Y72390D02*
Y82677D01*
Y67945D02*
Y72390D01*
X253238D01*
X209296D02*
X250317D01*
X212104Y78500D02*
X214870D01*
X18231Y102743D02*
X57658D01*
X11275Y95786D02*
X18231Y102743D01*
X11275Y85245D02*
Y95786D01*
Y85245D02*
X17018Y79502D01*
Y50800D02*
Y79502D01*
Y50800D02*
X20320Y47498D01*
X61085D01*
X62101Y48514D01*
X81355D01*
X82169Y47700D01*
X100419D01*
X107746Y55027D01*
X126557D01*
X142142Y70612D01*
X166574D01*
X173736Y63450D01*
Y70279D02*
X180566Y63450D01*
X159004Y100076D02*
X159460Y99620D01*
X169482D01*
Y112620D02*
X179070D01*
X179324Y89916D01*
X176276Y86868D02*
X179324Y89916D01*
X80010Y27940D02*
Y33274D01*
X72644Y40640D02*
X80010Y33274D01*
X70104Y40640D02*
X72644D01*
X186106Y80950D02*
X193900D01*
X184150Y78994D02*
X186106Y80950D01*
X127304Y62230D02*
X144068Y78994D01*
X105499Y62230D02*
X127304D01*
X102886Y59617D02*
X105499Y62230D01*
X93690Y59617D02*
Y63500D01*
X148506Y106120D02*
X169482D01*
X143256Y100870D02*
X148506Y106120D01*
X143256Y85725D02*
Y100870D01*
X150177Y78804D02*
X184150Y78994D01*
X193900Y80950D01*
X23563Y91254D02*
X26670Y94361D01*
X34485D01*
X45788Y83058D01*
X79248D01*
X81280Y85090D01*
Y96901D01*
X91985Y107606D01*
X106971D01*
X110490Y111125D01*
Y114554D01*
X250825Y48500D02*
X258318Y55993D01*
Y84328D01*
X249174Y93472D02*
X258318Y84328D01*
X115570Y112620D02*
X125159D01*
X115316Y76708D02*
X115570Y112620D01*
X115316Y76708D02*
X121666Y70358D01*
X84836Y35814D02*
X92710Y27940D01*
X229870Y114554D02*
X241046D01*
X261366Y94234D01*
Y43250D02*
Y94234D01*
X251616Y33500D02*
X261366Y43250D01*
X229870Y33500D02*
X251616D01*
X12192Y46355D02*
Y57658D01*
Y46355D02*
X54483Y4064D01*
X77216D01*
X78486Y5334D01*
X160274Y63754D02*
X162306Y65786D01*
X145288Y63754D02*
X160274D01*
X131064Y49530D02*
X145288Y63754D01*
X113364Y49530D02*
X131064D01*
X99060Y35226D02*
X113364Y49530D01*
X92710Y15240D02*
X99060Y21590D01*
X126492Y65786D02*
Y78232D01*
X126238Y65532D02*
X126492Y65786D01*
X116332Y65532D02*
X126238D01*
X116078Y65786D02*
X116332Y65532D01*
X116078Y65786D02*
Y71501D01*
X95123Y92456D02*
X116078Y71501D01*
X173992Y21020D02*
X194310D01*
X172400Y19428D02*
X173992Y21020D01*
X148063Y19428D02*
X172400D01*
X126089Y41402D02*
X148063Y19428D01*
X117602Y41402D02*
X126089D01*
X145928Y45020D02*
X194310D01*
X142748Y48200D02*
X145928Y45020D01*
X253238Y72390D02*
X253492Y72136D01*
X204216Y67310D02*
X209296Y72390D01*
X204216Y53975D02*
Y67310D01*
X200787Y50546D02*
X204216Y53975D01*
X171196Y50546D02*
X200787D01*
X167234Y54508D02*
X171196Y50546D01*
X250317Y67945D02*
X253492Y64770D01*
X244348Y88646D02*
X250317Y82677D01*
X229870Y93500D02*
X244348D01*
X210820Y77216D02*
X212104Y78500D01*
X68146Y87683D02*
Y88138D01*
Y87683D02*
X69215Y86614D01*
X69723D01*
X78105Y94996D01*
Y106680D01*
X85725Y114300D01*
X103886D01*
X60452Y88138D02*
X75057Y102743D01*
Y111601D01*
X85122Y121666D01*
X117094D01*
X117348Y33909D02*
X130683Y20574D01*
X137801D01*
X141995Y16380D01*
X242440D01*
X281432Y55372D01*
Y114046D01*
X274828Y120650D02*
X281432Y114046D01*
X228390Y120650D02*
X274828D01*
X219202Y111462D02*
X228390Y120650D01*
X193900Y111462D02*
X219202D01*
X87630Y80518D02*
X100076D01*
X84074Y76962D02*
X87630Y80518D01*
X33274Y76962D02*
X84074D01*
X25118Y85118D02*
X33274Y76962D01*
X21943Y85118D02*
X25118D01*
X16101Y90960D02*
X21943Y85118D01*
X5080Y105156D02*
X13208Y113284D01*
X48514D01*
X57912Y23876D02*
Y39116D01*
X64262Y45466D01*
X73152D01*
X74930Y43688D01*
X95250D01*
X99060Y39878D01*
X4700Y41391D02*
Y56768D01*
Y41391D02*
X12206Y33885D01*
X115316Y112366D02*
X115570Y112620D01*
X115316Y101600D02*
Y112366D01*
X112522Y98806D02*
X115316Y101600D01*
X88392Y98806D02*
X112522D01*
X84328Y94742D02*
X88392Y98806D01*
X84328Y82804D02*
Y94742D01*
X81534Y80010D02*
X84328Y82804D01*
X41021Y80010D02*
X81534D01*
X31496Y89535D02*
X41021Y80010D01*
X23622Y42672D02*
X56134Y10160D01*
X175324Y56201D02*
X176911D01*
X170688Y60837D02*
X175324Y56201D01*
X165100Y60837D02*
X170688D01*
X163576Y59313D02*
X165100Y60837D01*
X147013Y59313D02*
X163576D01*
X134095Y46395D02*
X147013Y59313D01*
X114540Y46395D02*
X134095D01*
X105410Y37265D02*
X114540Y46395D01*
X105410Y27940D02*
Y37265D01*
X209296Y5842D02*
X212852Y9398D01*
X86995Y5842D02*
X209296D01*
X83312Y9525D02*
X86995Y5842D01*
X83312Y9525D02*
Y11938D01*
X80010Y15240D02*
X83312Y11938D01*
X80010Y27940D02*
X86360Y21590D01*
Y12700D02*
Y21590D01*
Y12700D02*
X90170Y8890D01*
X125730D01*
X129540Y12700D01*
X141986Y11430D02*
X180400D01*
X135890Y17526D02*
X141986Y11430D01*
X124968Y17526D02*
X135890D01*
X120904Y13462D02*
X124968Y17526D01*
X107188Y13462D02*
X120904D01*
X105410Y15240D02*
X107188Y13462D01*
X148209Y95123D02*
X161290Y82042D01*
X182537D01*
X184150Y83655D01*
Y88900D01*
X184404Y89154D01*
X204216D01*
X214870Y78500D01*
X229870D01*
X8227Y61623D02*
X12192Y57658D01*
X8227Y61623D02*
Y99540D01*
X15875Y107188D01*
X52832D01*
X56896Y111252D01*
X61722D01*
X67056Y105918D01*
X212598Y63500D02*
X229870D01*
X212344Y63246D02*
X212598Y63500D01*
X212344Y38100D02*
Y63246D01*
X229870Y23876D02*
Y33500D01*
X229616Y23622D02*
X229870Y23876D01*
X217913Y23622D02*
X229616D01*
X184658Y96938D02*
X193900D01*
X184404Y97192D02*
X184658Y96938D01*
X184404Y97192D02*
Y115189D01*
X180975Y118618D02*
X184404Y115189D01*
X135792Y118618D02*
X180975D01*
X129794Y112620D02*
X135792Y118618D01*
X125159Y112620D02*
X129794D01*
X176022Y33020D02*
X194310D01*
X167386Y24384D02*
X176022Y33020D01*
X229870Y48500D02*
X250825D01*
X245999Y102616D02*
X258318Y90297D01*
X207608Y102616D02*
X245999D01*
X201930Y96938D02*
X207608Y102616D01*
X193900Y96938D02*
X201930D01*
X159864Y93120D02*
X169482D01*
X159512Y93472D02*
X159864Y93120D01*
D16*
X229870Y33500D02*
D03*
Y48500D02*
D03*
Y63500D02*
D03*
Y78500D02*
D03*
Y93500D02*
D03*
D29*
X268890Y21000D02*
D03*
Y106000D02*
D03*
D34*
X118110Y21590D02*
D03*
X67310Y11430D02*
D03*
Y31750D02*
D03*
D35*
X25690Y63500D02*
D03*
X93690D02*
D03*
D36*
X57658Y102743D02*
D03*
X173736Y70279D02*
D03*
X159004Y100076D02*
D03*
X176276Y86868D02*
D03*
X208026Y33020D02*
D03*
X70104Y40640D02*
D03*
X23563Y91254D02*
D03*
X110490Y114554D02*
D03*
X249174Y93472D02*
D03*
X121666Y70358D02*
D03*
X84836Y35814D02*
D03*
X229870Y114554D02*
D03*
X78486Y5334D02*
D03*
X162306Y65786D02*
D03*
X126492Y78232D02*
D03*
X95123Y92456D02*
D03*
X117602Y41402D02*
D03*
X142748Y48200D02*
D03*
X253492Y72136D02*
D03*
X167234Y54508D02*
D03*
X253492Y64770D02*
D03*
X210820Y77216D02*
D03*
X68146Y88138D02*
D03*
X103886Y114300D02*
D03*
X60452Y88138D02*
D03*
X117094Y121666D02*
D03*
X117348Y33909D02*
D03*
X100076Y80518D02*
D03*
X16101Y90960D02*
D03*
X5080Y105156D02*
D03*
X48514Y113284D02*
D03*
X57912Y23876D02*
D03*
X4700Y56768D02*
D03*
X12206Y33885D02*
D03*
X31496Y89535D02*
D03*
X23622Y42672D02*
D03*
X56134Y10160D02*
D03*
X176911Y56201D02*
D03*
X212852Y9398D02*
D03*
X129540Y12700D02*
D03*
X180400Y11430D02*
D03*
X148209Y95123D02*
D03*
X12192Y57658D02*
D03*
X67056Y105918D02*
D03*
X217913Y23622D02*
D03*
X167386Y24384D02*
D03*
X159512Y93472D02*
D03*
D37*
X105410Y15240D02*
D03*
Y27940D02*
D03*
X92710Y15240D02*
D03*
Y27940D02*
D03*
X80010D02*
D03*
Y15240D02*
D03*
D38*
X193900Y111462D02*
D03*
Y96938D02*
D03*
D39*
Y63450D02*
D03*
Y80950D02*
D03*
D40*
X194310Y21020D02*
D03*
Y33020D02*
D03*
Y45020D02*
D03*
D41*
X169482Y112620D02*
D03*
Y106120D02*
D03*
Y99620D02*
D03*
Y93120D02*
D03*
X125159D02*
D03*
Y99620D02*
D03*
Y106120D02*
D03*
Y112620D02*
D03*
M02*
