G04*
G04 #@! TF.GenerationSoftware,Altium Limited,Altium Designer,21.6.4 (81)*
G04*
G04 Layer_Color=16711935*
%FSLAX44Y44*%
%MOMM*%
G71*
G04*
G04 #@! TF.SameCoordinates,886655C1-92EC-40BA-A99E-831138A1A13E*
G04*
G04*
G04 #@! TF.FilePolarity,Negative*
G04*
G01*
G75*
%ADD17R,2.2098X1.3970*%
%ADD18R,2.9972X0.7112*%
%ADD31C,1.7272*%
%ADD32C,0.2032*%
G04:AMPARAMS|DCode=33|XSize=1.8232mm|YSize=3.3432mm|CornerRadius=0.9116mm|HoleSize=0mm|Usage=FLASHONLY|Rotation=180.000|XOffset=0mm|YOffset=0mm|HoleType=Round|Shape=RoundedRectangle|*
%AMROUNDEDRECTD33*
21,1,1.8232,1.5200,0,0,180.0*
21,1,0.0000,3.3432,0,0,180.0*
1,1,1.8232,0.0000,0.7600*
1,1,1.8232,0.0000,0.7600*
1,1,1.8232,0.0000,-0.7600*
1,1,1.8232,0.0000,-0.7600*
%
%ADD33ROUNDEDRECTD33*%
%ADD34C,1.4224*%
%ADD48C,0.9902*%
D17*
X272446Y31400D02*
D03*
Y116400D02*
D03*
D18*
X233426Y43900D02*
D03*
Y58900D02*
D03*
Y73900D02*
D03*
Y88900D02*
D03*
Y103900D02*
D03*
D31*
X11430Y140716D02*
D03*
Y120716D02*
D03*
D32*
X168402Y30734D02*
D03*
D33*
X129902D02*
D03*
X206902D02*
D03*
D34*
X35306Y33274D02*
D03*
Y12954D02*
D03*
X86106Y23114D02*
D03*
D48*
X48006Y16764D02*
D03*
Y29464D02*
D03*
X60706D02*
D03*
Y16764D02*
D03*
X73406Y29464D02*
D03*
Y16764D02*
D03*
M02*
