G04*
G04 #@! TF.GenerationSoftware,Altium Limited,Altium Designer,21.6.4 (81)*
G04*
G04 Layer_Color=8388736*
%FSLAX44Y44*%
%MOMM*%
G71*
G04*
G04 #@! TF.SameCoordinates,886655C1-92EC-40BA-A99E-831138A1A13E*
G04*
G04*
G04 #@! TF.FilePolarity,Negative*
G04*
G01*
G75*
%ADD15O,0.7532X1.5532*%
%ADD16O,1.5532X0.7532*%
%ADD17R,2.2098X1.3970*%
%ADD18R,2.9972X0.7112*%
G04:AMPARAMS|DCode=19|XSize=0.7532mm|YSize=2.0032mm|CornerRadius=0mm|HoleSize=0mm|Usage=FLASHONLY|Rotation=315.000|XOffset=0mm|YOffset=0mm|HoleType=Round|Shape=Rectangle|*
%AMROTATEDRECTD19*
4,1,4,-0.9745,-0.4419,0.4419,0.9745,0.9745,0.4419,-0.4419,-0.9745,-0.9745,-0.4419,0.0*
%
%ADD19ROTATEDRECTD19*%

%ADD20R,0.8000X0.5500*%
%ADD21R,1.3532X1.6532*%
%ADD22R,0.5000X0.4000*%
%ADD23R,0.4000X0.5000*%
%ADD24R,0.6350X0.2500*%
%ADD25R,1.0000X1.7000*%
G04:AMPARAMS|DCode=26|XSize=0.7532mm|YSize=2.0032mm|CornerRadius=0mm|HoleSize=0mm|Usage=FLASHONLY|Rotation=45.000|XOffset=0mm|YOffset=0mm|HoleType=Round|Shape=Rectangle|*
%AMROTATEDRECTD26*
4,1,4,0.4419,-0.9745,-0.9745,0.4419,-0.4419,0.9745,0.9745,-0.4419,0.4419,-0.9745,0.0*
%
%ADD26ROTATEDRECTD26*%

%ADD27R,1.2032X1.3032*%
%ADD28R,1.9000X0.4000*%
%ADD29R,1.3082X1.0057*%
%ADD30R,0.2500X0.3000*%
%ADD31C,1.7272*%
%ADD32C,0.2032*%
G04:AMPARAMS|DCode=33|XSize=1.8232mm|YSize=3.3432mm|CornerRadius=0.9116mm|HoleSize=0mm|Usage=FLASHONLY|Rotation=180.000|XOffset=0mm|YOffset=0mm|HoleType=Round|Shape=RoundedRectangle|*
%AMROUNDEDRECTD33*
21,1,1.8232,1.5200,0,0,180.0*
21,1,0.0000,3.3432,0,0,180.0*
1,1,1.8232,0.0000,0.7600*
1,1,1.8232,0.0000,0.7600*
1,1,1.8232,0.0000,-0.7600*
1,1,1.8232,0.0000,-0.7600*
%
%ADD33ROUNDEDRECTD33*%
%ADD34C,1.4224*%
D15*
X42358Y144370D02*
D03*
X50358D02*
D03*
X58358D02*
D03*
X66358D02*
D03*
X74358D02*
D03*
X82358D02*
D03*
X90358D02*
D03*
X98358D02*
D03*
Y61370D02*
D03*
X90358D02*
D03*
X82358D02*
D03*
X74358D02*
D03*
X66358D02*
D03*
X58358D02*
D03*
X50358D02*
D03*
X42358D02*
D03*
D16*
X111858Y122870D02*
D03*
Y114870D02*
D03*
Y106870D02*
D03*
Y98870D02*
D03*
Y90870D02*
D03*
Y82870D02*
D03*
Y74870D02*
D03*
X28858D02*
D03*
Y82870D02*
D03*
Y90870D02*
D03*
Y98870D02*
D03*
Y106870D02*
D03*
Y114870D02*
D03*
Y122870D02*
D03*
Y130870D02*
D03*
X111858D02*
D03*
D17*
X272446Y31414D02*
D03*
Y116414D02*
D03*
D18*
X233426Y43914D02*
D03*
Y58914D02*
D03*
Y73914D02*
D03*
Y88914D02*
D03*
Y103914D02*
D03*
D19*
X180086Y67056D02*
D03*
X190339Y90744D02*
D03*
X203774Y77309D02*
D03*
D20*
X161798Y149810D02*
D03*
X185798D02*
D03*
X161798Y140310D02*
D03*
Y130810D02*
D03*
X185798D02*
D03*
D21*
X201054Y119634D02*
D03*
X218554D02*
D03*
D22*
X129032Y99632D02*
D03*
Y107632D02*
D03*
X112840Y56198D02*
D03*
Y64198D02*
D03*
X184404Y108014D02*
D03*
Y116014D02*
D03*
X218186Y138240D02*
D03*
Y146240D02*
D03*
X10668Y78358D02*
D03*
Y70358D02*
D03*
D23*
X132588Y122174D02*
D03*
X124588D02*
D03*
X204152Y144526D02*
D03*
X196152D02*
D03*
D24*
X147567Y107428D02*
D03*
X168917D02*
D03*
X147567Y112428D02*
D03*
Y117428D02*
D03*
Y122428D02*
D03*
X168917Y112428D02*
D03*
Y117428D02*
D03*
Y122428D02*
D03*
D25*
X158242Y114808D02*
D03*
D26*
X156464Y67056D02*
D03*
X132776Y77309D02*
D03*
X146211Y90744D02*
D03*
D27*
X133208Y143510D02*
D03*
X147208D02*
D03*
D28*
X12954Y58798D02*
D03*
Y46798D02*
D03*
Y34798D02*
D03*
D29*
X10668Y88900D02*
D03*
Y103425D02*
D03*
D30*
X110840Y144272D02*
D03*
X116840D02*
D03*
D31*
X11430Y140716D02*
D03*
Y120716D02*
D03*
D32*
X168402Y30734D02*
D03*
D33*
X129902D02*
D03*
X206902D02*
D03*
D34*
X35306Y33274D02*
D03*
Y12954D02*
D03*
X86106Y23114D02*
D03*
M02*
