G04*
G04 #@! TF.GenerationSoftware,Altium Limited,Altium Designer,21.6.4 (81)*
G04*
G04 Layer_Physical_Order=2*
G04 Layer_Color=16711680*
%FSLAX44Y44*%
%MOMM*%
G71*
G04*
G04 #@! TF.SameCoordinates,DF212875-D8BF-4E07-B13E-23ADC2DC1FEB*
G04*
G04*
G04 #@! TF.FilePolarity,Positive*
G04*
G01*
G75*
%ADD17R,0.7112X2.9972*%
%ADD23R,1.1938X2.0066*%
%ADD24C,0.3556*%
%ADD25C,1.5240*%
%ADD26R,1.5240X1.5240*%
%ADD27C,1.7000*%
%ADD28R,1.7000X1.7000*%
%ADD29C,3.0000*%
%ADD30C,1.2700*%
%ADD31C,0.3556*%
G04:AMPARAMS|DCode=32|XSize=0.7112mm|YSize=2.9972mm|CornerRadius=0mm|HoleSize=0mm|Usage=FLASHONLY|Rotation=240.000|XOffset=0mm|YOffset=0mm|HoleType=Round|Shape=Rectangle|*
%AMROTATEDRECTD32*
4,1,4,-1.1200,1.0573,1.4756,-0.4413,1.1200,-1.0573,-1.4756,0.4413,-1.1200,1.0573,0.0*
%
%ADD32ROTATEDRECTD32*%

G04:AMPARAMS|DCode=33|XSize=2.0066mm|YSize=1.1938mm|CornerRadius=0mm|HoleSize=0mm|Usage=FLASHONLY|Rotation=150.000|XOffset=0mm|YOffset=0mm|HoleType=Round|Shape=Rectangle|*
%AMROTATEDRECTD33*
4,1,4,1.1673,0.0153,0.5704,-1.0186,-1.1673,-0.0153,-0.5704,1.0186,1.1673,0.0153,0.0*
%
%ADD33ROTATEDRECTD33*%

G04:AMPARAMS|DCode=34|XSize=0.7112mm|YSize=2.9972mm|CornerRadius=0mm|HoleSize=0mm|Usage=FLASHONLY|Rotation=280.000|XOffset=0mm|YOffset=0mm|HoleType=Round|Shape=Rectangle|*
%AMROTATEDRECTD34*
4,1,4,-1.5376,0.0900,1.4141,0.6104,1.5376,-0.0900,-1.4141,-0.6104,-1.5376,0.0900,0.0*
%
%ADD34ROTATEDRECTD34*%

G04:AMPARAMS|DCode=35|XSize=2.0066mm|YSize=1.1938mm|CornerRadius=0mm|HoleSize=0mm|Usage=FLASHONLY|Rotation=190.000|XOffset=0mm|YOffset=0mm|HoleType=Round|Shape=Rectangle|*
%AMROTATEDRECTD35*
4,1,4,0.8844,0.7621,1.0917,-0.4136,-0.8844,-0.7621,-1.0917,0.4136,0.8844,0.7621,0.0*
%
%ADD35ROTATEDRECTD35*%

G04:AMPARAMS|DCode=36|XSize=2.0066mm|YSize=1.1938mm|CornerRadius=0mm|HoleSize=0mm|Usage=FLASHONLY|Rotation=30.000|XOffset=0mm|YOffset=0mm|HoleType=Round|Shape=Rectangle|*
%AMROTATEDRECTD36*
4,1,4,-0.5704,-1.0186,-1.1673,0.0153,0.5704,1.0186,1.1673,-0.0153,-0.5704,-1.0186,0.0*
%
%ADD36ROTATEDRECTD36*%

G04:AMPARAMS|DCode=37|XSize=0.7112mm|YSize=2.9972mm|CornerRadius=0mm|HoleSize=0mm|Usage=FLASHONLY|Rotation=120.000|XOffset=0mm|YOffset=0mm|HoleType=Round|Shape=Rectangle|*
%AMROTATEDRECTD37*
4,1,4,1.4756,0.4413,-1.1200,-1.0573,-1.4756,-0.4413,1.1200,1.0573,1.4756,0.4413,0.0*
%
%ADD37ROTATEDRECTD37*%

G04:AMPARAMS|DCode=38|XSize=0.7112mm|YSize=2.9972mm|CornerRadius=0mm|HoleSize=0mm|Usage=FLASHONLY|Rotation=80.000|XOffset=0mm|YOffset=0mm|HoleType=Round|Shape=Rectangle|*
%AMROTATEDRECTD38*
4,1,4,1.4141,-0.6104,-1.5376,-0.0900,-1.4141,0.6104,1.5376,0.0900,1.4141,-0.6104,0.0*
%
%ADD38ROTATEDRECTD38*%

G04:AMPARAMS|DCode=39|XSize=2.0066mm|YSize=1.1938mm|CornerRadius=0mm|HoleSize=0mm|Usage=FLASHONLY|Rotation=350.000|XOffset=0mm|YOffset=0mm|HoleType=Round|Shape=Rectangle|*
%AMROTATEDRECTD39*
4,1,4,-1.0917,-0.4136,-0.8844,0.7621,1.0917,0.4136,0.8844,-0.7621,-1.0917,-0.4136,0.0*
%
%ADD39ROTATEDRECTD39*%

%ADD40R,0.6604X1.5494*%
%ADD41R,1.2954X1.9050*%
G36*
X808553Y1539691D02*
X814257Y1538322D01*
X819677Y1536077D01*
X823031Y1534021D01*
X823031Y1534021D01*
X823031Y1534021D01*
X823117Y1534040D01*
X888540Y1491493D01*
X888540Y1491492D01*
X888506Y1491440D01*
X890154Y1490430D01*
X894615Y1486620D01*
X898425Y1482160D01*
X900467Y1478827D01*
X900522Y1478858D01*
X940525Y1409572D01*
X939717Y1408430D01*
X918149Y1395978D01*
X926658Y1381240D01*
X948226Y1393692D01*
X948436Y1393813D01*
X949618Y1393821D01*
X983024Y1335960D01*
X982217Y1334819D01*
X967401Y1326264D01*
X966301Y1326900D01*
Y1355598D01*
X965965Y1357283D01*
X965011Y1358711D01*
X955105Y1368617D01*
X953677Y1369572D01*
X951992Y1369907D01*
X922901D01*
X917880Y1378603D01*
X887524Y1361077D01*
X888537Y1359323D01*
X887902Y1358223D01*
X884167D01*
X883641Y1359493D01*
X884430Y1360282D01*
X885768Y1362598D01*
X886460Y1365182D01*
Y1367858D01*
X885768Y1370442D01*
X884430Y1372758D01*
X882538Y1374650D01*
X880222Y1375988D01*
X877638Y1376680D01*
X874962D01*
X872378Y1375988D01*
X870062Y1374650D01*
X868170Y1372758D01*
X866832Y1370442D01*
X866140Y1367858D01*
Y1365182D01*
X866832Y1362598D01*
X868170Y1360282D01*
X869542Y1358910D01*
X869500Y1357439D01*
X869419Y1357300D01*
X868869Y1356933D01*
X861249Y1349313D01*
X860294Y1347885D01*
X859959Y1346200D01*
Y1327658D01*
X860294Y1325973D01*
X861249Y1324545D01*
X866689Y1319105D01*
X866140Y1317058D01*
Y1314382D01*
X866689Y1312335D01*
X810957Y1256603D01*
X810003Y1255175D01*
X809667Y1253490D01*
Y1241781D01*
X808397Y1241255D01*
X807845Y1241808D01*
X806789Y1242418D01*
Y1256746D01*
X847663Y1297621D01*
X847663Y1297621D01*
X848617Y1299049D01*
X848953Y1300734D01*
X848953Y1300734D01*
Y1420650D01*
X848617Y1422335D01*
X847663Y1423763D01*
X841276Y1430150D01*
Y1450255D01*
X850543D01*
X851152Y1449199D01*
X852807Y1447544D01*
X854835Y1446374D01*
X857096Y1445768D01*
X859436D01*
X861697Y1446374D01*
X863725Y1447544D01*
X864870Y1448690D01*
X866140Y1448164D01*
Y1443990D01*
X875030D01*
Y1452880D01*
X867622D01*
X867156Y1453488D01*
Y1455828D01*
X866550Y1458089D01*
X865380Y1460117D01*
X863725Y1461772D01*
X861697Y1462942D01*
X859436Y1463548D01*
X857096D01*
X854835Y1462942D01*
X852807Y1461772D01*
X851152Y1460117D01*
X850543Y1459061D01*
X835180D01*
X834755Y1458976D01*
X829084D01*
Y1423924D01*
X835050D01*
X840147Y1418826D01*
Y1412027D01*
X838974Y1411541D01*
X826276Y1424239D01*
Y1458976D01*
X824582D01*
Y1459089D01*
X824247Y1460774D01*
X823293Y1462202D01*
X819088Y1466407D01*
X817660Y1467361D01*
X815975Y1467697D01*
X772376D01*
X771189Y1467897D01*
X771189Y1468967D01*
Y1493043D01*
X754171D01*
Y1467897D01*
X763657D01*
X764042Y1466627D01*
X763713Y1466407D01*
X739230Y1441924D01*
X737960Y1442450D01*
Y1444058D01*
X737268Y1446642D01*
X735930Y1448958D01*
X734038Y1450850D01*
X731721Y1452188D01*
X729137Y1452880D01*
X726462D01*
X723878Y1452188D01*
X721562Y1450850D01*
X719670Y1448958D01*
X718332Y1446642D01*
X717640Y1444058D01*
Y1441382D01*
X718332Y1438798D01*
X719670Y1436482D01*
X721562Y1434590D01*
X723878Y1433252D01*
X726462Y1432560D01*
X729137D01*
X731721Y1433252D01*
X734038Y1434590D01*
X735930Y1436482D01*
X736007Y1436616D01*
X737277Y1436275D01*
Y1423764D01*
X736007Y1423424D01*
X735930Y1423558D01*
X734038Y1425450D01*
X731721Y1426788D01*
X729137Y1427480D01*
X726462D01*
X723878Y1426788D01*
X721562Y1425450D01*
X719670Y1423558D01*
X718332Y1421242D01*
X717640Y1418658D01*
Y1415982D01*
X718332Y1413398D01*
X719670Y1411082D01*
X719794Y1410958D01*
X719308Y1409785D01*
X718312D01*
X716627Y1409449D01*
X715199Y1408495D01*
X715199Y1408495D01*
X708106Y1401403D01*
X700387D01*
X698702Y1401068D01*
X697273Y1400113D01*
X695495Y1398335D01*
X695175Y1397856D01*
X694796Y1397423D01*
X676643Y1365982D01*
X676550Y1365707D01*
X676388Y1365466D01*
X676276Y1364901D01*
X676091Y1364356D01*
X676110Y1364066D01*
X676053Y1363781D01*
Y1358559D01*
X676388Y1356874D01*
X677333Y1355460D01*
Y1354817D01*
X673804Y1348704D01*
X704160Y1331178D01*
X710256Y1341736D01*
X686559Y1355418D01*
X686139Y1355838D01*
Y1357279D01*
X686103Y1357457D01*
X687236Y1358269D01*
X711660Y1344168D01*
X715131Y1350179D01*
X720739D01*
X721221Y1348909D01*
X719670Y1347358D01*
X718332Y1345042D01*
X717640Y1342458D01*
Y1339782D01*
X718332Y1337198D01*
X719670Y1334882D01*
X721562Y1332990D01*
X723878Y1331652D01*
X726462Y1330960D01*
X729137D01*
X731721Y1331652D01*
X734038Y1332990D01*
X735930Y1334882D01*
X737268Y1337198D01*
X737960Y1339782D01*
Y1342458D01*
X737268Y1345042D01*
X735930Y1347358D01*
X734379Y1348909D01*
X734861Y1350179D01*
X739140D01*
X740825Y1350515D01*
X741084Y1350687D01*
X795528D01*
Y1344803D01*
X796967D01*
Y1333829D01*
X777942Y1314804D01*
X776804Y1315461D01*
X777213Y1316990D01*
X769620D01*
Y1309397D01*
X771149Y1309806D01*
X771806Y1308668D01*
X745161Y1282023D01*
X735667D01*
X735141Y1283293D01*
X735930Y1284082D01*
X737268Y1286398D01*
X737960Y1288982D01*
Y1291658D01*
X737268Y1294242D01*
X735930Y1296558D01*
X734379Y1298109D01*
X734861Y1299379D01*
X753872D01*
X755557Y1299715D01*
X756985Y1300669D01*
X766002Y1309686D01*
X767080Y1309397D01*
Y1316990D01*
X759487D01*
X759776Y1315912D01*
X752048Y1308185D01*
X736292D01*
X735806Y1309358D01*
X735930Y1309482D01*
X737268Y1311798D01*
X737960Y1314382D01*
Y1317058D01*
X737268Y1319642D01*
X735930Y1321958D01*
X734038Y1323850D01*
X731721Y1325188D01*
X729137Y1325880D01*
X726462D01*
X723878Y1325188D01*
X721562Y1323850D01*
X719670Y1321958D01*
X718332Y1319642D01*
X717640Y1317058D01*
Y1314382D01*
X718332Y1311798D01*
X719670Y1309482D01*
X719794Y1309358D01*
X719308Y1308185D01*
X714802D01*
X699639Y1323347D01*
X702756Y1328746D01*
X688678Y1336874D01*
X685630Y1331595D01*
X682582Y1326316D01*
X686453Y1324081D01*
X690685Y1319849D01*
X689912Y1318842D01*
X664900Y1333282D01*
X658804Y1322723D01*
X681812Y1309440D01*
X684198Y1307053D01*
X684125Y1306270D01*
X682859Y1305593D01*
X657400Y1320292D01*
X651835Y1310652D01*
X647881D01*
X647881Y1310652D01*
X646197Y1310317D01*
X644768Y1309362D01*
X638824Y1303418D01*
X637807Y1304198D01*
X644631Y1316016D01*
X622854Y1328589D01*
X614345Y1313851D01*
X635340Y1301730D01*
X635573Y1300167D01*
X616756Y1281350D01*
X615801Y1279921D01*
X615466Y1278237D01*
Y1272833D01*
X615402Y1271659D01*
X615402Y1271659D01*
X591401Y1267427D01*
X590205Y1268408D01*
X590332Y1270029D01*
X591702Y1275733D01*
X593947Y1281153D01*
X594969Y1282822D01*
X594969Y1282822D01*
X594946Y1282908D01*
X706093Y1475421D01*
X706093Y1475421D01*
X706148Y1475389D01*
X708191Y1478722D01*
X712001Y1483183D01*
X716461Y1486993D01*
X716551Y1487048D01*
X716694Y1487112D01*
X780963Y1533131D01*
X781013Y1533185D01*
X785732Y1536077D01*
X791152Y1538322D01*
X796856Y1539691D01*
X802704Y1540151D01*
X808553Y1539691D01*
D02*
G37*
G36*
X814084Y1426462D02*
X812910Y1425976D01*
X811361Y1427526D01*
Y1439672D01*
X811276Y1440097D01*
Y1440180D01*
X805180D01*
X799084D01*
Y1423924D01*
X802953D01*
X803845Y1422589D01*
X806967Y1419466D01*
Y1365377D01*
X805596D01*
X805437Y1366173D01*
X804483Y1367601D01*
X803055Y1368555D01*
X801370Y1368891D01*
X797387D01*
Y1392405D01*
X779353D01*
Y1369890D01*
X778083Y1369363D01*
X774023Y1373424D01*
Y1383144D01*
X776543Y1385665D01*
X777497Y1387093D01*
X777833Y1388778D01*
Y1396897D01*
X778889Y1397506D01*
X780544Y1399161D01*
X781329Y1400522D01*
X782795D01*
X782877Y1400381D01*
X784532Y1398726D01*
X786559Y1397555D01*
X788820Y1396950D01*
X791161D01*
X793422Y1397555D01*
X795449Y1398726D01*
X797104Y1400381D01*
X798275Y1402408D01*
X798880Y1404669D01*
Y1407010D01*
X798275Y1409271D01*
X797104Y1411298D01*
X795449Y1412953D01*
X794488Y1413508D01*
Y1423924D01*
X796276D01*
Y1458891D01*
X799084D01*
Y1442720D01*
X805180D01*
X811276D01*
Y1458891D01*
X814084D01*
Y1426462D01*
D02*
G37*
G36*
X833387Y1368275D02*
X834051Y1367280D01*
Y1360598D01*
X832781Y1360258D01*
X832614Y1360549D01*
X830959Y1362204D01*
X828931Y1363374D01*
X826770Y1363953D01*
Y1355090D01*
Y1346227D01*
X828931Y1346806D01*
X830959Y1347976D01*
X832614Y1349631D01*
X832781Y1349922D01*
X834051Y1349581D01*
Y1333292D01*
X781239Y1280479D01*
X780285Y1279051D01*
X779949Y1277366D01*
Y1272496D01*
X739133Y1231680D01*
X737960Y1232166D01*
Y1238250D01*
X729070D01*
Y1229360D01*
X735154D01*
X735640Y1228187D01*
X731185Y1223731D01*
X729137Y1224280D01*
X726462D01*
X724415Y1223731D01*
X719959Y1228187D01*
X720445Y1229360D01*
X726530D01*
Y1238250D01*
X717640D01*
Y1232166D01*
X716467Y1231680D01*
X704243Y1243903D01*
X702815Y1244857D01*
X701130Y1245193D01*
X664720D01*
X663901Y1249837D01*
X631340Y1244095D01*
X630367Y1244912D01*
Y1246775D01*
X655233Y1251160D01*
X687364D01*
X689049Y1251495D01*
X690477Y1252449D01*
X711246Y1273217D01*
X719933D01*
X720459Y1271947D01*
X719670Y1271158D01*
X718332Y1268842D01*
X717640Y1266258D01*
Y1263582D01*
X718332Y1260998D01*
X719670Y1258682D01*
X721562Y1256790D01*
X723878Y1255452D01*
X726462Y1254760D01*
X729137D01*
X731721Y1255452D01*
X734038Y1256790D01*
X735930Y1258682D01*
X737268Y1260998D01*
X737960Y1263582D01*
Y1266258D01*
X737268Y1268842D01*
X735930Y1271158D01*
X735141Y1271947D01*
X735667Y1273217D01*
X746984D01*
X748669Y1273552D01*
X750098Y1274507D01*
X804483Y1328892D01*
X804483Y1328892D01*
X805437Y1330321D01*
X805697Y1331627D01*
X806967Y1331502D01*
Y1324914D01*
X731734Y1249680D01*
X729070D01*
Y1240790D01*
X737960D01*
Y1243454D01*
X814483Y1319977D01*
X815437Y1321405D01*
X815773Y1323090D01*
Y1344803D01*
X817212D01*
Y1349125D01*
X818060Y1349491D01*
X818482Y1349536D01*
X820041Y1347976D01*
X822069Y1346806D01*
X824230Y1346227D01*
Y1355090D01*
Y1363953D01*
X822069Y1363374D01*
X820041Y1362204D01*
X818482Y1360644D01*
X818060Y1360689D01*
X817212Y1361055D01*
Y1365377D01*
X815773D01*
Y1368275D01*
X833387D01*
D02*
G37*
G36*
X957495Y1353774D02*
Y1334622D01*
X956225Y1334096D01*
X942913Y1347408D01*
X941485Y1348362D01*
X939800Y1348698D01*
X935146D01*
X932880Y1352622D01*
X918802Y1344494D01*
X921850Y1339215D01*
X924898Y1333936D01*
X935215Y1339892D01*
X937107D01*
X937518Y1339430D01*
X937266Y1337834D01*
X911869Y1323171D01*
X894842D01*
X893157Y1322836D01*
X891729Y1321881D01*
X887591Y1317743D01*
X886814Y1317795D01*
X886198Y1318034D01*
X885768Y1319642D01*
X884430Y1321958D01*
X882538Y1323850D01*
X880222Y1325188D01*
X877638Y1325880D01*
X874962D01*
X872915Y1325331D01*
X868765Y1329482D01*
Y1332628D01*
X869938Y1333114D01*
X870062Y1332990D01*
X872378Y1331652D01*
X874962Y1330960D01*
X877638D01*
X880222Y1331652D01*
X882538Y1332990D01*
X884430Y1334882D01*
X885490Y1336717D01*
X892302D01*
X893987Y1337052D01*
X895415Y1338007D01*
X898119Y1340711D01*
X899378Y1340545D01*
X901120Y1337528D01*
X931476Y1355054D01*
X928620Y1360002D01*
X929255Y1361101D01*
X950168D01*
X957495Y1353774D01*
D02*
G37*
G36*
X840147Y1325276D02*
Y1302558D01*
X799273Y1261683D01*
X798318Y1260255D01*
X797983Y1258570D01*
Y1242418D01*
X796927Y1241808D01*
X795272Y1240153D01*
X794102Y1238125D01*
X793496Y1235864D01*
Y1233524D01*
X794102Y1231263D01*
X795272Y1229235D01*
X796927Y1227580D01*
X798955Y1226410D01*
X801216Y1225804D01*
X801682D01*
X802168Y1224631D01*
X789944Y1212407D01*
X771107Y1193570D01*
X770242Y1192276D01*
X768124D01*
Y1157224D01*
X773164D01*
X773651Y1156051D01*
X760938Y1143339D01*
X734246D01*
X733537Y1144609D01*
X733901Y1145201D01*
X749949D01*
X751634Y1145536D01*
X753062Y1146491D01*
X762333Y1155762D01*
X763287Y1157190D01*
X763294Y1157224D01*
X765316D01*
Y1192276D01*
X756932D01*
X756445Y1193449D01*
X771463Y1208467D01*
X772418Y1209895D01*
X772753Y1211580D01*
Y1244046D01*
X823152Y1294446D01*
X824230Y1294157D01*
Y1303020D01*
X825500D01*
Y1304290D01*
X834363D01*
X833784Y1306451D01*
X832614Y1308479D01*
X830959Y1310134D01*
X828931Y1311304D01*
X826866Y1311858D01*
X826250Y1313038D01*
X838974Y1325762D01*
X840147Y1325276D01*
D02*
G37*
G36*
X1010901Y1287676D02*
X1010878Y1287590D01*
X1010878Y1287590D01*
X1011900Y1285921D01*
X1014145Y1280501D01*
X1015515Y1274797D01*
X1015820Y1270924D01*
X1015883Y1270927D01*
X1020024Y1192910D01*
X1020027Y1191638D01*
X1020027D01*
X1020182Y1189663D01*
X1019722Y1183815D01*
X1018353Y1178110D01*
X1016108Y1172691D01*
X1013043Y1167689D01*
X1009233Y1163228D01*
X1004772Y1159418D01*
X999876Y1156418D01*
X999730Y1156377D01*
X928963Y1120377D01*
X928856Y1120293D01*
X923583Y1118109D01*
X917879Y1116739D01*
X912173Y1116290D01*
X912031Y1116319D01*
X861447D01*
X860921Y1117589D01*
X861824Y1118491D01*
X862994Y1120519D01*
X863600Y1122780D01*
Y1125120D01*
X863284Y1126298D01*
X876873Y1139887D01*
X877828Y1141315D01*
X878163Y1143000D01*
Y1151043D01*
X908812D01*
X910497Y1151378D01*
X911925Y1152333D01*
X931718Y1172125D01*
X937823D01*
X941139Y1168810D01*
X940613Y1167540D01*
X938273D01*
X934884Y1166866D01*
X931692Y1165544D01*
X928819Y1163624D01*
X926376Y1161181D01*
X924456Y1158308D01*
X923134Y1155117D01*
X922460Y1151728D01*
Y1148273D01*
X923134Y1144884D01*
X924456Y1141692D01*
X926376Y1138819D01*
X928819Y1136376D01*
X931692Y1134456D01*
X934884Y1133134D01*
X938273Y1132460D01*
X941728D01*
X945116Y1133134D01*
X948308Y1134456D01*
X951181Y1136376D01*
X953624Y1138819D01*
X955544Y1141692D01*
X956866Y1144884D01*
X957540Y1148273D01*
Y1151728D01*
X956866Y1155117D01*
X955544Y1158308D01*
X953624Y1161181D01*
X952508Y1162297D01*
X952994Y1163471D01*
X965936D01*
X967621Y1163806D01*
X969049Y1164760D01*
X972751Y1168462D01*
X972751Y1168462D01*
X973155Y1169066D01*
X995721Y1165087D01*
X998677Y1181847D01*
X974041Y1186191D01*
Y1191588D01*
X976695Y1194243D01*
X977650Y1195671D01*
X977985Y1197356D01*
Y1237067D01*
X977650Y1238752D01*
X976695Y1240181D01*
X975267Y1241135D01*
X974563Y1241275D01*
X974693Y1242012D01*
X940173Y1248099D01*
X938056Y1236092D01*
X969179Y1230604D01*
Y1228741D01*
X968206Y1227924D01*
X956079Y1230063D01*
X955021Y1224060D01*
X953962Y1218056D01*
X969179Y1215373D01*
Y1213509D01*
X968206Y1212693D01*
X934964Y1218555D01*
X934145Y1213910D01*
X917408D01*
X916550Y1214614D01*
Y1219154D01*
X931020Y1219877D01*
X943633D01*
X951461Y1218497D01*
X952519Y1224501D01*
X953578Y1230504D01*
X937569Y1233327D01*
X936750Y1228683D01*
X930910D01*
X930801Y1228661D01*
X930690Y1228677D01*
X918468Y1228066D01*
X917953Y1229227D01*
X932245Y1243519D01*
X933199Y1244947D01*
X933535Y1246632D01*
X933535Y1246632D01*
Y1280876D01*
X956883Y1304225D01*
X957579Y1305267D01*
X957967Y1305422D01*
X958752Y1305500D01*
X959091Y1305443D01*
X965877Y1298656D01*
Y1259786D01*
X964904Y1258969D01*
X942778Y1262871D01*
X940661Y1250864D01*
X975180Y1244778D01*
X977297Y1256784D01*
X974683Y1257245D01*
Y1300480D01*
X974348Y1302165D01*
X973393Y1303593D01*
X973393Y1303593D01*
X970022Y1306964D01*
X970188Y1308223D01*
X990935Y1320202D01*
X992118Y1320209D01*
X1010901Y1287676D01*
D02*
G37*
G36*
X924729Y1259800D02*
Y1248456D01*
X910324Y1234050D01*
X906780D01*
Y1223010D01*
Y1211970D01*
X911984D01*
X912470Y1210797D01*
X909614Y1207940D01*
X906963Y1208650D01*
X904057D01*
X901406Y1207940D01*
X898549Y1210797D01*
X899035Y1211970D01*
X904240D01*
Y1223010D01*
Y1234050D01*
X894470D01*
Y1223784D01*
X893200Y1223258D01*
X885763Y1230695D01*
X884490Y1231546D01*
X884054Y1232576D01*
X883977Y1232829D01*
X884430Y1233282D01*
X885768Y1235598D01*
X886460Y1238182D01*
Y1240858D01*
X885768Y1243442D01*
X884430Y1245758D01*
X882879Y1247309D01*
X883361Y1248579D01*
X894470D01*
Y1246957D01*
X895222Y1244149D01*
X896676Y1241631D01*
X898731Y1239576D01*
X901249Y1238122D01*
X904057Y1237370D01*
X906963D01*
X909771Y1238122D01*
X912289Y1239576D01*
X914344Y1241631D01*
X915798Y1244149D01*
X916550Y1246957D01*
Y1249863D01*
X915840Y1252514D01*
X923355Y1260029D01*
X923459Y1260185D01*
X924729Y1259800D01*
D02*
G37*
G36*
X693297Y1235117D02*
X693295Y1235116D01*
X691640Y1233461D01*
X691031Y1232405D01*
X666975D01*
X666506Y1235065D01*
X650497Y1232242D01*
X651556Y1226238D01*
X652614Y1220235D01*
X668623Y1223058D01*
Y1223058D01*
X669078Y1223600D01*
X691031D01*
X691640Y1222544D01*
X693295Y1220889D01*
X695323Y1219718D01*
X697484Y1219139D01*
Y1228003D01*
X700024D01*
Y1219139D01*
X702185Y1219718D01*
X704213Y1220889D01*
X705868Y1222544D01*
X707038Y1224571D01*
X707522Y1226376D01*
X708822Y1226871D01*
X715198Y1220496D01*
X714418Y1219479D01*
X714331Y1219530D01*
X712070Y1220136D01*
X709729D01*
X707468Y1219530D01*
X705441Y1218360D01*
X703785Y1216704D01*
X703639Y1216450D01*
X691447D01*
X690374Y1218309D01*
X688719Y1219964D01*
X686691Y1221134D01*
X684430Y1221740D01*
X682090D01*
X679829Y1221134D01*
X677801Y1219964D01*
X676146Y1218309D01*
X675646Y1217443D01*
X669613D01*
X669111Y1220293D01*
X642772Y1215648D01*
X639444D01*
X638491Y1216601D01*
X638873Y1217812D01*
X650113Y1219794D01*
X649054Y1225797D01*
X647996Y1231801D01*
X631987Y1228978D01*
X632877Y1223928D01*
X631751Y1223342D01*
X630367Y1224725D01*
Y1231644D01*
X631499Y1231743D01*
Y1231743D01*
X657837Y1236387D01*
X692957D01*
X693297Y1235117D01*
D02*
G37*
G36*
X750191Y1207006D02*
X752219Y1205836D01*
X754084Y1205336D01*
X754607Y1204063D01*
X742885Y1192341D01*
X742841Y1192276D01*
X738124D01*
Y1176020D01*
X750316D01*
Y1176103D01*
X750401Y1176528D01*
Y1187404D01*
X751950Y1188954D01*
X753124Y1188468D01*
Y1159005D01*
X751586Y1157467D01*
X750316Y1157993D01*
Y1173480D01*
X745490D01*
Y1157224D01*
X749547D01*
X750072Y1155954D01*
X748125Y1154007D01*
X733148D01*
X732538Y1155063D01*
X731646Y1155954D01*
X732172Y1157224D01*
X735316D01*
Y1192276D01*
X735316Y1192276D01*
X735316D01*
X735944Y1193267D01*
X749937Y1207261D01*
X750191Y1207006D01*
D02*
G37*
G36*
X593593Y1250533D02*
X614493Y1254219D01*
X615466Y1253402D01*
Y1209947D01*
X615801Y1208262D01*
X616756Y1206834D01*
X630229Y1193361D01*
X631658Y1192406D01*
X633342Y1192071D01*
X638494D01*
X639313Y1187427D01*
X655787Y1190331D01*
X656759Y1189515D01*
Y1178814D01*
X657094Y1177129D01*
X658049Y1175701D01*
X658176Y1175574D01*
X657860Y1174396D01*
Y1172056D01*
X658466Y1169795D01*
X659034Y1168810D01*
X658301Y1167540D01*
X658273D01*
X654884Y1166866D01*
X651692Y1165544D01*
X648819Y1163624D01*
X646376Y1161181D01*
X644456Y1158308D01*
X643134Y1155117D01*
X642460Y1151728D01*
Y1148273D01*
X643134Y1144884D01*
X644456Y1141692D01*
X646376Y1138819D01*
X648819Y1136376D01*
X651692Y1134456D01*
X654884Y1133134D01*
X658273Y1132460D01*
X661728D01*
X665116Y1133134D01*
X668308Y1134456D01*
X671181Y1136376D01*
X673624Y1138819D01*
X675544Y1141692D01*
X676866Y1144884D01*
X677540Y1148273D01*
Y1151728D01*
X676866Y1155117D01*
X675544Y1158308D01*
X673624Y1161181D01*
X671181Y1163624D01*
X670837Y1163854D01*
X670886Y1165349D01*
X672209Y1166112D01*
X673864Y1167767D01*
X675034Y1169795D01*
X675640Y1172056D01*
Y1174396D01*
X675034Y1176657D01*
X673864Y1178685D01*
X672209Y1180340D01*
X670181Y1181510D01*
X667920Y1182116D01*
X665580D01*
X665565Y1182128D01*
Y1192056D01*
X673833Y1193514D01*
X671716Y1205520D01*
X645377Y1200876D01*
X635166D01*
X624271Y1211771D01*
Y1216709D01*
X625445Y1217195D01*
X634507Y1208133D01*
X635816Y1207258D01*
X636708Y1202199D01*
X671228Y1208286D01*
Y1208286D01*
X671523Y1208638D01*
X675427D01*
X676146Y1207391D01*
X677801Y1205736D01*
X679829Y1204566D01*
X682090Y1203960D01*
X684430D01*
X686691Y1204566D01*
X688719Y1205736D01*
X690374Y1207391D01*
X690520Y1207645D01*
X702713D01*
X703785Y1205787D01*
X705441Y1204132D01*
X707468Y1202962D01*
X709729Y1202356D01*
X712070D01*
X714331Y1202962D01*
X716358Y1204132D01*
X718013Y1205787D01*
X718743Y1207052D01*
X720294Y1207258D01*
X721562Y1205990D01*
X723397Y1204930D01*
Y1198372D01*
X723423Y1198241D01*
X723405Y1198108D01*
X723718Y1192907D01*
X723124Y1192276D01*
X723124D01*
Y1158191D01*
X721993Y1157888D01*
X721586Y1157654D01*
X720316Y1158387D01*
Y1192276D01*
X708124D01*
Y1157224D01*
X709818D01*
Y1148303D01*
X693211D01*
Y1123157D01*
X710229D01*
Y1139395D01*
X711499Y1139921D01*
X715597Y1135823D01*
X717025Y1134868D01*
X718710Y1134533D01*
X762762D01*
X764447Y1134868D01*
X765875Y1135823D01*
X777038Y1146985D01*
X778211Y1146499D01*
Y1123157D01*
X795229D01*
Y1148303D01*
X780015D01*
X779529Y1149476D01*
X781096Y1151043D01*
X790702D01*
X792387Y1151378D01*
X793815Y1152333D01*
X802770Y1161288D01*
X803556D01*
X805817Y1161894D01*
X807845Y1163064D01*
X809500Y1164719D01*
X810109Y1165775D01*
X822664D01*
Y1157224D01*
X834856D01*
Y1189651D01*
X837664D01*
Y1157224D01*
X849856D01*
Y1192276D01*
X848163D01*
Y1226086D01*
X847828Y1227771D01*
X847703Y1227957D01*
X848106Y1229460D01*
Y1229856D01*
X849279Y1230342D01*
X856115Y1223507D01*
Y1206500D01*
X856450Y1204815D01*
X857404Y1203387D01*
X863754Y1197037D01*
X865183Y1196083D01*
X866868Y1195747D01*
X880587D01*
X883073Y1193262D01*
X882664Y1192276D01*
X882664D01*
Y1159849D01*
X879856D01*
Y1192276D01*
X867664D01*
Y1157224D01*
X869357D01*
Y1144824D01*
X867252Y1142718D01*
X866794Y1143000D01*
X858520D01*
Y1134726D01*
X858802Y1134268D01*
X857058Y1132524D01*
X855880Y1132840D01*
X853540D01*
X851279Y1132234D01*
X849251Y1131064D01*
X847596Y1129409D01*
X846426Y1127381D01*
X845820Y1125120D01*
Y1122780D01*
X846426Y1120519D01*
X847596Y1118491D01*
X848499Y1117589D01*
X847973Y1116319D01*
X691209D01*
X691067Y1116290D01*
X685361Y1116739D01*
X679657Y1118109D01*
X674384Y1120293D01*
X674277Y1120378D01*
X604231Y1156010D01*
X604086Y1156050D01*
X599189Y1159051D01*
X594729Y1162861D01*
X590919Y1167322D01*
X587854Y1172324D01*
X585608Y1177744D01*
X584239Y1183448D01*
X583779Y1189296D01*
X584017Y1192318D01*
X583941Y1192325D01*
X583941Y1192325D01*
X589822Y1264606D01*
X591101Y1264666D01*
X593593Y1250533D01*
D02*
G37*
%LPC*%
G36*
X804368Y1537730D02*
X800912D01*
X797524Y1537056D01*
X794332Y1535734D01*
X791459Y1533814D01*
X789016Y1531371D01*
X787096Y1528498D01*
X785774Y1525306D01*
X785100Y1521918D01*
Y1518463D01*
X785774Y1515074D01*
X787096Y1511882D01*
X789016Y1509009D01*
X791459Y1506566D01*
X794332Y1504646D01*
X797524Y1503324D01*
X800912Y1502650D01*
X804368D01*
X807756Y1503324D01*
X810948Y1504646D01*
X813821Y1506566D01*
X816264Y1509009D01*
X818184Y1511882D01*
X819506Y1515074D01*
X820180Y1518463D01*
Y1521918D01*
X819506Y1525306D01*
X818184Y1528498D01*
X816264Y1531371D01*
X813821Y1533814D01*
X810948Y1535734D01*
X807756Y1537056D01*
X804368Y1537730D01*
D02*
G37*
G36*
X856189Y1493043D02*
X839171D01*
Y1467897D01*
X856189D01*
Y1493043D01*
D02*
G37*
G36*
X886460Y1452880D02*
X877570D01*
Y1443990D01*
X886460D01*
Y1452880D01*
D02*
G37*
G36*
Y1441450D02*
X877570D01*
Y1432560D01*
X886460D01*
Y1441450D01*
D02*
G37*
G36*
X875030D02*
X866140D01*
Y1432560D01*
X875030D01*
Y1441450D01*
D02*
G37*
G36*
X877638Y1427480D02*
X874962D01*
X872378Y1426788D01*
X870062Y1425450D01*
X868170Y1423558D01*
X866832Y1421242D01*
X866140Y1418658D01*
Y1415982D01*
X866832Y1413398D01*
X868170Y1411082D01*
X870062Y1409190D01*
X872378Y1407852D01*
X874962Y1407160D01*
X877638D01*
X880222Y1407852D01*
X882538Y1409190D01*
X884430Y1411082D01*
X885768Y1413398D01*
X886460Y1415982D01*
Y1418658D01*
X885768Y1421242D01*
X884430Y1423558D01*
X882538Y1425450D01*
X880222Y1426788D01*
X877638Y1427480D01*
D02*
G37*
G36*
Y1402080D02*
X874962D01*
X872378Y1401388D01*
X870062Y1400050D01*
X868170Y1398158D01*
X866832Y1395842D01*
X866140Y1393258D01*
Y1390582D01*
X866832Y1387998D01*
X868170Y1385682D01*
X870062Y1383790D01*
X872378Y1382452D01*
X874962Y1381760D01*
X877638D01*
X880222Y1382452D01*
X882538Y1383790D01*
X884430Y1385682D01*
X885768Y1387998D01*
X886460Y1390582D01*
Y1393258D01*
X885768Y1395842D01*
X884430Y1398158D01*
X882538Y1400050D01*
X880222Y1401388D01*
X877638Y1402080D01*
D02*
G37*
G36*
X665354Y1402201D02*
X656845Y1387463D01*
X678622Y1374890D01*
X687131Y1389628D01*
X665354Y1402201D01*
D02*
G37*
G36*
X672400Y1346272D02*
X669987Y1342093D01*
X684065Y1333965D01*
X686478Y1338144D01*
X672400Y1346272D01*
D02*
G37*
G36*
X668717Y1339893D02*
X666304Y1335714D01*
X680382Y1327586D01*
X682795Y1331765D01*
X668717Y1339893D01*
D02*
G37*
G36*
X769620Y1327123D02*
Y1319530D01*
X777213D01*
X776634Y1321691D01*
X775464Y1323719D01*
X773809Y1325374D01*
X771781Y1326544D01*
X769620Y1327123D01*
D02*
G37*
G36*
X767080D02*
X764919Y1326544D01*
X762891Y1325374D01*
X761236Y1323719D01*
X760066Y1321691D01*
X759487Y1319530D01*
X767080D01*
Y1327123D01*
D02*
G37*
G36*
X726530Y1249680D02*
X717640D01*
Y1240790D01*
X726530D01*
Y1249680D01*
D02*
G37*
G36*
X916602Y1343224D02*
X902524Y1335096D01*
X904937Y1330917D01*
X919015Y1339045D01*
X916602Y1343224D01*
D02*
G37*
G36*
X920285Y1336845D02*
X906207Y1328717D01*
X908620Y1324538D01*
X922698Y1332666D01*
X920285Y1336845D01*
D02*
G37*
G36*
X834363Y1301750D02*
X826770D01*
Y1294157D01*
X828931Y1294736D01*
X830959Y1295906D01*
X832614Y1297561D01*
X833784Y1299589D01*
X834363Y1301750D01*
D02*
G37*
G36*
X988672Y1269921D02*
X985717Y1253162D01*
X1010481Y1248795D01*
X1013436Y1265555D01*
X988672Y1269921D01*
D02*
G37*
G36*
X909769Y1148303D02*
X892751D01*
Y1123157D01*
X909769D01*
Y1148303D01*
D02*
G37*
G36*
X742950Y1173480D02*
X738124D01*
Y1157224D01*
X742950D01*
Y1173480D01*
D02*
G37*
G36*
X864856Y1192276D02*
X860030D01*
Y1176020D01*
X864856D01*
Y1192276D01*
D02*
G37*
G36*
X857490D02*
X852664D01*
Y1176020D01*
X857490D01*
Y1192276D01*
D02*
G37*
G36*
X630162Y1187951D02*
X605398Y1183585D01*
X608353Y1166825D01*
X633117Y1171192D01*
X630162Y1187951D01*
D02*
G37*
G36*
X864856Y1173480D02*
X852664D01*
Y1157224D01*
X853603D01*
Y1152429D01*
X851791Y1151384D01*
X850136Y1149729D01*
X848966Y1147701D01*
X848387Y1145540D01*
X866113D01*
X865534Y1147701D01*
X864364Y1149729D01*
X862709Y1151384D01*
X862408Y1151557D01*
Y1157224D01*
X864856D01*
Y1173480D01*
D02*
G37*
G36*
X855980Y1143000D02*
X848387D01*
X848966Y1140839D01*
X850136Y1138811D01*
X851791Y1137156D01*
X853819Y1135986D01*
X855980Y1135407D01*
Y1143000D01*
D02*
G37*
G36*
X824769Y1148303D02*
X807751D01*
Y1123157D01*
X824769D01*
Y1148303D01*
D02*
G37*
%LPD*%
D17*
X835180Y1441450D02*
D03*
X820180D02*
D03*
X805180D02*
D03*
X790180D02*
D03*
X775180D02*
D03*
X774220Y1174750D02*
D03*
X759220D02*
D03*
X744220D02*
D03*
X729220D02*
D03*
X714220D02*
D03*
X888760D02*
D03*
X873760D02*
D03*
X858760D02*
D03*
X843760D02*
D03*
X828760D02*
D03*
D23*
X847680Y1480470D02*
D03*
X762680D02*
D03*
X786720Y1135730D02*
D03*
X701720D02*
D03*
X901260D02*
D03*
X816260D02*
D03*
D24*
X911358Y1362970D02*
Y1365504D01*
X900430Y1359662D02*
X908050D01*
X911358Y1362970D01*
X970280Y1253824D02*
Y1300480D01*
X661162Y1178814D02*
Y1196474D01*
X894842Y1318768D02*
X928250D01*
X741680Y1407465D02*
Y1438148D01*
X718312Y1405382D02*
X739597D01*
X741680Y1438148D02*
X766826Y1463294D01*
X739597Y1405382D02*
X741680Y1407465D01*
X773915Y1440185D02*
X775180Y1441450D01*
X773915Y1423742D02*
Y1440185D01*
X766140Y1415967D02*
X773915Y1423742D01*
X766140Y1415898D02*
Y1415967D01*
X756132Y1405890D02*
X766140Y1415898D01*
X773430Y1388778D02*
Y1404620D01*
X769620Y1384968D02*
X773430Y1388778D01*
X769620Y1371600D02*
Y1384968D01*
X789990Y1405840D02*
X790085Y1405934D01*
Y1441355D01*
X790180Y1441450D01*
X806958Y1425702D02*
Y1439672D01*
X811370Y1355090D02*
Y1421290D01*
X806958Y1425702D02*
X811370Y1421290D01*
X805180Y1441450D02*
X806958Y1439672D01*
X835180Y1430020D02*
X844550Y1420650D01*
X835180Y1430020D02*
Y1454658D01*
X844550Y1300734D02*
Y1420650D01*
X820996Y1423293D02*
X838454Y1405835D01*
Y1331468D02*
Y1405835D01*
X820996Y1423293D02*
Y1440634D01*
X820180Y1441450D02*
X820996Y1440634D01*
X820180Y1441450D02*
Y1459089D01*
X709930Y1397000D02*
X718312Y1405382D01*
X698608Y1395222D02*
X700387Y1397000D01*
X680456Y1363781D02*
X698608Y1395222D01*
X700387Y1397000D02*
X709930D01*
X680456Y1358559D02*
Y1363781D01*
X681736Y1354015D02*
Y1357279D01*
X680456Y1358559D02*
X681736Y1357279D01*
X690531Y1345220D02*
X692030D01*
X681736Y1354015D02*
X690531Y1345220D01*
X679884Y1317594D02*
X679884Y1317594D01*
X684114Y1313364D02*
X688911Y1308567D01*
X678239Y1319239D02*
X679884Y1317594D01*
X677030Y1319239D02*
X678239D01*
X688911Y1292669D02*
Y1308567D01*
X684260Y1313509D02*
X684665Y1314021D01*
X683260Y1212850D02*
X684062Y1212048D01*
X683070Y1213040D02*
X683260Y1212850D01*
X680488Y1318198D02*
X684665Y1314021D01*
X661924Y1265682D02*
X688911Y1292669D01*
X645096Y1255562D02*
X687364D01*
X650305Y1226018D02*
X661561Y1228003D01*
X698754D01*
X647700Y1240790D02*
X701130D01*
X727800Y1214120D01*
X687364Y1255562D02*
X709422Y1277620D01*
X710097Y1212048D02*
X710899Y1211246D01*
X684062Y1212048D02*
X710097D01*
X654704Y1213040D02*
X683070D01*
X652909Y1211246D02*
X654704Y1213040D01*
X637620Y1211246D02*
X652909D01*
X753900Y1212370D02*
X755650Y1214120D01*
X748820Y1212370D02*
X753900D01*
X728198Y1191748D02*
X748820Y1212370D01*
X728058Y1194072D02*
X728198Y1191748D01*
X729220Y1174750D01*
X745998Y1189228D02*
X768350Y1211580D01*
X744220Y1174750D02*
X745998Y1176528D01*
Y1189228D01*
X768350Y1211580D02*
Y1245870D01*
X825500Y1303020D01*
X727800Y1198372D02*
Y1214120D01*
X784352Y1270672D01*
Y1277366D01*
X727800Y1198372D02*
X728058Y1194072D01*
X753872Y1303782D02*
X768350Y1318260D01*
X755650Y1405890D02*
X756132D01*
X858005Y1173995D02*
X858760Y1174750D01*
X857250Y1144270D02*
X858005Y1145025D01*
Y1173995D01*
X854710Y1123950D02*
X873760Y1143000D01*
Y1158875D01*
X712978Y1303782D02*
X753872D01*
X911358Y1365504D02*
X951992D01*
X907384D02*
X911358D01*
X906693D02*
X907384D01*
X911358D02*
Y1367798D01*
X907384Y1365504D02*
X911358Y1367798D01*
X905750Y1364561D02*
X907384Y1365504D01*
X814070Y1230307D02*
Y1253490D01*
Y1209294D02*
Y1230307D01*
X825061Y1241298D01*
X793057Y1209294D02*
X814070Y1230307D01*
X774220Y1190457D02*
X793057Y1209294D01*
X843760Y1192530D02*
Y1226086D01*
X948690Y1188720D02*
Y1194736D01*
X959866Y1179576D02*
Y1194736D01*
X948690D02*
X959866D01*
X948560D02*
X948690D01*
X835180Y1454658D02*
X858266D01*
X776732Y1364488D02*
X801370D01*
X805434Y1170178D02*
X828760D01*
X802386D02*
X805434D01*
X790702Y1155446D02*
X805434Y1170178D01*
X930910Y1224280D02*
X953770D01*
X905510Y1223010D02*
X930910Y1224280D01*
X727800Y1239520D02*
X811370Y1323090D01*
Y1355090D01*
X814070Y1253490D02*
X876300Y1315720D01*
X793057Y1209294D02*
X814070D01*
X774220Y1174750D02*
Y1190457D01*
X888760Y1174750D02*
Y1193800D01*
X882410Y1200150D02*
X888760Y1193800D01*
X866868Y1200150D02*
X882410D01*
X860518Y1206500D02*
X866868Y1200150D01*
X860518Y1206500D02*
Y1225331D01*
X844550Y1241298D02*
X860518Y1225331D01*
X825061Y1241298D02*
X844550D01*
X902753Y1351571D02*
X913250D01*
X892302Y1341120D02*
X902753Y1351571D01*
X876300Y1341120D02*
X892302D01*
X631172Y1265682D02*
X661924D01*
X625965Y1260475D02*
X631172Y1265682D01*
X625965Y1222901D02*
Y1260475D01*
Y1222901D02*
X637620Y1211246D01*
X759220Y1158875D02*
Y1174750D01*
X749949Y1149604D02*
X759220Y1158875D01*
X725424Y1149604D02*
X749949D01*
X843760Y1174750D02*
Y1192530D01*
X842236Y1194054D02*
X843760Y1192530D01*
X799592Y1194054D02*
X842236D01*
X790448Y1184910D02*
X799592Y1194054D01*
X828760Y1170178D02*
Y1174750D01*
X802386Y1258570D02*
X844550Y1300734D01*
X802386Y1234694D02*
Y1258570D01*
X739648Y1355090D02*
X801370D01*
X739140Y1354582D02*
X739648Y1355090D01*
X704088Y1354582D02*
X739140D01*
X700459Y1358211D02*
X704088Y1354582D01*
X699530Y1358211D02*
X700459D01*
X779272Y1155446D02*
X790702D01*
X762762Y1138936D02*
X779272Y1155446D01*
X718710Y1138936D02*
X762762D01*
X714220Y1143426D02*
X718710Y1138936D01*
X714220Y1143426D02*
Y1174750D01*
X655515Y1196474D02*
X661162D01*
Y1178814D02*
X666750Y1173226D01*
X948690Y1188720D02*
X958850Y1178560D01*
X769620Y1371600D02*
X776732Y1364488D01*
X801370Y1355090D02*
Y1364488D01*
X815975Y1463294D02*
X820180Y1459089D01*
X766826Y1463294D02*
X815975D01*
X852297Y1264285D02*
X863600Y1252982D01*
X900938D01*
X905510Y1248410D01*
X801370Y1332005D02*
Y1355090D01*
X746984Y1277620D02*
X801370Y1332005D01*
X709422Y1277620D02*
X746984D01*
X784352Y1277366D02*
X838454Y1331468D01*
X958979Y1253824D02*
X970280D01*
X961898Y1308862D02*
X970280Y1300480D01*
X961898Y1308862D02*
Y1355598D01*
X951992Y1365504D02*
X961898Y1355598D01*
X905750Y1364561D02*
X906693Y1365504D01*
X684530Y1332230D02*
X712978Y1303782D01*
X956375Y1239052D02*
X967631Y1237067D01*
X973582D01*
Y1197356D02*
Y1237067D01*
X969638Y1193412D02*
X973582Y1197356D01*
X969638Y1171575D02*
Y1193412D01*
X965936Y1167873D02*
X969638Y1171575D01*
X948302Y1167873D02*
X965936D01*
X939647Y1176528D02*
X948302Y1167873D01*
X929894Y1176528D02*
X939647D01*
X908812Y1155446D02*
X929894Y1176528D01*
X877189Y1155446D02*
X908812D01*
X873760Y1158875D02*
X877189Y1155446D01*
X873760Y1158875D02*
Y1174750D01*
X958850Y1178560D02*
X959866Y1179576D01*
X925757Y1312599D02*
X935750D01*
X920242Y1307084D02*
X925757Y1312599D01*
X920242Y1263142D02*
Y1307084D01*
X905510Y1248410D02*
X920242Y1263142D01*
X928250Y1318768D02*
Y1325589D01*
X890524Y1314450D02*
X894842Y1318768D01*
X890524Y1285494D02*
Y1314450D01*
X882650Y1277620D02*
X890524Y1285494D01*
X849249Y1277620D02*
X882650D01*
X841629Y1270000D02*
X849249Y1277620D01*
X841629Y1253617D02*
Y1270000D01*
Y1253617D02*
X867664Y1227582D01*
X882650D01*
X890524Y1219708D01*
Y1212596D02*
Y1219708D01*
Y1212596D02*
X905510Y1197610D01*
X647881Y1306249D02*
X669530D01*
X619869Y1278237D02*
X647881Y1306249D01*
X619869Y1209947D02*
Y1278237D01*
Y1209947D02*
X633342Y1196474D01*
X655515D01*
X839216Y1230630D02*
X843760Y1226086D01*
X811370Y1355090D02*
X825500D01*
X905510Y1197610D02*
X917408Y1209508D01*
X951165D01*
X894588Y1353820D02*
X900430Y1359662D01*
X871982Y1353820D02*
X894588D01*
X864362Y1346200D02*
X871982Y1353820D01*
X864362Y1327658D02*
Y1346200D01*
Y1327658D02*
X876300Y1315720D01*
X920750Y1338580D02*
X930649Y1344295D01*
X939800D01*
X953770Y1330325D01*
Y1307338D02*
Y1330325D01*
X929132Y1282700D02*
X953770Y1307338D01*
X929132Y1246632D02*
Y1282700D01*
X905510Y1223010D02*
X929132Y1246632D01*
D25*
X727800Y1214120D02*
D03*
Y1264920D02*
D03*
Y1290320D02*
D03*
Y1315720D02*
D03*
X876300Y1417320D02*
D03*
Y1391920D02*
D03*
Y1366520D02*
D03*
Y1341120D02*
D03*
Y1315720D02*
D03*
Y1290320D02*
D03*
Y1264920D02*
D03*
Y1239520D02*
D03*
Y1214120D02*
D03*
X727800Y1442720D02*
D03*
Y1417320D02*
D03*
Y1391920D02*
D03*
Y1366520D02*
D03*
Y1341120D02*
D03*
D26*
Y1239520D02*
D03*
X876300Y1442720D02*
D03*
D27*
X905510Y1299210D02*
D03*
Y1273810D02*
D03*
Y1248410D02*
D03*
Y1197610D02*
D03*
D28*
Y1223010D02*
D03*
D29*
X940000Y1150000D02*
D03*
X802640Y1520190D02*
D03*
X660000Y1150000D02*
D03*
D30*
X773430Y1404620D02*
D03*
X789990Y1405840D02*
D03*
X698754Y1228003D02*
D03*
X710899Y1211246D02*
D03*
X683260Y1212850D02*
D03*
X755650Y1214120D02*
D03*
X768350Y1318260D02*
D03*
X755650Y1405890D02*
D03*
X857250Y1144270D02*
D03*
X854710Y1123950D02*
D03*
X814070Y1209294D02*
D03*
X725424Y1149604D02*
D03*
X790448Y1184910D02*
D03*
X802386Y1234694D02*
D03*
Y1170178D02*
D03*
X858266Y1454658D02*
D03*
X666750Y1173226D02*
D03*
X958850Y1178560D02*
D03*
X852297Y1264285D02*
D03*
X825500Y1355090D02*
D03*
Y1303020D02*
D03*
X839216Y1230630D02*
D03*
D31*
X680488Y1318198D02*
D03*
D32*
X699530Y1358211D02*
D03*
X692030Y1345220D02*
D03*
X684530Y1332230D02*
D03*
X677030Y1319239D02*
D03*
X669530Y1306249D02*
D03*
D33*
X671988Y1388546D02*
D03*
X629488Y1314934D02*
D03*
D34*
X645096Y1255562D02*
D03*
X647700Y1240790D02*
D03*
X650305Y1226018D02*
D03*
X652909Y1211246D02*
D03*
X655515Y1196474D02*
D03*
D35*
X604498Y1261096D02*
D03*
X619258Y1177388D02*
D03*
D36*
X933292Y1394896D02*
D03*
X975792Y1321284D02*
D03*
D37*
X935750Y1312599D02*
D03*
X928250Y1325589D02*
D03*
X920750Y1338580D02*
D03*
X913250Y1351571D02*
D03*
X905750Y1364561D02*
D03*
D38*
X948560Y1194736D02*
D03*
X951165Y1209508D02*
D03*
X953770Y1224280D02*
D03*
X956375Y1239052D02*
D03*
X958979Y1253824D02*
D03*
D39*
X984817Y1175650D02*
D03*
X999577Y1259358D02*
D03*
D40*
X801370Y1355090D02*
D03*
X811370D02*
D03*
D41*
X788370Y1380340D02*
D03*
X824370D02*
D03*
M02*
