G04*
G04 #@! TF.GenerationSoftware,Altium Limited,Altium Designer,21.6.4 (81)*
G04*
G04 Layer_Color=16711935*
%FSLAX44Y44*%
%MOMM*%
G71*
G04*
G04 #@! TF.SameCoordinates,42E99185-249E-4A08-A5EB-3BBFC5BDC6E3*
G04*
G04*
G04 #@! TF.FilePolarity,Negative*
G04*
G01*
G75*
%ADD15R,2.2098X1.3970*%
%ADD16R,2.9972X0.7112*%
%ADD26C,1.1942*%
G04:AMPARAMS|DCode=27|XSize=1.3502mm|YSize=2.8702mm|CornerRadius=0.6751mm|HoleSize=0mm|Usage=FLASHONLY|Rotation=0.000|XOffset=0mm|YOffset=0mm|HoleType=Round|Shape=RoundedRectangle|*
%AMROUNDEDRECTD27*
21,1,1.3502,1.5200,0,0,0.0*
21,1,0.0000,2.8702,0,0,0.0*
1,1,1.3502,0.0000,-0.7600*
1,1,1.3502,0.0000,-0.7600*
1,1,1.3502,0.0000,0.7600*
1,1,1.3502,0.0000,0.7600*
%
%ADD27ROUNDEDRECTD27*%
%ADD28C,0.7112*%
%ADD38R,1.3082X1.0057*%
%ADD40R,1.9000X0.4000*%
%ADD41R,1.3335X0.4318*%
%ADD42C,0.9902*%
%ADD43R,1.6532X1.3532*%
D15*
X268890Y21000D02*
D03*
Y106000D02*
D03*
D16*
X229870Y33500D02*
D03*
Y48500D02*
D03*
Y63500D02*
D03*
Y78500D02*
D03*
Y93500D02*
D03*
D26*
X118110Y21590D02*
D03*
X67310Y11430D02*
D03*
Y31750D02*
D03*
D27*
X25690Y63500D02*
D03*
X93690D02*
D03*
D28*
X57658Y102743D02*
D03*
X173736Y70279D02*
D03*
X159004Y100076D02*
D03*
X176276Y86868D02*
D03*
X208026Y33020D02*
D03*
X70104Y40640D02*
D03*
X23563Y91254D02*
D03*
X110490Y114554D02*
D03*
X249174Y93472D02*
D03*
X121666Y70358D02*
D03*
X84836Y35814D02*
D03*
X229870Y114554D02*
D03*
X78486Y5334D02*
D03*
X162306Y65786D02*
D03*
X126492Y78232D02*
D03*
X95123Y92456D02*
D03*
X117602Y41402D02*
D03*
X142748Y48200D02*
D03*
X253492Y72136D02*
D03*
X167234Y54508D02*
D03*
X253492Y64770D02*
D03*
X210820Y77216D02*
D03*
X68146Y88138D02*
D03*
X103886Y114300D02*
D03*
X60452Y88138D02*
D03*
X117094Y121666D02*
D03*
X117348Y33909D02*
D03*
X100076Y80518D02*
D03*
X16101Y90960D02*
D03*
X5080Y105156D02*
D03*
X48514Y113284D02*
D03*
X57912Y23876D02*
D03*
X4700Y56768D02*
D03*
X12206Y33885D02*
D03*
X31496Y89535D02*
D03*
X23622Y42672D02*
D03*
X56134Y10160D02*
D03*
X176911Y56201D02*
D03*
X212852Y9398D02*
D03*
X129540Y12700D02*
D03*
X180400Y11430D02*
D03*
X148209Y95123D02*
D03*
X12192Y57658D02*
D03*
X67056Y105918D02*
D03*
X217913Y23622D02*
D03*
X167386Y24384D02*
D03*
X159512Y93472D02*
D03*
D38*
X193900Y111462D02*
D03*
Y96938D02*
D03*
D40*
X194310Y21020D02*
D03*
Y33020D02*
D03*
Y45020D02*
D03*
D41*
X169482Y112620D02*
D03*
Y106120D02*
D03*
Y99620D02*
D03*
Y93120D02*
D03*
X125159D02*
D03*
Y99620D02*
D03*
Y106120D02*
D03*
Y112620D02*
D03*
D42*
X105410Y15240D02*
D03*
Y27940D02*
D03*
X92710Y15240D02*
D03*
Y27940D02*
D03*
X80010D02*
D03*
Y15240D02*
D03*
D43*
X193900Y63450D02*
D03*
Y80950D02*
D03*
M02*
